<mxfile host="app.diagrams.net" modified="2024-06-27T05:37:36.579Z" agent="Mozilla/5.0 (Windows NT 10.0; Win64; x64) AppleWebKit/537.36 (KHTML, like Gecko) Chrome/126.0.0.0 Safari/537.36 Edg/126.0.0.0" etag="HZNMSKet7mGFwwF_JzCY" version="24.6.3" type="device">
  <diagram name="Page-1" id="bd83a815-5ea8-2e97-e5ec-87c9f400f2fa">
    <mxGraphModel dx="2037" dy="-118" grid="1" gridSize="10" guides="1" tooltips="1" connect="1" arrows="1" fold="1" page="1" pageScale="1.5" pageWidth="1169" pageHeight="826" background="none" math="0" shadow="0">
      <root>
        <mxCell id="0" style=";html=1;" />
        <mxCell id="1" style=";html=1;" parent="0" />
        <mxCell id="ac8dYfmG1soSG2riglzt-164" value="" style="group" parent="1" vertex="1" connectable="0">
          <mxGeometry x="155" y="1800" width="1444" height="392" as="geometry" />
        </mxCell>
        <mxCell id="ac8dYfmG1soSG2riglzt-144" value="" style="shape=image;verticalLabelPosition=bottom;labelBackgroundColor=default;verticalAlign=top;aspect=fixed;imageAspect=0;image=data:image/png,iVBORw0KGgoAAAANSUhEUgAAAjEAAAFWCAYAAACYdsyLAAAAAXNSR0IArs4c6QAAIABJREFUeF7tnY+TVFWW56/7wypnAhJcBLo6KBsUsRVlcUDx9yihsw5K03ajtDTS/mIMV43YCP8MIzZCWcPGX43V2CiurSjbtjS6ItoqtA6IIhSCXQ6FgC0UxAxVzuy4cR5xnjdvvffyR72b+X58MsKwsvK9c8/9nJt5v3XOuclJ+/Yf+tbwgAAEIAABCEAAAjkjcJKImIdfH5czt3EXAhDIA4H7rv7K8PmSh0jhIwTyR0A+XxAx+YsbHkMgNwQQMbkJFY5CIHcEEDG5CxkOQyBfBBAx+YoX3kIgTwQQMXmKFr5CIIcEEDE5DBouQyAnBBAxOQkUbkIgrwQQMXmNHH5DIPsEEDHZjxEeQiDXBBAxuQ4fzkMg0wQQMZkOD85BIP8EEDH5jyEzgEBWCSBishoZ/IJAQQggYgoSSKYBgQwSQMRkMCi4BIEiEUDEFCmazAUC2SKAiMlWPPAGAoUjgIgpXEiZEAQyQwARk5lQ4AgEikkAEVPMuDIrCGSBACImC1HABwgUmAAipsDBZWoQaDMBREybA8DwECg6AURM0SPM/CDQPgKImPaxZ2QIlIIAIqYUYWaSEGgLAURMW7AzKATKQwARU55YM1MItJoAIqbVxBkPAiUjgIgpWcCZLgRaSAAR00LYDAWBMhJAxJQx6swZAq0hgIhpDee6RrnmfGOuPMeY//gfvrt8y2fG/O/36rrd3HG1MWdONGb3l8Y88Xp997hXRdn4yUXGdI8z5n+ua9xm1JzEyv/7d2Pe/MSY9dvibc6cbMyPZp14/aUtxny4t/HxuaP9BBAx7Y8BHkCgqAQQMRmJrAiFWWdEO1OvKElDxLgeqF8HB9IVMTpOIyItI6HCjQYJIGIaBMblEIBA3QQQMXWj8nehZhw6/rMx9qauomToX7/LRLiZDVvgRIkY/V1U9uN/zDNmfMUYESjyfxnnyL8YM6FyIptz5J+rhdW//psx//bvxpz8n77LopwxwZibLjbmrzujMyvq7z8PGvPcH4357MAJju7cxo06kYUa/NcTr/91hzEHBowZ81ffZWL+9hxj/suo6nF0DsotiY+/CGI5iQAihvUBAQj4IoCI8UW2Abtx2Q4RCDdeZMw/fn6i7BJXmtEN3BUxtoBRd2xBpAJAXxMxc/T4dyUpV8S4IkdKVnEiRW3Gve6KH7neLqVJuWlnvzFynTyknDRl/AlRpcLNLTepELLLcXIv2Z4GFqOHSxExHqBiEgIQCAggYjKwEFRs1Nps3et0ExdxIVmOvz33OwHyfz8+kSGR7I72k6hYUhFgZ2K038UVQq7AUlHyl2Mnyku1SlhJIsfOooh4EhEjD+2VcUWKvCY9Mjrf//qDE6JGS121+GgWKAMhL5ULiJhShZvJQqClBBAxLcUdPVgtIaB3uZkTN7tyweTvRMwHe09s+CJi3Idu+m4pRq6rJWI0g6LiKKrEY4/XqIixy05Rjb3is5aUpk+qLi/V4kNjcHsWOyKmPdwZFQJlIICIyUCUk8pJkk3Ztf/ECaW4TVpP+sgJIj2dlCRijv7LiczN/FknemGi+nA0WxPlmwqdHftOlHg0MxKV6Wi0nFRLxKg//V+fEDD22LX4JJ2EysAyKKwLiJjChpaJQaDtBBAxbQ+BMbUae12REld2srMoUeUkd6rNZGLERiPNs3EiRsWICqopE06Uk2qJGJuV+BLV2FyrLJeBkJfKBURMqcLNZCHQUgKImJbijh8sqglXr9aNOq6x1+0J0evjbOom34iIEV9UTO05cKLfZvRf1f6+lzifdW7uqaJaIsYuebnfNVOLT0ZCXTo3EDGlCzkThkDLCCBiWoa69kD1fNmde41mMqSUU+uItZu5qEfEaA+MK1h0LHv8qBnW+2V3URmbuC+7S+qzSeJTOwJc4YMAIsYHVWxCAAJCABHDOmiKQL3NyE0Z56ZCEUDEFCqcTAYCmSKAiMlUOPLhTK0vuMvHLPCyVQQQMa0izTgQKB8BREz5Yj6iGdv/PEK9/xzCiAbk5twTQMTkPoRMAAKZJYCIyWxocAwCxSCAiClGHJkFBLJIABGTxajgEwQKRAARU6BgMhUIZIwAIiZjAcEdCBSNACKmaBFlPhDIDgFETHZigScQKCQBREwhw8qkIJAJAoiYTIQBJyBQXAKImOLGlplBoN0EEDHtjgDjQ6DgBBAxBQ8w04NAGwkgYtoIn6EhUAYCiJgyRJk5QqA9BBAx7eHOqBAoDQFETGlCzUQh0HICiJiWI2dACJSLACKmXPFmthBoJQFETCtpMxYESkgAEVPCoDNlCLSIACKmRaAZBgJlJYCIKWvkmTcE/BNAxPhnzAgQKDUBREypw8/kIeCVACLGK16MQwACiBjWAAQg4IsAIsYXWexCAAIBAUQMCwECEPBFIBQxvgbALgQgAAEIQAACEPBF4KR9+w992zVxnC/72IUABEpMoP/LrwyfLyVeAEwdAh4JyOcLIsYjYExDoOwEEDFlXwHMHwL+CCBi/LHFMgQgYIxBxLAMIAABXwQQMb7IYhcCEAgIIGJYCBCAgC8CiBhfZLELAQggYlgDEICAVwKIGK94MQ4BCJCJYQ1AAAK+CCBifJHFLgQgQCaGNQABCHglgIjxihfjEIAAmRjWAAQg4IsAIsYXWexCAAJkYlgDEICAVwKIGK94MQ4BCJCJYQ1AAAK+CCBifJHFLgQgQCaGNQABCHglgIjxihfjEIAAmRjWAAQg4IsAIsYXWexCAAJkYlgDEICAVwKpiZjjg0Pm4UefNmdPnWLmz5s7Iqc3f/CReWPju+a+u281p3R2jMjW4cMDZvmKHnPLwvnmjCndDdlau26D+bR3Typ+yMCf7ekzT/asMbcvWdiwLw05zsUQyBABMjEZCgauQKBgBBAxCQFNW8QUbO0wHQjURQARUxcmLoIABJog4E3ESNbhmTVrTfek75vNf9oWuNY9qSvMakiG5MGHnjADR48Fr50/fZpZdtsiI1mYlateCH5XGT3KPHD/HWbs2IpZ8dRqs237znCKer38Ql7r6Ogwu3r3hvaWLr7RnDm5u2oM+d3sC86rwhTnh1wkImbr9h3B9QcO/iX4/7VXXxZmmjT71PdFf2hTXxe7j618zkwYPy6Yv8z9+v92lVn17EtBJkYeSXx0Xjrn2X9zfjC/BTdcM2wOTcSdWyDQMgKImJahZiAIlI6AVxHzyOOrzLSpkwNxomLholkzzDVzL6sqPbmlKLecJCLlyMCxUACp0FFRIq/v7N1r7rlzcVCmEfHx3patgQCSR1w5yR3XfS52Xnt9k9FxZNzVz78SjNPVNSGYw5jKqGB+KnrefPv94PVTx1YCAXV6d1f4ul1Okuvj+Eg5zp6DLeKihFjpVi0TzhUBREyuwoWzEMgVAa8ixu3/ELEhjyU/+3Fi/0ytnhgVRJqVULsqJmyxIGKiXhHjRs4tJ7njute744qIsTMnroipxeeqK+aEWRe5V0TPop9eTyYmV28xnEXEsAYgAAFfBNoiYtyykV1mkonGiRjNjCgMOxMjv2tUxOhYWr5y/ahXxNilro6Ok6syMc2ImIULrhsmvGoJKF8LBLsQGCkBRMxICXI/BCAQR6BtIkYd0gzD0NA3VX0x9ukkFS/aIyP32lmOZjMxNpQoP2qJGBUvKn76+w+Ep4+0nISI4c1XdgKImLKvAOYPAX8E2i5idGqSfXnx5fVBH8vuvX3hEWt5XXpP7NJKWuWkKKy2H2+9s6XqiLU9rjQNu2Uqykn+FiqW80sAEZPf2OE5BLJOoC0iJqonxs6m2OUkFTH6/TP2iaCRlpOivtvG9iMpE6MnnzTTogJncGhoxOUkKYvR2Jv1tw7+1UsAEVMvKa6DAAQaJdAWESObtF2+Eaejjl+rIJDXpalVSk7yuPkn88wf3/8wPBmUVE6S00pa9rGPR0eVs1w/apWT7OPg0gsjTbeSTZITWJdfMquq5CW2623s1d4eu9dGjlj3fbGvqS/ta3RRcD0E0iSAiEmTJrYgAAGbQGoiBqx+CYzkm4f9eoZ1CCQTQMSwQiAAAV8EEDG+yI7AblSZi28PHgFQbm0rAURMW/EzOAQKTQARk9HwJpXbMuoybkEgkgAihoUBAQj4IoCI8UUWuxCAQEAAEcNCgAAEfBFAxPgii10IQAARwxqAAAS8EkDEeMWLcQhAgEwMawACEPBFABHjiyx2IQABMjGsAQhAwCsBRIxXvBiHAATIxLAGIAABXwQQMb7IYhcCECATwxqAAAS8EkDEeMWLcQhAgEwMawACEPBFABHjiyx2IQABMjGsAQhAwCsBRIxXvBiHAATIxLAGIAABXwQQMb7IYhcCECATwxqAAAS8EghFjNdRMA4BCEAAAhCAAAQ8EDhp3/5D33ZNHOfBNCYhAIGyE6CcVPYVwPwh4I8A5SR/bLEMAQjwbyexBiAAAY8EEDEe4WIaAhDgH4BkDUAAAv4IIGL8scUyBCBAJoY1AAEIeCSAiPEIF9MQgACZGNYABCDgjwAixh9bLEMAAmRiWAMQgIBHAogYj3AxDQEIkIlhDUAAAv4IIGL8scUyBCBAJoY1AAEIeCSAiPEIF9MQgACZGNYABCDgjwAixh9bLEMAAmRiWAMQgIBHAogYj3AxDQEIkIlhDUAAAv4IIGL8scUyBCBAJoY1AAEIeCSAiPEIF9MQgACZGNYABCDgj0BqImbFU6sDL5fdtij09rM9feaRx1eZKy+90MyfNzf8/eYPPjIvvrze3LX0JvPYyufMghuuMbMvOM+sXbfBfHnwUGDj8OEB8+BDT4SvpY3AHitt243YOz44ZB5+9Glz1RVzAgZleCSx98lDxv20d4+57+5bzSmdHWVAnYk58g9AZiIMOAGBQhJITcSIMHlj47tVG8QJsfKamTB+nLnrtkXhxhG3mSBiEDGImOJ9ziBiihdTZgSBrBBITcRI1uXJnjXm9iULzRlTuoP5SXbmh9PONB9u/djM+7urgt/rJnX21Cnm8ktmhdmW/fsPmtde3xTc1z2pyyxZtMAs/2WPOb27y2zbvjP4fWX0KPPA/XeYsWMrwXPN1gwcPRY8v/bqy8KMjyuU7MyOO1bUX+au7fOnTwszRJI9EmG2+U/bAl/l/u2f7DIrV70QxnXp4hvDzIrOue+L/vB18fWauZcFWRj9vfrvXq9jxGUPhLMykgHUVx3Mft1lGPea64NtMy7WMp5k0YT9533/ZAaHvhk2N3nNjrPN3h0zjoc7P/vNFBc3uUbG3rp9R3D5gYN/GbZm4uIkWUSx22jcs/Imb7cfiJh2R4DxIVBcAqmJGPcvaP3Ql5LRmhd/ZyaOPy0QGPL75St6zC0L55tTx1aqSkZRmZhKZVQgEuQhG/6YyqiqctNFs2aEdqX8pM+TRIxbunLDawst8TlKeIm40tKZlsdUYNmbfFfXhCq/dTN98+33zT13Ljb6upaT3LFVDKpAcH0VEXJk4FiYARNfREypiHI52M/Xb9hUVV7R1+76xc3msV89G7JWn5R9PSJGhIr6ID6tfv6VYL4iZBspJ7lju89tHklxkziqgIryq1acdK3WG3cV8sX96Kh/ZoiY+llxJQQg0BiB1ESMbs7a0yIb3brfvxGUkSRLoaWm/v4D5pk1a829y5YEntp9L7XKSUkbsNiyxcRb72yp2qDdHpukjdQVJVF/6WsfT1z5I8l+lMhRERNVlrOFX63N0Z7nmZO7Y/uKknqOouZv+yw8orJuKrTSEJA2D+mfsjNwUSJKxo4SgHbsavnlvnXscVzB3UzcG3trFudqRExxYslMIJA1AqmKGHsDlr/y5WGn4iUrI+Iirnm3ERHT85vfBvbdRmIVSCMRMUkNoO7m75Yv7AAnlXU6Ok6OzMTY5Rbbll4fJ2Lc+yTbcOqYyjCxoTbjhICKUbcB1hZSrRQxUbFIEnWaiRIf3TJcvSLGLrEpd1fENBL3rL3pW+0PIqbVxBkPAuUhkKqI0RLSz2/+kXn+xd+FfTCCUzaGmTPODfpj7NJSs5mYrIkYzcxELR3dFHVTlWyUZjLcclKjJ2hUvGivi53dKqOIsUWanIwbGvom7BGqJWKS4hQnYpLiXp6PkeSZImJYCRCAgC8CqYoYFStjKqPNzt49QclIm3BlAzk8cNT0fbEv6IeRjEJSiSeq3JHlcpI0KtvHyDVgUVmDWuUkt3wSF/yokkaZy0lRnOotMUrpTXu1NNtVTzkpLu6+3rB5tIuIyWPU8BkC+SCQuogRofGPH+0wEyeMi/zOGDnVoydSRiJiBo8PBv0ecY29Uc2kdrNpPc2l9gal34OzcMF1w/pM3LHiTmBJQ7HOeXBoKLGxV5toZRnF9ejENbLKaae4xt6kTV1fu/cffm56Vr8U29irc1D2+n1A06ZODk8n2eWoRvqRXGE2ksZeFdXyfz01FeeX2z/kxsnNxGhc7IblWj05+fhISN9LREz6TLEIAQicIJC6iNENbdFPr6/68raoUyXu5qb3dnZ0DPsiPHE2rhwQdcRaNzA9enzFpbPN5337wi+Vs8eym0btDIqIJLWtpSAVT24Zwe1JsY97230a0mMhbCTbYp+kEoFlH+O2x3aPRduLV+chZRN53PyTeeaP738YChCXg9tbE9X/YR+F1+Pfbn+P23vyg+7vmyMDR2uKBRFytdgrSx0z6bi3+0Z2edh9MbXKSUlxsr8OwP5SwqS48yHz3YdM18Rx4IAABCCQOoHURUzqHmIQAhDINQEyMbkOH85DINMEEDGZDg/OQSD/BBAx+Y8hM4BAVgkgYrIaGfyCQEEIIGIKEkimAYEMEkDEZDAouASBIhFAxBQpmswFAtkigIjJVjzwBgKFI4CIKVxImRAEMkMAEZOZUOAIBIpJABFTzLgyKwhkgQAiJgtRwAcIFJgAIqbAwWVqEGgzAURMmwPA8BAoOgFETNEjzPwg0D4CiJj2sWdkCJSCACKmFGFmkhBoCwFETFuwMygEykMAEVOeWDNTCLSaACKm1cQZDwIlI4CIKVnAmS4EWkgAEdNC2AwFgTISQMSUMerMGQKtIYCIaQ1nRoFAaQkgYkobeiYOAe8EQhHjfSQGgAAEIAABCEAAAikTOGnf/kPfdk0cl7JZzEEAAhAwhkwMqwACEPBFgHKSL7LYhQAEAgKIGBYCBCDgiwAixhdZ7EIAAogY1gAEIOCVACLGK16MQwACZGJYAxCAgC8CiBhfZLELAQiQiWENQAACXgkgYrzixTgEIEAmhjUAAQj4IoCI8UUWuxCAAJkY1gAEIOCVACLGK16MQwACZGJYAxCAgC8CiBhfZLELAQiQiWENQAACXgkgYrzixTgEIEAmhjUAAQj4IoCI8UUWuxCAAJkY1gAEIOCVACLGK16MQwACZGJYAxCAgC8CiBhfZLELAQiQiWENQAACXgmkJmKODw6Zhx99OnD2vrtvNad0doSOb/7gI/Piy+vNA/ffYcaOrSRO6PDhAbN8RY+5ZeF8c8aU7mHXrl23wXzauycYY/2GTeHP9nj1EFvx1OrgsmW3LTJi88uDh4Kf3Yf48+BDT5gFN1xjZl9wXj2mR3TNZ3v6zJM9a8ztSxZGzj/KeC0fbWaDxwer+DYz3ogmmNLNteac0jCYSYEAmZgUIGICAhCIJJC6iOn7ot9ce/VlZv68ud5FTKPCJW4N5F3E1FrbiJhahHjdJwFEjE+62IZAuQmkLmLGVEaZnb17zT13Lg4zCW4mRrM2Injkcf70aUEWRP+6Hjh6LPj90sU3Dst+xGVi+vsPmGfWrDVzZs80L637Q2h37pWXmEceX2WGhr4xldGjwmyQZmImjj/NvPb6puD67kldw7JI6tPp3V1m2/adkdfJ/FaueiFcSfY44u/nff9kBoe+MTpfV+SJL2r7rDN/YA4c/MosvvlH5pVX3zBnT50SCkJ77iLgxLfHVj5nblpwXfB/zRbZHDs6TjanT+oKxl+yaIFZ/sseY/M9dUwlyPxMGD/O7Nr9eSwHnZxkbpSn/M6ei8xjTGW0+bxvXzBXGdteB27cXd5u/HVd6NgyfztWAwPHWpYhK/fHxMhmj4gZGT/uhgAE4gmkLmKuumKO+XDrx+bIwLFQENgipvOUzqDsJGJHhItubPq82XKSiBjZXKdNnRzY1c22s6MjEC46roqCRstJglDLYXKvzm/7J7vM6udfCTdrW/RoqUo2XhVkwsK+3rYlYwgbETGy+X+8ozcscykn2bjVD7ElrBcuuC4seZ05uTv4+aJZMwLxoxxEpEgJLqqcZHNT//V+e+m4JRz3uYqxqLl2dU0I5maLMjsGri2dr14vAua9LVurYiDCL0ro8obPFgFETLbigTcQKBIBLyLG3UhtEbN7b9+w/hi7L+PUsZWmemJExNi9JO4mKEGzy0aNihi7J6ZWH4lrW3t4NHuiPTbKKc62+CzZpXuXLQnWnGRb5CFCUfpzZJyZM841th153e0/arScZPufJGLcN4J7nx2D731vvHlj47tVmS5bsNqCzc76yPzvXHqT6Vn9UpUAoicmPx9DiJj8xApPIZA3Al5EjGywdsbh6yMD4cb61jtbhjXj2ptZ2iJGN/yRiBi30ThqA3XLLFoKiSoBqYjRUo7dxBvHQhhK1kXKX/K4/JJZgai5a+lNwXO1uX//wWF8JRYqIOpp7I0TMcpQSzpuuUfuE//sfqiosp39JtGS04Y33wlLavbrUpqTOdrlMnldBZId37y9+criLyKmLJFmnhBoPQFvIkamoqWSiy+caV5dvzEoBRRNxIgQ0R4RLW3Um4mpJWLkdJYKA10a5/5wqln3+zfM1VdebP70jx+bpbf8OOwlkoyObxGjfth9QNoXU0vE2BmpWlmcWhkgREzrPyyaHRER0yw57oMABGoR8CpiNGMhf21LY62ImFaXk9LIxLhHrO1yUlQZpF4RU6ucJCJGxMIf3/sgiOO8v7vKSKZKshLS43LO2WcGZSU7MyTX+SonRS0mO9PU85vfBpfoUXW3nJR0zN7NWNljRZUGKSfVemtn53VETHZigScQKBoBryJGYOlf7Hpix2djb1RPTFoiplIZFfRzyMNuTHY3Xz1BU085SQSIfb/a1sZeETFxDcp2g6+9oU8/56yqBtp6Gnvd76WptyfGFRdyn30yLamhW9eGCht5bjcky3ObjTRQ2yLIbSIu2huzSPNBxBQpmswFAtki4F3EyHRlw/lzX394siTuiLWi0Q3KPYrsbmz2l93FNfbWI2JcoWB/IZ/2qEybOsVsfHtz4KJ9NDhqLtIXoidp3PJZVAbBPmJ9xaWzzdaPdoRfduee3nIZuM3CdmZGjlKLeDxr6uTgxJN+CaHNV8pT9YoYW5RqrOy+GC0fisCSsd0j1u4Ravsouthz+4rcI9j2EevZf3O+2dW7lyPW2fo8ifQGEZODIOEiBHJKIDURk9P543aKBJIaglMcBlM5I4CIyVnAcBcCOSKAiMlRsLLuKiIm6xFqj3+ImPZwZ1QIlIEAIqYMUW7RHBExLQKds2EQMTkLGO5CIEcEEDE5ChauQiCPBBAxeYwaPkMgHwQQMfmIE15CILcEEDG5DR2OQyDzBBAxmQ8RDkIg3wQQMfmOH95DIMsEEDFZjg6+QaAABBAxBQgiU4BARgkgYjIaGNyCQFEIIGKKEknmAYHsEUDEZC8meASBQhFAxBQqnEwGApkigIjJVDhwBgLFI4CIKV5MmREEskIAEZOVSOAHBApKABFT0MAyLQhkgAAiJgNBwAUIFJkAIqbI0WVuEGgvAURMe/kzOgQKTwARU/gQM0EItI1AKGLa5gEDQwACEIAABCAAgSYJnLRv/6FvuyaOa/J2boMABCAQT4BMDKsDAhDwRYByki+y2IUABAICiBgWAgQg4IsAIsYXWexCAAKIGNYABCDglQAixitejEMAAmRiWAMQgIAvAogYX2SxCwEIkIlhDUAAAl4JIGK84sU4BCBAJoY1AAEI+CKAiPFFFrsQgACZGNYABCDglQAixitejEMAAmRiWAMQgIAvAogYX2SxCwEIkIlhDUAAAl4JIGK84sU4BCBAJoY1AAEI+CKAiPFFFrsQgACZGNYABCDglQAixitejEMAAmRiWAMQgIAvAogYX2SxCwEIkIlhDUAAAl4JpCZijg8OmYcffTpw9r67bzWndHaEjm/+4CPz4svrzQP332HGjq0kTujw4QGzfEWPuWXhfHPGlO5h165dt8F82rsnGGP9hk3hz/Z49RBb8dTq4LJlty0yYvPLg4eCnxt56JyvumKOmX3BeY3c2pZr3XnaDHw6pJz6vug3ldGj6loHzfpjr49G10SzY9r3fbanzzzZs8bcvmRh5Pp1x2gkBs2u0zTmNRIbZGJGQo97IQCBJAKpixjZqK69+jIzf95c7yImrU2q2c0h7yKmVW8N2difWbPW3LtsSU0RO1KfEDEjJZj+/YiY9JliEQIQOEEgdREzpjLK7Ozda+65c3H4l6ibibH/Mhcnzp8+LciCSBbmwYeeMANHjwXOLV1847AMR1wmpr//QLBRzpk907y07g/B/WJ37pWXmEceX2WGhr6pygLoX8ATx59mXnt9U3B996SuYVkk+b2Mqdd0dJwczK2ra0KQeRLRJg8Vbu4cbEEndg4PHDW7evcGc5T5TT/nrCo7ti35WQSA7f9ZUyebAwe/Cv10x1OW7gK356Dz7PnNb4PLhL3wGFMZbT7v2xfMSee54c13zLbtO6vmKE/qHVdiv3LVC6E7ysP2x87OiN3HVj5nJowfZzb/aVtkTJLGFrtbt+8Ixjtw8C/D/HbXnhu7qLG3f7Krag7uuhR2yuisM38QxCcuE+PGs1IZZeQ9o1lA25b93oiKn7xur0F37WTlQw4Rk5VI4AcEikcgdREjpZUPt35sjgwcCzdaW8R0ntIZfPDqB7duKvq82XKSiBjZ7KdNnRxsCLpZdHZ0BOULHffsqVOCLFG95SRXgEWjypBnAAAgAElEQVTNRctJurleNGtGMIb7XDaiN99+PxR47txVMOk1p46tBKJO7emcZIOXctrg8cHg9QU3XBOIPbWnc4wSMnbZzGYgP9viUzdTFR32vMVuI+O6mRjh8N6WrWFZyX6utk/v7oos77lzdJ/rZq9CQ/xe/fwrVcLTFg12TJS3PbYbf7dcJJx0rauoEBFji3iNg8Zv0U+vD+KlAk+Fp21Lsoz6us7FzhjWWjtRpdh2fXwhYtpFnnEhUHwCXkTMmZO7qzZfeyPYvbdvWH+MvTHIRtJMT4yIGLsXIWpDtzeBZkWMvSTcclJUKcOe+1vvbKnZw2Oz+PrIgHlj47tV2SF7o5OeILeXJ6l0k9QT4/ZmuJu3LS4/3tHb0Li2T64Akud2rC6/ZFaVQHLfgvUINe2ZEiGgQlKFnmvPXXtR4szteVKOCxdcN8zXpJ6YqPWR1BPj+l6r7NloP06rPt4QMa0izTgQKB8BLyJG/8rUv4BlM9bG3qiN3N4g0xYx9gbUjIhxyw92KcEVMVEbkr2BJ4kYu4ygpZwosWBvhFIO0jKGvXTjmmcbFTG2gLJjZJeY6hnXZvD14YHIxleZv5T2aokYGc8uUbklQFcoxImYKN6aiVHB45at7LlqqdJt4k3KJEatjyhhYpeOZMyoTIztS9RcyMSU78OcGUOgjAS8iRiBqVmDiy+caV5dvzEoH+RNxERtFm5fjAqlZkSMbkC6GdsZpXpEjPhX76mqNEVMI+OmLWLc8oz0O2lJppaISeIdJ2LqyeKoaBiJiFHxoiLUzVpFxU9EbNTaQcSU8eOcOUOgfAS8ihj9S1Y2fdloRMS0upw00kxMUjnjmrmXBf09Okaj5aSoDa/RcpJdOqm1fNMSMSKuGhk3zXJS1ByTSnZ2JkbKnG6psp5yUlyPUVSWp9ly0pKf/bhqLck8k8pJtdYOIqbWu4HXIQCBIhDwKmLs1L/+demzsTeqJ2akIiapsVNPKDXS2JvUr6Gb1uDQUNAYWm9jrzb+Cu+kI8ZpiRjXr1rjNtPYG5f9iOqJcfub4hhrr5ZbLnJ522PbjcEiDKIaiXU84SCiNq6x1xUldmOvihgVTHYZM6qc5Npy1w4ipggfz8wBAhCoRcC7iNGy0p/7+sPTKHFHrNVZ92SMPQl7k7a/7C6usbceEeOeZHK/kM899mr3xWgJIO6YuHvE2s1g2P0dkrGSkyvSP+SeSNIj4nLEemhoKCwh2Ud2hVPcMXF5zZ3nmhd/F6DVI9Z2iUj8iuuJkQ2y0XHd74lJOmJtN9dGLeCksWuVk5J4x/XjuD0q7vcg2evjiktnm60f7ajriLXEqrPjZNPZ2VF1ok5iLY+bfzLP/PH9D8OTfG78JKupx9ej1k6tN3+rXqext1WkGQcC5SOQmogpH7r2zLjWCZX2eMWoEIgngIhhdUAAAr4IIGJ8kU3BbtQx51pZihSGxQQEUiWAiEkVJ8YgAAGLACIm48shqZSVcddxDwIBAUQMCwECEPBFABHjiyx2IQABRAxrAAIQ8EoAEeMVL8YhAAEyMawBCEDAFwFEjC+y2IUABMjEsAYgAAGvBBAxXvFiHAIQIBPDGoAABHwRQMT4IotdCECATAxrAAIQ8EoAEeMVL8YhAAEyMawBCEDAFwFEjC+y2IUABMjEsAYgAAGvBBAxXvFiHAIQIBPDGoAABHwRQMT4IotdCECATAxrAAIQ8EoAEeMVL8YhAAEyMawBCEDAF4FQxPgaALsQgAAEIAABCEDAF4GT9u0/9G3XxHG+7GMXAhAoMQEyMSUOPlOHgGcClJM8A8Y8BMpOABFT9hXA/CHgjwAixh9bLEMAAvwr1qwBCEDAIwFEjEe4mIYABIwhE8MqgAAEfBFAxPgii10IQCAggIhhIUAAAr4IIGJ8kcUuBCCAiGENQAACXgkgYrzixTgEIEAmhjUAAQj4IoCI8UUWuxCAAJkY1gAEIOCVACLGK16MQwACZGJYAxCAgC8CiBhfZLELAQiQiWENQAACXgkgYrzixTgEIEAmhjUAAQj4IoCI8UUWuxCAAJkY1gAEIOCVACLGK16MQwACZGJYAxCAgC8CqYmY44ND5uFHnw78vO/uW80pnR2hz5s/+Mi8+PJ688D9d5ixYyuJczl8eMAsX9Fjblk435wxpXvYtWvXbTCf9u4Jxli/YVP4sz1ePbBWPLU6uGzZbYuM2Pzy4KHg57Qftr+N+ljLl2ZtN3tfLX94HQJRBBAxrAsIQMAXgdRFTN8X/ebaqy8z8+fN9S5i0hIFZRMxvhYTdiGAiGENQAACrSSQuogZUxlldvbuNffcuTjMpLiZGM3aiOCRx/nTpwVZEMnCPPjQE2bg6LHg90sX32hmX3BeFY+4TEx//wHzzJq1Zs7smealdX8I7c698hLzyOOrzNDQN6YyelSYDdJMzMTxp5nXXt8UXN89qWtYFkl9WnDDNaEvtg9x42pWx816CIuVq14IxuvoOLmKk8tFrrEFoc1H7j19UpcZHPpmmM8KTOa4bfvO4Kk9d5ehzt8GrezdmGisWrlIGSvfBMjE5Dt+eA+BLBNIXcRcdcUc8+HWj82RgWPh5mqLmM5TOoOyk4gd2eh149bnzZaTREyIWJk2dXJg97M9fcHzzo6OQLjouGdPnRJkieotJ9UjYmScCePHBfOVhz0/WzBs/2SXWf38K6FwES76vKtrQtV9YkfuffPt94PrTx1bCQTeRbNmBP7r/HRcNyvliqd6y3DCRWM3eHwwGFMFnMZKGWZ5YeNbdgggYrITCzyBQNEIeBExZ07urtpwbRGze2/fsP4Y2ZCf7Fljbl+yMNism+mJERGjNqSXJmrDtctGaYoYe1xZIPZ833pnS9C3c9cvbjaP/epZ4woA2w93cdlcvj4yMIxbUm9LM6+5GbOoMpv4JBmve5ctqdnfVLQ3C/NpjgAipjlu3AUBCNQm4EXESAnIzjLYG7Bu6nbzr519SVvESGZIS1K+RIy7qdvi4+MdvYGIWbJogVn+y54wq6GhiRIKdhlIS05qx+YmjN/Y+G5kOcktPdnlvSiBo5mdRT+9PuRl+2EvJbs0VXuJcUXZCSBiyr4CmD8E/BHwJmLEZS1NXHzhTPPq+o1BWQcR811vjZaM9GSUigbtzbGzS42KGF0ydp+Nig83Bip4tFSl9yZlifwtSSwXjQAipmgRZT4QyA4BryJGN0fJJkhjrYiYVpeTWpGJSaOctHDBdcPKaCMpJ7lLzO7t2b//YNXRdLsPxu6t4Sh2dt6oefYEEZPn6OE7BLJNwKuIkanraRzNAvhs7I3qiRmpiIlqPJZm10plVFDGcRuK3V6ceht7tXFXm2hVdAwODQWNvdr4qz01jTb2RvXp6HftvLdla+R3+ERlaBA22X5DZ9E7REwWo4JPECgGAe8iRstKf+7rDzfKuCPWdhlDjga73zej5ZeoL7uLa+ytR8S4J5ncL+TT1/WY9t9efpH5cNsnoYgR8SSnhHbt/jyYgn0MuZEj1u7xa+lPkS8J1DKP3eciovCsqZPNgYNfRfbEuIzt49zqkzYb61F3e0kre3vu8nrUMfRivBWYhS8CiBhfZLELAQikJmLKitIu+UR9w3BZuTBvCCgBRAxrAQIQ8EUAETNCsoiYEQLk9sITQMQUPsRMEAJtI4CIGSF6RMwIAXJ74QkgYgofYiYIgbYRQMS0DT0DQ6AcBBAx5Ygzs4RAOwggYtpBnTEhUCICiJgSBZupQqDFBBAxLQbOcBAoGwFETNkiznwh0DoCiJjWsWYkCJSSACKmlGFn0hBoCQFETEswMwgEyksAEVPe2DNzCPgmgIjxTRj7ECg5AURMyRcA04eARwKIGI9wMQ0BCBiDiGEVQAACvgggYnyRxS4EIBAQQMSwECAAAV8EEDG+yGIXAhBAxLAGIAABrwQQMV7xYhwCECATwxqAAAR8EQhFjK8BsAsBCEAAAhCAAAR8EThp3/5D33ZNHOfLPnYhAIESEyATU+LgM3UIeCZAOckzYMxDoOwEEDFlXwHMHwL+CCBi/LHFMgQgwOkk1gAEIOCRACLGI1xMQwACHLFmDUAAAv4IIGL8scUyBCBAJoY1AAEIeCSAiPEIF9MQgACZGNYABCDgjwAixh9bLEMAAmRiWAMQgIBHAogYj3AxDQEIkIlhDUAAAv4IIGL8scUyBCBAJoY1AAEIeCSAiPEIF9MQgACZGNYABCDgjwAixh9bLEMAAmRiWAMQgIBHAogYj3AxDQEIkIlhDUAAAv4IIGL8scUyBCBAJoY1AAEIeCSQmog5PjhkHn70adP3RX+ku0sX32hmX3Cex6lUm167boN57fVNwS9HOvZne/rMkz1rzO1LFpozpnSnOofDhwfMgw89YRbccE1L+YxkEj55rHhqdeDastsWNeRiIxzl2uUreswtC+c3Hc/NH3xkVq56IfDx2qsvM/PnzW3I3zJdzL+dVKZoM1cItJZA6iLmqivmtH0zVkGVli8+N+3Whjv7ozUrYhqZWRoiRvycOP40xEsd4BExdUDiEghAoCkCLRcxURkb+y9ZO4PS0XGyuefOxcFfy+7mpnbOnjqlaiPRv8gHjh4LgHRP6jL33X2rGTw+GGQ89Pf2mGJ7TGW0eW/L1uAeHVOJqoiZMH6c2bX78+DX50+fVpUtsP8yd7M/7pyvuHS22frRjiCzc+rYSlUmRnzp6Ogwu3r3hr5qJkn8eGbNWtM96ftm85+2Vc3vlM6O4HmSH7Xm6a6guFjYok78l6zGnNkzzat/2GiGhr4JmP/85h+Z/7Xi18Ec7DiKzS8PHgqG2rZ9Z/B/O1PmxjnOB9dXOxNz5uTuwKdpU6eYjW9vDi6tjB5lHrj/juBnex3o2I1wk7Vy4OBXVXZ37+0LMzP2eGPHVoLrkuaRNHZT7+qM3YSIyVhAcAcCBSLQUhGjm/mYyqhQAMiH+5tvvx8Ih6+PDJgXX14fbDby4S8f7vpcNgn7Nd3Q7122JLjWfriZGN3gLpo1IxA87nPZOP/c1x+O68ZXxnrk8VVGRIwIInlI6UznYfspvriZG7F/ZOBY1b2yCcqco0TMzt69oZASPiKuhMnXhwcCP6ZNnRzwc+dRjx9J87Tn7dqyn4sfWl5T/yuVUVVicXBoKFKA6mauIlLZLvrp9UEGzxYxcu2nvXsCuyLSXJ9sf10RI0JFfXLj5WZimuFmZ2Lk/tXPvxLOV305vbsriFMSy6h17at02a7PLURMu8gzLgSKTyB1ERPVE6N/BbtiQ/DaG74rYuI2Kdns9C/6qN4JV8S4m6HYtTeWNS/+Lhgqrg8jqpyk99/7Dz83PatfMm7pSv1buOC6Yf0X9qYXJWJsX+yx5ffuBqeb/pKf/TgQVnF+yNwaKdUkCQY3E+P29LjjiK03Nr4biJH1GzZVCROZk329/hzFTa+NKuNEiRi7z8heA5KV056Yrq4JTXGrVU5y4+JmDGUucWXPpLWdx48kREweo4bPEMgHgdRFTL19KPIhr+UELTfohqJCyG3ItTcO+XnmjHMj+2/czSFq87YzOfWIGCnj2Fkf3cgXLvh7I/drmcoOu5Sc5l55SVACiro3rpzUjIiRTd8uk7h+NCpi3BKYHYt6RIwtNFwRI+UkWzDaAqPnN78NXBduknWS8pT7iGqkbVbEqIiMi18ctygRo1kl9Vnir3GJatx2S59RMcvHx0iyl4iYIkSROUAgmwRaLmJUvGivSn//gciTP3qd3U+hm6H0W/z62ZfMXUtvGlZKivoLtxUiJu50UVTZK0kEuL7Wm4lJ2ix16TWSibGXqxsLOyPkZpKisiXNiphGyiojFTFJp8OiuNkixhYvKvbsjFLc6bNGTlRl8+OjPq8QMfVx4ioIQKBxAi0VMVGnQpJO/rjNu3q/NGweGTgaW/5pRzkpqlwg4Yias89yUpwfKi7sLE8jy8WOxbk/nDqsJ8YWAW6WotlyUiNHz5sVMZr9a5SbPceo8k8j5aSksRuJUVavRcRkNTL4BYH8E2i5iLE3Jt14tAnU7YmJEjiaFUj67pdmGnuTNnf9SzupodZu7HTFV6ONvbYv9WZitIG0lh/1ipikZteRZmLk+3vsE1d2xsVt7NWmZumnSspcNCti5OSb25gbFT+Xmyti7AZkbV7WE2xJLGXNJ8Us/x8xfGNvEWLIHCCQVQKpi5i4L7uzP9D1S8KkVCSnUuTUkZ4csntlBJorVpIaThVyVMOk23/gHrGuJWLco83uEWv7CK3Ysu1HHbHe2bsn6JORhy3smi0naY9Jkh+u7aiGZ3uhxsVipD0xW7fvCIY5cPAvwf+TjljXWg/qbyMiRk46qV2NUyPcNKulfT9ufGVtyGu2AHPt23NOGjurHxyN+EUmphFaXAsBCDRCIDUR08igI7lWRMyHWz9u+BtdRzJm2vcmHQ9Pe6wke7L5vvx/Npgb/n5ucIS5FY9awqkVPjBGawkgYlrLm9EgUCYCuRMxSaeSshi4qBJIsw22ac9PBOH+/Qdb+q2ziJi0o5h9e4iY7McIDyGQVwK5ETFuX0qegLvfyOqWovI0l5H6iogZKcH83Y+IyV/M8BgCeSGQGxGTF6D4CQEIVBNAxLAiIAABXwQQMb7IYhcCEAgIIGJYCBCAgC8CiBhfZLELAQggYlgDEICAVwKIGK94MQ4BCJCJYQ1AAAK+CCBifJHFLgQgQCaGNQABCHglgIjxihfjEIAAmRjWAAQg4IsAIsYXWexCAAJkYlgDEICAVwKIGK94MQ4BCJCJYQ1AAAK+CCBifJHFLgQgQCaGNQABCHglgIjxihfjEIAAmRjWAAQg4ItAKGJ8DYBdCEAAAhCAAAQg4IvASfv2H/q2a+I4X/axCwEIlJgAmZgSB5+pQ8AzAcpJngFjHgJlJ4CIKfsKYP4Q8EcAEeOPLZYhAAH+7STWAAQg4JEAIsYjXExDAAL8A5CsAQhAwB8BRIw/tliGAATIxLAGIAABjwQQMR7hYhoCECATwxqAAAT8EUDE+GOLZQhAgEwMawACEPBIABHjES6mIQABMjGsAQhAwB8BRIw/tliGAATIxLAGIAABjwQQMR7hYhoCECATwxqAAAT8EUDE+GOLZQhAgEwMawACEPBIABHjES6mIQABMjGsAQhAwB8BRIw/tliGAATIxLAGIAABjwRSFzHHB4fMw48+bfq+6A/dvvbqy8z8eXM9TqNx0+rnVVfMMbMvOK9xAw3ecfjwgFm+osfcsnC+OWNKd4N3V1+++YOPzBsb3zX33X2rOaWzY5gteX3lqheC3/tmv+Kp1cE4y25bNKI5NXvz2nUbzKe9eyJZ2GuxMnqUmTH9bPP5F/uCa9dv2BR7X7O+cF80Af7tJFYGBCDgi0CqIuazPX3mkcdXmSsvvTAULbJ5P/jQE+b07q62bXRR8IosYkRYTBx/WkuEY5ZFjKzHZ9asNfcuW2LGjq1ULYMk8ePrzVZWu4iYskaeeUPAP4HURIyKgrOnThm2ecpm8mTPGnP7koVBFkLFztDQN8EMOzpONvfcuTh8TTae7knfN5v/tC14vXtSV2zWwbXlZh5ks3rt9U1V43R1TajKFkVlK3QDnDN7pnlp3R+C+8+fPi0UYmL38MBRs6t3rxk4eswsXXyjmX7OWVV29XoVcnKdPORayf64v7fty3VRvn99ZCDMskh24YH77wg3aDcLpq93ntIZ6ZeMIfNc9/s3Ar927f68ao66/JIYi4g5MnDMDMh/zvzUvgjbqFhHMRQuUfPW7JXNTNbN6ZO6zODQN8PWh52NEj8kxvLQrI2biXGv1xhFzcF3dsv/2761IyBiWsub0SBQJgKpiRhXqMRB1A1x0U+vDzZy3Xjleknz9/cfCLI506ZODgSDbloXzZoxTBzpawtuuKZKFOhz969t2ahefHl9sPHrxh5XTlI/J4wfF/glDymTjamMCvwS22++/X4ovnQe+rr73C0nub67ItD2VbII9vPde/sSy0l2JqaWX1HZMzt2tRjLWDt794YchMt7W7YGjL8+PBDEMi7WIiRshirc7PKQPW95XbJ6uhbcGLmlNTcTY68HW8Rs/2RXuC6Etb2WTx1bCcaMW2Nl+rBodq6ImGbJcR8EIFCLQGoixt10aw1sv25vLiJi7KyNXBdXsnA3WHfzjepB0Q3+mrmXBaIkScS4fthzfOudLVU9FVHzdzdD2x+Z85cHD1WV2HTTvXPpTaZn9UsmKqslc6zVE2OLmFp+iT13nkkixo2rG5taYjZOSIgAiesb0vl873vjq8RGlOix/atHxNz1i5vNY796dtg60PgsXHBdlYhpZF1z7QkCiBhWAgQg4ItA20SMW0rRklEjIkY3MS0X2eUYtwRiA5RyQD0ixu2nsDfoj3f0VomYqB4Le1OWv+htESMb87btO4fFVUpAdy29yTy28rnwr3/3okZETC2/aomYJMZRAjNKxMTF2i3p1IqZjOc28SaxqEfELFm0wCz/ZU9YCrNZ63qyy1tuyc/XG7NIdhExRYomc4FAtgikJmJq/QWu07Y3NO0taDYTY6N0T+Sc+8OpiRmGWo29UU2haYsY8T/qVE9ShknuabWIUc5Rp56SMjFaipFemahYR4mYpKxQlCBLS8RouSjp7dnKU1/Z+pgYmTeImJHx424IQCCeQGoiJqmx196UxRX3eHAaIkanqLb0L+y4zakeEeO7nFTraHAWyklRS8eOV89vfhtcomLMFnrShJwUa1fE1CPetKdJTxslnTKqJxOj5aQ41rXmH3XEnQ+cagKIGFYEBCDgi0BqIkYcTDpiXamMChpk3SZK/eu2mXJSreZYu8lUNj37ej1JVKuxVxuMXZHmbp61GmjjGnvthmXbZlKzaZQ4sBdIo429jfTEuBySMjHipy063FhHfVdLPTFTwZFmY+/q518Z1qQt41x+yayqnpgkse7rTZp3u4iYvEcQ/yGQXQKpihiZptv/IL9zj6Ta/SAiXi6+cKZ58ZX1wSYij3obe+Va92is27Pg9p7YR2e11yGqz0EzCnI6SY4ey8M9Yu1mUtwjznG+KA+3B8Q9Sm73Ysj47tHswaGhcOONEzHy+yS/6ikDJjGu1dibFGu3r0jnkBQze31J/9BZUyebAwe/ijyCX08mRr8w0GVtr9laayy7b+9seIaIyUYc8AICRSSQuogpCqR6NveizJV5QMAnAUSMT7rYhkC5CSBiYuKPiCn3G4PZp0cAEZMeSyxBAALVBBAxiBjeExDwSgAR4xUvxiFQagKImFKHn8lDwD8BRIx/xowAgbISQMSUNfLMGwItIoCIaRFohoFACQkgYkoYdKYMgVYSQMS0kjZjQaBcBBAx5Yo3s4VAywkgYlqOnAEhUBoCiJjShJqJQqA9BBAx7eHOqBAoAwFETBmizBwh0EYCiJg2wmdoCBScACKm4AFmehBoNwFETLsjwPgQKC4BRExxY8vMIJAJAoiYTIQBJyBQSAKImEKGlUlBIDsEEDHZiQWeQKBoBBAxRYso84FAxgggYjIWENyBQIEIhCKmQHNiKhCAAAQgAAEIlITASfv2H/q2a+K4kkyXaUIAAq0kQCamlbQZCwLlIkA5qVzxZrYQaDkBREzLkTMgBEpDABFTmlAzUQi0hwAipj3cGRUCZSCAiClDlJkjBNpIABHTRvgMDYGCE0DEFDzATA8C7SaAiGl3BBgfAsUlgIgpbmyZGQQyQQARk4kw4AQECkkAEVPIsDIpCGSHACImO7HAEwgUjQAipmgRZT4QyBgBREzGAoI7ECgQAURMgYLJVCCQRQKImCxGBZ8gUAwCiJhixJFZQCCzBBAxmQ0NjkEg9wQQMbkPIROAQLYJIGKyHR+8g0CeCSBi8hw9fIdADgggYnIQJFyEQE4JIGJyGjjchkBeCCBi8hIp/IRA/gikJmKODw6Zhx99OiBw3923mlM6O0Iamz/4yLz48nrzwP13mLFjK4mUDh8eMMtX9JhbFs43Z0zpHjHRz/b0mSd71pjblyxMxZ7t0Np1G8yXBw+ZZbctMuL3gw89YRbccI2ZfcF5I/a7FQY0ZlddMSc3PreCC2OkSwARky5PrEEAAt8RSF3E9H3Rb669+jIzf97cUomYPC4qREweo5Y/nxEx+YsZHkMgLwRSFzFjKqPMzt695p47F4eZDzcTo5unCB55nD99WlU2Y+DoseD3SxffGJkhWPHUarNt+86Qsd6vv7BfP+vMH5gDB78KMjEb3nwnuEQyJ/qwsymuX92TusKskmR01v3+jeC2Xbs/N+NPO9UcPPR18FyuW7JogVn+y54wEyPXP/L4KjM09E1wjSvsZNzXXt8UvNbRcXLISzNRc2bPNK/+YWNwv9j/+c0/Mv9rxa+NsLGvl/uF78pVL4RzsrkJi46ODrOrd29wr3Kdfs5ZQeZMY6D+2ewqo0fVlT3Ly2LHz/YQQMS0hzujQqAMBFIXMVKa+HDrx+bIwLFQANgipvOUzmDzFLEjYkKFgz6vVU6STda1LRu4btz26xJAGUtEjIiqr48MVJW17EyEbupnT50SZpHElooeFSVXXnph+HpcOenMyd1VpSW31CT3fdq7J5KPjCdlqUplVPD64PHB4Png0FAodGy/XIHols/kWltUytjvbdkaiBONhZaTXL/c52V4QzDH9AkgYtJnikUIQOAEAS8iRjfxi2bNCDZ8e6PdvbdvWH+MvfGeOrbSUE+MLRBc8SATdG3bfSvy2jNr1pp7ly0x4tcbG9+t6uexBZXYcntr6hUx9mKLE2kiNiaOP81cfsmsYb01tmjRzIv4etcvbjaP/epZ4/a02H6599o8uromBCIvTsTwJoFAGgQQMWlQxAYEIBBFwIuIkcZWES6rn39lWAbkrXe2VGUhxCl7Y69XxNjlGLEhmZhTx1SGCQ1XNNibur3Zu/YUlpZuGhExMn/bnl3ucstMdlCkpBMnYkTgaJ+RsBURoyUsLRPZtnTMRkSMCsKokq6P6RoAAALhSURBVBVvHwg0SwAR0yw57oMABGoR8CZiZGAt7Vx84Uzz6vqNQQljpCJGxYH2a8g4ml2pR8RoVui/L/u5+fWzL9WdhYg65VTP6SS7X0VEyrk/nJp4WirqlJNmaeJETNKJqEZEjC4WuzeIvphabyFer0UAEVOLEK9DAALNEvAqYnRDlmyGNKiKiBlJOSnqNE0j5SQ5sq3XzzjvbLOzd09QSpJj37WOgTcrYjQw2l/iNgC7gWtExGg5ye7jce01I2LURh6PjTf7RuA+fwQQMf7YYhkCZSfgVcQIXM1E6F/0I2nsVRGjm7adMdDGXrsZVca3G3v1e2f0BI59+shtMFbf9fttvj480HRPjOu33VwrAqqWEIvLxEjj7/ZPdoVlO5mfO1YjIiap4bjW9/uU/Y3E/OMJIGJYHRCAgC8C3kWMlpX+3NcfHteNO2Ktk1SR4R5LltfdnpKbfzLP/PH9D8PTTjqeHsG+4tLZZutHO6q+7E6FlWvf7gkRO3YpJSoTo750dnSYu5beZB5b+Vx4xNo99px0DFzGUhHWSCZGv1TQ7eex55UkYkT06L3i35Kf/bjq2LV7lNvXIsRusQkgYoodX2YHgXYSSE3EtHMSjA0BCGSXACImu7HBMwjknQAiJu8RxH8IZJwAIibjAcI9COSYACImx8HDdQjkgQAiJg9RwkcI5JMAIiafccNrCOSGACImN6HCUQjkjgAiJnchw2EI5IsAIiZf8cJbCOSJACImT9HCVwjkkAAiJodBw2UI5IQAIiYngcJNCOSVACImr5HDbwhknwAiJvsxwkMI5JoAIibX4cN5CGSaACIm0+HBOQjknwAiJv8xZAYQyCoBRExWI4NfECgIAURMQQLJNCCQQQKImAwGBZcgUCQCiJgiRZO5QCBbBBAx2YoH3kCgcAQQMYULKROCQGYIIGIyEwocgUAxCSBiihlXZgWBLBAIRUwWnMEHCEAAAhCAAAQg0AiB/w92kGVZ6OrQhgAAAABJRU5ErkJggg==;clipPath=inset(0% 0% 0% 50%);" parent="ac8dYfmG1soSG2riglzt-164" vertex="1">
          <mxGeometry width="311" height="379.42" as="geometry" />
        </mxCell>
        <mxCell id="ac8dYfmG1soSG2riglzt-146" value="" style="shape=image;verticalLabelPosition=bottom;labelBackgroundColor=default;verticalAlign=top;aspect=fixed;imageAspect=0;image=data:image/png,iVBORw0KGgoAAAANSUhEUgAABNMAAAF8CAYAAADl4/3UAAAAAXNSR0IArs4c6QAAIABJREFUeF7t3VuPbPlZ3/E14IiDg43MBiYDjjFnDAaCLIElIiyUXEUCKZF4A7nORV4JF1zzBpC4CBJXRBYoSIBkEU4xRASMcYYBz8SYkwFxmOg/zZ+99ppVXdW9q6q/PfszV/ZMd/XTv0/963nq6VVVL7362utvLv6RgAQkIAEJSEACEpCABCQgAQlIQAISkIAEjibw0lim/cTHnxz9Ql9w/QT+yw+/sbC5fu6n/EQ2p6T0MF/D5mFyP/ZTuRxL6OH+O5uHy/7YT2ZzLKGH++9sHi77Yz+ZzbGEHu6/s3m47G/7yVyaLqMqNm0by7Suj8PDJpxAtzRNp2nDpeliUOu6sGHTTqBbnX7DpptAszJnpuliDui6TBvLtLCRB7YuDhs23QSalTkzTReDWteFDZt2At3q9Bs23QSalTkzTRdzQNfFMq1t81Z1Hti6SGzYdBNoVubMNF30mq4LGzbtBLrV6Tdsugk0K3Nmmi7mgK6LZVrbxjIt7qPpdIHYNG24NF0Mal0XNmzaCXSr02/YdBNoVubMNF3MAV0Xy7S2jWVa3EfT6QKxadpwaboY1LoubNi0E+hWp9+w6SbQrMyZabqYA7oulmltG8u0uI+m0wVi07Th0nQxqHVd2LBpJ9CtTr9h002gWZkz03QxB3RdLNPaNpZpcR9NpwvEpmnDpeliUOu6sGHTTqBbnX7DpptAszJnpuliDui6WKa1bSzT4j6aTheITdOGS9PFoNZ1YcOmnUC3Ov2GTTeBZmXOTNPFHNB1sUxr2zzYMu2//odl+Zr3Pg3nz7+wLD/1S8vye39yPLB/88Fl+dGP3Hzdf/vEsvzPTx3/nu1X7N3GN33tsvzH71+WX/uDZfm537j7bV7iOx6q6cx8vuRf3M/oXFmcw/pctWxv56FsLvX7vFNul0tXkg2bbgLdypwbNt0EupU5N02bist8HvqJ31uWn/6Vy2R1jZ9xzsorNtvfabszuKTZ+Nn/+YeX5ZtfXpZL/5y72A2bl1597fU3f+LjT+7yfb72Sglc8/CMhdWPfXRZ3vPlb//l/vbvTluOXWLBMut695cuyy988sVepv2n71+Wj3zT/p3vVKNz3XUvYX2u2q55bs5V84twO1y6ymzYdBPoVubcsOkm0K3MuWnaVFyusei6xs84p3LFZv07zcXW9ve85KLLMu2c96oX5LaueXjmHXR9Jdr6Kqj/88fL8pMfvwl+vYleL3H2FizbK6k++2fL8uM/e3M7//67l+WHPrQsf/N3N///3V+yLH/yZ8vylf+00Pul312W7/uGZxd8f/7Xy/KeL1uW9e3MJdP63136LnJNm/G7HLKYGX7xFy3L2mj978f372WzdvyHf3z7snL9QPnrn16WD371sowr4sZVh+Of7VWI25+5rufSHuvbv7bNNX+3x/yzuHT12LDpJtCtzLlh002gW5lz07SpuGwXXdv/P58Pjeef45VT3/sNNxcafO4vl+VdX3TznHE+N/3Gr3l6EcLe89hPv7EsX/++ZRnPobYXJWwvMrn2RQvl5zV7F7rM54zr55vr55Hb55nT9TaD9fPKsZ/40y8syweeuDKt+QgSrepaD2y3Xf01FlX/+snTBdj2ks4R3VzAjQew9YJlLlzWL0kc/24+oG2XL+Og/e8/WpZRz/hnb5m2XrbNl5I+xF8YrmUz75q3LQy3Rttc522sF6V7juPr5l8UtlfBDZu//4ebW9pbpj35ipvF6GhI638u+ReKQ8f22jbRh49cWVxyJP9cEBs23QS6lTk3bLoJdCtzbpo2FZf7LtO2qY7l17u++OnzkvUy59BzoPk8adzW3qu19i48uIZmxWb9u84MD70d1N6Va+uF5CGDuYzbe1uj+fMf4rnlbc85vczzGqfgnj/jWodnu+U/9P5oe1+3vuTy9z/77DJt/kVgLs/m0m5e3TQXMCOe+RLO7dVt45COB7T1yzzHAfyqr7j5njf+4vnfp+0+PNeymbXd5dLW+QC1zX0sO8cD0Li6byy+xnJsLiTn8mzk/Yu/syw/+O03f92ZtzH/+3wgHHWtF6ff98FnX8d+6n3qPtkf+55r2xyrx3+/SYBL957Ahk03gW5lzg2bbgLdypybpk3F5b7LtPn8ZP3H/fGcZ7zf9lyMzSXM/Bnbxc1Yvo3nluMVUONqt/WiaO/Kq2tJVmzWv+/eWw8der4/3kN9fv38mq3B+nnouOLwY99587xyb8FpmXate9474Odc6/Cc+v5Xh654GlGPw/Grn9pfsGwp5mZ//Pux1Pmrv3n6IQenLNPWB/IP37i5jf/3F0+vnrsG/bVstsu09WXK263/eMAZBh/91pvvWn8IxDqz8d/GA9T6ttaLzl/79LJ87weevY3tInS7TPvYh5794IpZ90NcFn1tm2vc394JP4NLV5ENm24C3cqcGzbdBLqVOTdNm4rLfZdp28XY+nnQ3m3OizLmB9utv2a8Imt8GN96aeMigbffb/f2AsPh5z95sw/YvjJt3MJ0Ovby3R/5yNsN7nJhybVO2Tg3rky7Vtr3+DnXemA79jLPb/1XN8uub/za/ZfyzcMxD898AJtXK+396usrpO66TFs/oD3U66evZTOz23uZ594ybV5VNq/+m5+oul6mff6vbv7ico1l2kNcEn1tm3sc7RfyW7h02dmw6SbQrcy5YdNNoFuZc9O0eQiXuYxZXxBxbJk2v2c+d5zvmXbXZdp2Wbb+uV/57rd/aqRl2u332/mcdFxEMS/K2FumzSvNtsuybb6Wac3HiUdX1TUf2I59AMF60zzf9HH7ctDtVWXbl3luAbYPiOP2TrkybdzOoQ9BuBbyNW3G73ToAwjGf9vmOB+AHvJlntdy2Ps517Z5yN/1Mf1sLl0tNmy6CXQrc27YdBPoVubcNG0ewmU+f5lvO3PorX3G4ms+p9k+X32eZZqXed7vvnjbBw6OW5zveb69sGP9045dmbZ9med8X/Zxm17meT+3F/K7rvnAdtsb/R17w8B59dH2/csG2t5lnnMrPa90O+XKtHGIxj/zgW/9Wu1rfornvCNe02b+zL3Xp68PxqEPdphf8xAfQPCi2LyQD1B3/KUf4szcscQX9svZdOnZsOkm0K3MuWHTTaBZ2UOdmds+2G5cZLH3RvYjwfmc5nmWaVsJH0Bw+n3z2AcIHHLbvm/d/P/bK9PWy7NtVZZppzu98F/5EA9s28Ox9ykd26/ZHoQBN9+va7ukWy/mTrkybf2mhetl2vp2H+JQPYTN+P33lp57RtvXse8ttdaOey/HnA+E47/98u8uy4fff/P6971P8xxO25956BNeLn2wH8rm0r/XY799Ll1BNmy6CXQrc27YdBPoVubcNG0eymW+1dC8aGL7Xsvb//7bry7LeOXTfJXU8yzTPv3Gsnz9+24+8fPYz32I94Ce95SHsjl2T93uA7bPNbcLtfXbCx27Mm0sUtfPK0f+4+XAr7zPlWnHXPz3VQLVw1NAOvVDEy5V6zvd5tAn3awXpZfK9nlvt2KzvpJw24TXDeYhrt573ozv8/2Xdtlbzt+nzhfxey5tsx641vf37ZB8rT+MbM/mGNq+7ZVnPwyncj+4hM3ee3Cuh9b1wLv+2vFJ0OsPr5mPY+uvn7k9dI8edWw/PezcppewOVbjba8iOPUPWNsnMcd+5mP875e0uc3gWo9ht529ute5bY7dn/dmg/HYMN5k/sd/9iatQ1fRzCyv5Xqq3ah3/POTHz/1O45/3bldjv9EX3FqAmxOTer6XzdsfADB9XM/+Sc6PIej2nsycHKwZ/jCd7rNocHiMSx+KjbrJ+zrK/+2C4THkOkZjsxyaRfLtPsrXdpmvUxbP+HfXs16rScso57tJ3ndP73LfuclbPbOyvoxf21025P2+hN6y7T9++ax5cNl79HXufVLnJtZ+W3LtPE1e8vlc//W9bN32+97bpu73p9P+UCvbf3X6k2n3E8uZX9ul1N+F19zWgJsTsvpIb7KMu0hUr/Dz3R43h7WehHhkts73Jnu8aWnvOT3Hjd78W+pnJvte9wdek+79TLttg/WWA/w48nup15flu/5wNPBfbuku9ZQfyropV3WC4K//8dled+/vKls+8TmkMv42u0b2873dZxvjjs/HXf9O6+XEHsvl77t5dTzv61farD92PBrfCLupW0OZbBd2q+fsNx2FtZLuJHXvGJq+5YD60+SGv/t1/5gWX7so8syX04yHMf3/9Znbj6per5/53zj28/95bK895/er/MXPrks831B5+1eYxF+CZu9T/Dey3v7ZtDjSo7brkxbX9G8/XTv7Vs2jOy3V1Jtl6vrszvvK3/0uZtF6DDYno31Y+SYD37/s8vyHV93ueXGJWyOPZ6ecsXfXi/YO1u//ull+eBX35yH266e3lpNi8L5OJTXJW0OGczesr5frs/EeBP1mfOTr7h5zBkvL5uPQ/MqqfXtz5c1bb/mlPMwvufQY+/6PrJ9Y/dLP66d22avjx56S5nXPn9zFfL8Z+95xN6y6thLEfecP/+FZfna9y7LXc7JsTlm2zNPvRr12OPK+O/ndjnlZ/qa0xJgc1pOD/FVlmkPkfodfqbDc4ewrvylbK4c+B1+XMVmDtZj2BlP/Pbe32EM19vlyfpXve3NUL/wt8vy5V/y9Ini3puBXmMRcyrNpV22T8TXdc0nkoc+xGMarAfm9RPNQ3+V3ruCc++J1Daj7Ruwbv/7tJ3//pwD857XpW22TzTmk7fx78eyapyN8YT+tlxmBntvSjvzOrQwG7/z+BnzE6ZOXaat8//VTy3LR7/15iyv/7n0VSiXsllfzTGWTuPDgkZGf/qFZfnAkxuL+e/H7zveK/P7Pnh4mTa+Zizatk7ze7fLg5nhPHuHzu+8Txx7E+pxe9tF6fwZlzK6lM1tj6mnLNOO9YJjbxx96HFyu3QpnI9DWV3S5jaD7VVSe+8pNJf3c5G2fZy/7Y23DxnM2zj2gWHj6+aZWn+S4m/+4c178t72h6NTe/2xrzu3zaH7896Hnd1nmba3nB6/4229fv1Hnruck0OPg/NnzT9oXGI2OLfLsfuB/356AmxOz+raX2mZdu3E7/jzHJ47BnbFL2dzxbDv+KMqNuuXEoxfYSwNxhPSj33o5n/PqybG0DWv4pgLt/UnGI3Bd/zzkW96+lftecXIGLoPPVG860sf7hjznb/80i5zCB2FjauIfu43nl5pNjL+mU88fbK9vYLpXV/89HtO+fCO8TPmE6r1967/ov2Hb9xcebB+crJesP7ULy3Lj3xkWdYL1fn926sXLv0E59I287443zj4z77w9D4//vf4Z+SwXuAcOgtf+e79pc2hj0vfXoX1+39ycz9495e+3Xx7Zdp6ibl9yeC83ds++v3Oh2TnGy5ls76vfv6vbh5fxjkZ99vxv8fjyrwPj6tjxlUz2ys25v+fy8z1E/ntwmEu0+ZtbX/VeVuHPtlrXi24fYI8z8Z4Q+r1Y+S4Em7e796Jy7TtUne9JDn2Mub1cnu4HnuJ/PZlcdsreEe/eqjzceiMXercrB/7x/+eH7Y169iekW3W4+u298v1smb9GLh+TNv2ju15GLc7l8njNsbVusf6z94nJV7j5YznttlmvO3NI5v1lcfbN6w/9Fg0Hze22a9z2/4xdH1V333OyXycnHPM7FfrPzZ5mec5Ouvjuo1zn5nH9du3q7VMa/u45Dbs44Gti1Ox2Xvj7vWnEM2Xaa5fZrb9S/VIeQx045/1y6vG/z/0fkC3vXTuIdUu7TKfEK6frK+fJI4B+Ls/8PY3md8+iV8/2bntpeTHnoDe9lKRuYAZi9W5RPrpX3lqOgfyU65COYfppW3mk515td/4/dcvwXvPlz3NYT4JPHQW1l87Mhv/7BmuHcf/nn/Zv8sybe9lhtu8L33156Vs1vffvavR1lepba+Gue0KpbEkHmdte99d/wFgZrj3yV7bfOcZ3F4Vt11mbv/7bY+R5zgz4zYuZXNbfae8+f32yrLt49j2Dy3zNtcL7FHDoT8s7D22Hbpy8NLn41BWl7S57XH50DLttk+9395Xx1Ww80rReZ4O3d/Xy6/1z96bGfb+ALC+P1365Z3T6tw2e8vj9X189pT5x5K7LtP2/jC5PTPzD2OHPOYHBRw7JyOj9eJv+4fV0fMs0871CP54bufcZ+bx/Ob9Si3T4kYOTxeIDZtjCayXafNlHeMqinEl06c+uyzrq0EOvexj/Iz1ywX2PmVv/ZK59WLmRb0ybQ7M64/VHv9uvkxv+4Rxu4g59RMmjy3T9pad2yczL9oybTzRmFeWjauZxlJtXEX4Xe8/bZk2zsL4Z30/3y7T5vuizSvPtsuzcy/Txs+/5NUcl+o166s3xuPS+GdcZbN+n7T5eLW90nO7TBsLk/G16ytpDi0ctsugeaXZfDJ6aFm5fb+2F32ZNr323sdxZnjoDyvHlmnbZcOhK9NOWTZf+nzUlmmHXuY5HyMOXdG67hdzmbY2PuX+vne16dpo72evF6bXeh/icz+m7c0651ym7f2x5tzLtHlOtos/y7Rjk/aL8d/PfWZejNSu81tapl0n53v/FIfn3tFd/BvZXDzie/+Ais36Cch8Ged8ac76pZuHXua5DmDe1hx2ty/z3A7f6/9+ySf6d0G6tMu5XuZ56hv8rpcC2/dkW19teMrLPPe+f7z86p12Zdr6fj/uO/P+vF4qrt+/a16Vsb6fbV86s35/ofXLm+ZSdf73+XLc+y7TLv3JkA+xFFi/19DeJ3iujcbS5tDLPNcvCd3mfmjps3357VyWHXt/wrkc2C4Gti/zPOWl8Hd5/Nr72ks/pu39zPs8JmyXYceWadurbKb7vHJp78qYhzofD3FuDhms34NsvvzztkXP9r48X8o3HwMv/TLPkd32fQYv9ZLotdO5z03pZZ7Hrkw7dk5u+6Tl7ftHntvq3C7P+/jq+58mwKZ7b7BM69q8VZnD0wViw+ZYAoeewMwFwnzyd9sHEGxfmrZ+4/T1BxDMZdpt76NzrN5L//dLn5lzfADB9r1W5hVTp77MbWR4nw8geJGWaesnitv7/m0fQDBz3X6i5sh8/QEEh14m+rwv8zz08rrH/OEQ68Xx+onZ+iztLdkOnYe9DzWYy7T5eLd9nNm+B9r25b2HFjjbZdrey0jnzzr3k855u5d+TLvPMu3Qm6WP29qer0PvT3foKsHblmkPdT4ecpm2129HPXsvX14vWQ71qts+ZGV7Xz70csG7fADB+r3A/sfvLMu/+/DNlfPzStRLzQTnPjd3+QCC8QeaeeXltl/P33e7LL7LBxAcW6YdOyfzE8TXV9hvr4xb25/zasJzu1zq/vMi3i6brrplWtfGMo1NPIFueZWms12mHfv/I9HtULgezLbvbbJ+o/Dxfhzr98kZQ/lvfmZZfuBbluXQG35fW/DSLsc+Un7+vtv3E9p74jP/3fZqt+1LzcZtHnuPurXp9v2DtlctbO8j97kK5T6ul7Y59tKn267emL/PoSej6/cU3Pvkx+2b6v/8/zr9Awi2S5jtE6FzPpF5iKXA3tWco47177n3Ur5Dy7T1S5/my6rnMm1c2Xbsvby2S4bbFnnH3v9pnLX/+7mbTyZ9kZZpI++9J/+3LXi2L1lbX+05cvzl312WD7//5mW8e5/qOu+7D3E+HuLcnPK+dbOuQ2+3cNsH3awf90f/fuV9N7e29+b2f/S5Zfmqr7ix2Xt/ukP957YP0HlsfyCYv+On31iWr3/fsoyF/PqxeXu118hyXpG3l9lt73c6/6B57H0I17PBXfrIKVemre9/5+xBl54D7jOb+J6bBNh07wmWaV2b3OE59FewU5rusfcWijPslld6YDv0V7lT3kyWzeO49932EsZLPVE8dzKlM3Pu3+2x395jstm+5Hn9qY2VlzSf8/7wmGzO+Xs/htti01V6zDbX+iPKQ+k9ZpuHyuwaP7fssv5DzHaBuH5+esrznpHlbVdR3/Y+lNdw2PsZZZuHyqTycy3TKhIH6igdnkPLtFH6Of8yEif55/JKNoeWaaPYU5adjyXzU+ss2Zxa87GvO/SX8If6pLRj9RoG7pPQw33PYzozh14i9U7tQ4/J5uHuwQ/zk9k8TO6n/NTHbGOZdoqwrzl3AuUzs16mrefe7VW4py7T1tk9hvNWtjn3/fCx3Z5lWlysdHiOXfa8fS+Nz/3lsrz3y28C/swby/L+J8sy3gPgF39nWX7w25++XGD8BWD7RsQ/9xvPvnSquDAo2dz2sd3j0v/tpz0Oq/FpeOPJ5/ikoG975cZm/O/v/sCzLwvcu3JtvbwrPoEt2ZzzIWZvifCYrsR5p7qc0/ihbuux2WxfLljsEeeyfGw25/q9H8PtsOkqPWabx/Dk/nnkH7PN8/ze9e8tuxx6e45DL5e+y0vd5/u4Dp/5wSE1q4LNXqbr5yDHXm49Mj32AV9b5+1znOLzT8u02mnZ1FM4PLOkvWXa+G/bZcvHvnNZvvnlp7/IuDJqLmnmG2rOr5mH5NhtjFurLW1KNofek+PQG+BPnfUnDh5adG7d966Cq139VrKJP8RctTwuV437Tj+MzZ3iuuoXs7lq3Hf6YWzuFNdVv5jNVeO+0w9jc6e4rvbFZZf1h2WMiwTGc8L1h0nMiwRO+UCvccGGl3ne/W619/zvlA/cms8R1x/8sf7p84KP7SJtfs1tH0xVeP5pmXb3+9JVv6P0wHZombb9C9r3ffBmmba+g2+XZfPTauYbo69ve7459Hyj2/WbFpfeG6pkc+wNbucSc35C1/oy6EOLzPHg9Wt/8Owbdc9P0ZtNbCxJt58ydNUDcuCHlWwKeVRq4FKReHsdbNh0E+hW5tyw6SbQrcy5adqUXdYXB4z0xiufxlVkH/vQzf8eV5d9x9c9+yEd65Rv+xAkV6addn8cGY4POzn0ab8z4/kcc+9DTtY/aW36M594+qEge59u//OfXJYf/cjTJWrp+adl2mn3nwf7qtID212XaevF16FP0hkLs//+m8vyb1cv+xxhjwOz95Hj93kt/KXwSjZ3XabtfSreXLitF52/9Zll+aEPPX3Z56H3KhoZW3Re6p72zrnd0pl556R6nt+EzXlyvMStsLlEque5TTbnyfESt8LmEqme5zbZnCfHc99K2WW9ePnzv765aOO3X12Wb/yamwXLp15flu/5wNuXaYc+bd2VaXe/9xz7NO69ZdveBRd7L82dy7JR1d5LbcvPPy3T7n5fuup3lB7Y7voyz9uWaeuN8vwo63mV2m0fOV64nHPeAUo2d32Z523LtPH7jY8MH8vM+ZHs25fjjo8d3/5j0XnVh4ZH+cNKZ+ZRBnjBotlcMNznvGk2zxngBb+dzQXDfc6bZvOcAV7w29lcMNznuOmyy3qZNv/Q//f/sCzv+uJl+dRnl+Xzf7UsH/mmp8u0265E++lf8TLP57ibvO19z7Yvw1w/x1wv08bPXButTZ9nmfbQzz8t057n3nSF7y09sB1aps0HrLk82/u6vTex326Z5+Gbb3C4fpnnFaK+848o2ewt09ZvFHnbA92ezfovOev3qpuLzvXLPO8c3BW+oWRzhV/30fwILl0qNmy6CXQrc27YdBPoVubcNG3KLnuLl/kKpvEcZ72o2S5mxoUY4yKB93z5suw9H/Iyz/vdHw+9L/ehl3l+1/tvPvxuGsznmuPr1y/znPuE9fPTX/3Usnz0W599mef9qj7/d1mmnT/Ts95i6YFte6ns+hddL1xOXaaN759LoO2HCxz6WaVPLizZ7L0p5PRZX823t3TbW6atrw7cbvyPvQHlWQ/APW+sZHPPX+Ed+W1cuqxs2HQT6Fbm3LDpJtCtzLlp2pRdDi1u5vPH8XLPedXTXKbtvV2QZdr97nt7n+Q5b+m2DwgYXzOfh8737d5WMJ9n3ucDCAqf5G6Zdr/71NW+q/TAdmjBtX3p5V2WadsHx3Ww259Xek+uUWfJ5tAy7dAi7LaXeY6X4K4XnXsLzO3PKy05azZXe7B4BD+odGYeQVxXLZHNVeO+0w9jc6e4rvrFbK4a951+GJs7xXXVL2Zz1bhP/mFll+3zxVP//1zm/OZnluUHvuXpe0B7z7ST7xb//IV7C7X1c/OZ6Xz7pvGWQHuvbhpLzrEE++XfXZYPv//mbYXm+6RtF2rb5/7F55+WaXe/L131O8oPbFcNIvjD2ARR/qkkNk0bLk0XC+iuCxs27QS61ek3bLoJNCtzZpouj2UOOPT+3d1Uz1OZZdp5crzYrXhgu1i0z33DbJ47wovdAJuLRftcN8zlueK76DezuWi8z3XjbJ4rvot+M5uLxvtcN87mueK76DezuWi8975xLveO7uLf+BhsLNM+/uTidwQ/4O4JPIbDc/ff6p3xHWy6jmyaNlyaLqMqNmy6CXQrc27YdBPoVubcNG24NF0ey4xmmWaZljxBHtiSLG8VxYZNN4FmZc5M08XjWdeFDZt2At3q9Bs23QSalTkzTRdzQNdl2rz06muvv/kTlmlJKQ9sSRbLtC4Lm7CNx7MuDhs23QS6lTk3bLoJdCtzbpo2XJoulmldF8u0to2lQNxH0+kCsWnacGm6GNS6LmzYtBPoVqffsOkm0KzMmWm6mAO6LpZpbRvLtLiPptMFYtO04dJ0Mah1XdiwaSfQrU6/YdNNoFmZM9N0MQd0XSzT2jaWaXEfTacLxKZpw6XpYlDrurBh006gW51+w6abQLMyZ6bpYg7oulimtW0s0+I+mk4XiE3ThkvTxaDWdWHDpp1Atzr9hk03gWZlzkzTxRzQdXlmmdYuU3USkIAEJCABCUhAAhKQgAQkIAEJSEACEmgk8Naneb7y8pNGNap4JoE/+uM3FjbNOwWbpsuoik3ThkvTxZnpurBh006gW51+w6abQLMyZ6bpYg7oukwby7SwkQe2Lg4bNt0EmpU5M00Xg1rXhQ2bdgLd6vQbNt2DDJmjAAAgAElEQVQEmpU5M00Xc0DXxTKtbfNWdR7Yukhs2HQTaFbmzDRd9JquCxs27QS61ek3bLoJNCtzZpou5oCui2Va28YyLe6j6XSB2DRtuDRdDGpdFzZs2gl0q9Nv2HQTaFbmzDRdzAFdF8u0to1lWtxH0+kCsWnacGm6GNS6LmzYtBPoVqffsOkm0KzMmWm6mAO6LpZpbRvLtLiPptMFYtO04dJ0Mah1XdiwaSfQrU6/YdNNoFmZM9N0MQd0XSzT2jaWaXEfTacLxKZpw6XpYlDrurBh006gW51+w6abQLMyZ6bpYg7oulimtW0s0+I+mk4XiE3ThkvTxaDWdWHDpp1Atzr9hk03gWZlzkzTxRzQdbFMa9tYpsV9NJ0uEJumDZemi0Gt68KGTTuBbnX6DZtuAs3KnJmmizmg62KZ1raxTIv7aDpdIDZNGy5NF4Na14UNm3YC3er0GzbdBJqVOTNNF3NA18UyrW1jmRb30XS6QGyaNlyaLga1rgsbNu0EutXpN2y6CTQrc2aaLuaArotlWtvGMi3uo+l0gdg0bbg0XQxqXRc2bNoJdKvTb9h0E2hW5sw0XcwBXRfLtLaNZVrcR9PpArFp2nBpuhjUui5s2LQT6Fan37DpJtCszJlpupgDui6WaW0by7S4j6bTBWLTtOHSdDGodV3YsGkn0K1Ov2HTTaBZmTPTdDEHdF0s09o2lmlxH02nC8SmacOl6WJQ67qwYdNOoFudfsOmm0CzMmem6WIO6LpYprVtLNPiPppOF4hN04ZL08Wg1nVhw6adQLc6/YZNN4FmZc5M08Uc0HWxTGvbWKbFfTSdLhCbpg2XpotBrevChk07gW51+g2bbgLNypyZpos5oOtimda2sUyL+2g6XSA2TRsuTReDWteFDZt2At3q9Bs23QSalTkzTRdzQNfFMq1tY5kW99F0ukBsmjZcmi4Gta4LGzbtBLrV6Tdsugk0K3Nmmi7mgK6LZVrbxjIt7qPpdIHYNG24NF0Mal0XNmzaCXSr02/YdBNoVubMNF3MAV0Xy7S2jWVa3EfT6QKxadpwaboY1LoubNi0E+hWp9+w6SbQrMyZabqYA7oulmltG8u0uI+m0wVi07Th0nQxqHVd2LBpJ9CtTr9h002gWZkz03QxB3RdLNPaNpZpcR9NpwvEpmnDpeliUOu6sGHTTqBbnX7DpptAszJnpuliDui6WKa1bSzT4j6aTheITdOGS9PFoNZ1YcOmnUC3Ov2GTTeBZmXOTNPFHNB1sUxr21imxX00nS4Qm6YNl6aLQa3rwoZNO4FudfoNm24CzcqcmaaLOaDrYpnWtrFMi/toOl0gNk0bLk0Xg1rXhQ2bdgLd6vQbNt0EmpU5M00Xc0DXxTKtbWOZFvfRdLpAbJo2XJouBrWuCxs27QS61ek3bLoJNCtzZpou5oCui2Va28YyLe6j6XSB2DRtuDRdDGpdFzZs2gl0q9Nv2HQTaFbmzDRdzAFdF8u0to1lWtxH0+kCsWnacGm6GNS6LmzYtBPoVqffsOkm0KzMmWm6mAO6LpZpbRvLtLiPptMFYtO04dJ0Mah1XdiwaSfQrU6/YdNNoFmZM9N0MQd0XSzT2jaWaXEfTacLxKZpw6XpYlDrurBh006gW51+w6abQLMyZ6bpYg7oulimtW0s0+I+mk4XiE3ThkvTxaDWdWHDpp1Atzr9hk03gWZlzkzTxRzQdbFMa9tYpsV9NJ0uEJumDZemi0Gt68KGTTuBbnX6DZtuAs3KnJmmizmg62KZ1raxTIv7aDpdIDZNGy5NF4Na14UNm3YC3er0GzbdBJqVOTNNF3NA18UyrW1jmRb30XS6QGyaNlyaLga1rgsbNu0EutXpN2y6CTQrc2aaLuaArotlWtvGMi3uo+l0gdg0bbg0XQxqXRc2bNoJdKvTb9h0E2hW5sw0XcwBXRfLtLaNZVrcR9PpArFp2nBpuhjUui5s2LQT6Fan37DpJtCszJlpupgDui6WaW0by7S4j6bTBWLTtOHSdDGodV3YsGkn0K1Ov2HTTaBZmTPTdDEHdF0s09o2lmlxH02nC8SmacOl6WJQ67qwYdNOoFudfsOmm0CzMmem6WIO6LpYprVtLNPiPppOF4hN04ZL08Wg1nVhw6adQLc6/YZNN4FmZc5M08Uc0HWxTGvbWKbFfTSdLhCbpg2XpotBrevChk07gW51+g2bbgLNypyZpos5oOvyzDKtXabqJCABCUhAAhKQgAQkIAEJSEACEpCABCTQSOClV197/c1XXn7SqEYVzyTgrwTdOwQbNt0EmpU5M00Xf/XsurBh006gW51+w6abQLMyZ6bpYg7oukwby7SwkQe2Lg4bNt0EmpU5M00Xg1rXhQ2bdgLd6vQbNt0EmpU5M00Xc0DXxTKtbfNWdR7Yukhs2HQTaFbmzDRd9JquCxs27QS61ek3bLoJNCtzZpou5oCui2Va28YyLe6j6XSB2DRtuDRdDGpdFzZs2gl0q9Nv2HQTaFbmzDRdzAFdF8u0to1lWtxH0+kCsWnacGm6GNS6LmzYtBPoVqffsOkm0KzMmWm6mAO6LpZpbRvLtLiPptMFYtO04dJ0Mah1XdiwaSfQrU6/YdNNoFmZM9N0MQd0XSzT2jaWaXEfTacLxKZpw6XpYlDrurBh006gW51+w6abQLMyZ6bpYg7oulimtW0s0+I+mk4XiE3ThkvTxaDWdWHDpp1Atzr9hk03gWZlzkzTxRzQdbFMa9tYpsV9NJ0uEJumDZemi0Gt68KGTTuBbnX6DZtuAs3KnJmmizmg62KZ1raxTIv7aDpdIDZNGy5NF4Na14UNm3YC3er0GzbdBJqVOTNNF3NA18UyrW1jmRb30XS6QGyaNlyaLga1rgsbNu0EutXpN2y6CTQrc2aaLuaArotlWtvGMi3uo+l0gdg0bbg0XQxqXRc2bNoJdKvTb9h0E2hW5sw0XcwBXRfLtLaNZVrcR9PpArFp2nBpuhjUui5s2LQT6Fan37DpJtCszJlpupgDui6WaW0by7S4j6bTBWLTtOHSdDGodV3YsGkn0K1Ov2HTTaBZmTPTdDEHdF0s09o2lmlxH02nC8SmacOl6WJQ67qwYdNOoFudfsOmm0CzMmem6WIO6LpYprVtLNPiPppOF4hN04ZL08Wg1nVhw6adQLc6/YZNN4FmZc5M08Uc0HWxTGvbWKbFfTSdLhCbpg2XpotBrevChk07gW51+g2bbgLNypyZpos5oOtimda2sUyL+2g6XSA2TRsuTReDWteFDZt2At3q9Bs23QSalTkzTRdzQNfFMq1tY5kW99F0ukBsmjZcmi4Gta4LGzbtBLrV6Tdsugk0K3Nmmi7mgK6LZVrbxjIt7qPpdIHYNG24NF0Mal0XNmzaCXSr02/YdBNoVubMNF3MAV0Xy7S2jWVa3EfT6QKxadpwaboY1LoubNi0E+hWp9+w6SbQrMyZabqYA7oulmltG8u0uI+m0wVi07Th0nQxqHVd2LBpJ9CtTr9h002gWZkz03QxB3RdLNPaNpZpcR9NpwvEpmnDpeliUOu6sGHTTqBbnX7DpptAszJnpuliDui6WKa1bSzT4j6aTheITdOGS9PFoNZ1YcOmnUC3Ov2GTTeBZmXOTNPFHNB1sUxr21imxX00nS4Qm6YNl6aLQa3rwoZNO4FudfoNm24CzcqcmaaLOaDrYpnWtrFMi/toOl0gNk0bLk0Xg1rXhQ2bdgLd6vQbNt0EmpU5M00Xc0DXxTKtbWOZFvfRdLpAbJo2XJouBrWuCxs27QS61ek3bLoJNCtzZpou5oCui2Va28YyLe6j6XSB2DRtuDRdDGpdFzZs2gl0q9Nv2HQTaFbmzDRdzAFdF8u0to1lWtxH0+kCsWnacGm6GNS6LmzYtBPoVqffsOkm0KzMmWm6mAO6LpZpbRvLtLiPptMFYtO04dJ0Mah1XdiwaSfQrU6/YdNNoFmZM9N0MQd0XSzT2jaWaXEfTacLxKZpw6XpYlDrurBh006gW51+w6abQLMyZ6bpYg7oulimtW0s0+I+mk4XiE3ThkvTxaDWdWHDpp1Atzr9hk03gWZlzkzTxRzQdbFMa9tYpsV9NJ0uEJumDZemi0Gt68KGTTuBbnX6DZtuAs3KnJmmizmg62KZ1raxTIv7aDpdIDZNGy5NF4Na14UNm3YC3er0GzbdBJqVOTNNF3NA18UyrW1jmRb30XS6QGyaNlyaLga1rgsbNu0EutXpN2y6CTQrc2aaLuaArotlWtvGMi3uo+l0gdg0bbg0XQxqXRc2bNoJdKvTb9h0E2hW5sw0XcwBXRfLtLaNZVrcR9PpArFp2nBpuhjUui5s2LQT6Fan37DpJtCszJlpupgDui6WaW0by7S4j6bTBWLTtOHSdDGodV3YsGkn0K1Ov2HTTaBZmTPTdDEHdF0s09o2lmlxH02nC8SmacOl6WJQ67qwYdNOoFudfsOmm0CzMmem6WIO6LpYprVtLNPiPppOF4hN04ZL08Wg1nVhw6adQLc6/YZNN4FmZc5M08Uc0HWxTGvbWKbFfTSdLhCbpg2XpotBrevChk07gW51+g2bbgLNypyZpos5oOvyzDKtXabqJCABCUhAAhKQgAQkIAEJSEACEpCABCTQSOClV197/c1XXn7SqEYVzyTgrwTdOwQbNt0EmpU5M00Xf/XsurBh006gW51+w6abQLMyZ6bpYg7oukwby7SwkQe2Lg4bNt0EmpU5M00Xg1rXhQ2bdgLd6vQbNt0EmpU5M00Xc0DXxTKtbfNWdR7Yukhs2HQTaFbmzDRd9JquCxs27QS61ek3bLoJNCtzZpou5oCui2Va28YyLe6j6XSB2DRtuDRdDGpdFzZs2gl0q9Nv2HQTaFbmzDRdzAFdF8u0to1lWtxH0+kCsWnacGm6GNS6LmzYtBPoVqffsOkm0KzMmWm6mAO6LpZpbRvLtLiPptMFYtO04dJ0Mah1XdiwaSfQrU6/YdNNoFmZM9N0MQd0XSzT2jaWaXEfTacLxKZpw6XpYlDrurBh006gW51+w6abQLMyZ6bpYg7oulimtW0s0+I+mk4XiE3ThkvTxaDWdWHDpp1Atzr9hk03gWZlzkzTxRzQdbFMa9tYpsV9NJ0uEJumDZemi0Gt68KGTTuBbnX6DZtuAs3KnJmmizmg62KZ1raxTIv7aDpdIDZNGy5NF4Na14UNm3YC3er0GzbdBJqVOTNNF3NA18UyrW1jmRb30XS6QGyaNlyaLga1rgsbNu0EutXpN2y6CTQrc2aaLuaArotlWtvGMi3uo+l0gdg0bbg0XQxqXRc2bNoJdKvTb9h0E2hW5sw0XcwBXRfLtLaNZVrcR9PpArFp2nBpuhjUui5s2LQT6Fan37DpJtCszJlpupgDui6WaW0by7S4j6bTBWLTtOHSdDGodV3YsGkn0K1Ov2HTTaBZmTPTdDEHdF0s09o2lmlxH02nC8SmacOl6WJQ67qwYdNOoFudfsOmm0CzMmem6WIO6LpYprVtLNPiPppOF4hN04ZL08Wg1nVhw6adQLc6/YZNN4FmZc5M08Uc0HWxTGvbWKbFfTSdLhCbpg2XpotBrevChk07gW51+g2bbgLNypyZpos5oOtimda2sUyL+2g6XSA2TRsuTReDWteFDZt2At3q9Bs23QSalTkzTRdzQNfFMq1tY5kW99F0ukBsmjZcmi4Gta4LGzbtBLrV6Tdsugk0K3Nmmi7mgK6LZVrbxjIt7qPpdIHYNG24NF0Mal0XNmzaCXSr02/YdBNoVubMNF3MAV0Xy7S2jWVa3EfT6QKxadpwaboY1LoubNi0E+hWp9+w6SbQrMyZabqYA7oulmltG8u0uI+m0wVi07Th0nQxqHVd2LBpJ9CtTr9h002gWZkz03QxB3RdLNPaNpZpcR9NpwvEpmnDpeliUOu6sGHTTqBbnX7DpptAszJnpuliDui6WKa1bSzT4j6aTheITdOGS9PFoNZ1YcOmnUC3Ov2GTTeBZmXOTNPFHNB1sUxr21imxX00nS4Qm6YNl6aLQa3rwoZNO4FudfoNm24CzcqcmaaLOaDrYpnWtrFMi/toOl0gNk0bLk0Xg1rXhQ2bdgLd6vQbNt0EmpU5M00Xc0DXxTKtbWOZFvfRdLpAbJo2XJouBrWuCxs27QS61ek3bLoJNCtzZpou5oCui2Va28YyLe6j6XSB2DRtuDRdDGpdFzZs2gl0q9Nv2HQTaFbmzDRdzAFdF8u0to1lWtxH0+kCsWnacGm6GNS6LmzYtBPoVqffsOkm0KzMmWm6mAO6LpZpbRvLtLiPptMFYtO04dJ0Mah1XdiwaSfQrU6/YdNNoFmZM9N0MQd0XSzT2jaWaXEfTacLxKZpw6XpYlDrurBh006gW51+w6abQLMyZ6bpYg7oulimtW0s0+I+mk4XiE3ThkvTxaDWdWHDpp1Atzr9hk03gWZlzkzTxRzQdbFMa9tYpsV9NJ0uEJumDZemi0Gt68KGTTuBbnX6DZtuAs3KnJmmizmg62KZ1raxTIv7aDpdIDZNGy5NF4Na14UNm3YC3er0GzbdBJqVOTNNF3NA18UyrW1jmRb30XS6QGyaNlyaLga1rgsbNu0EutXpN2y6CTQrc2aaLuaArotlWtvGMi3uo+l0gdg0bbg0XQxqXRc2bNoJdKvTb9h0E2hW5sw0XcwBXRfLtLaNZVrcR9PpArFp2nBpuhjUui5s2LQT6Fan37DpJtCszJlpupgDui6WaW0by7S4j6bTBWLTtOHSdDGodV3YsGkn0K1Ov2HTTaBZmTPTdDEHdF0s09o2lmlxH02nC8SmacOl6WJQ67qwYdNOoFudfsOmm0CzMmem6WIO6LpYprVtLNPiPppOF4hN04ZL08Wg1nVhw6adQLc6/YZNN4FmZc5M08Uc0HV5ZpnWLlN1EpCABCQgAQlIQAISkIAEJCABCUhAAhJoJPDSq6+9/uYrLz9pVKOKZxLwV4LuHYINm24CzcqcmaaLv3p2XdiwaSfQrU6/YdNNoFmZM9N0MQd0XaaNZVrYyANbF4cNm24CzcqcmaaLQa3rwoZNO4FudfoNm24CzcqcmaaLOaDrYpnWtnmrOg9sXSQ2bLoJNCtzZpouek3XhQ2bdgLd6vQbNt0EmpU5M00Xc0DXxTKtbWOZFvfRdLpAbJo2XJouBrWuCxs27QS61ek3bLoJNCtzZpou5oCui2Va28YyLe6j6XSB2DRtuDRdDGpdFzZs2gl0q9Nv2HQTaFbmzDRdzAFdF8u0to1lWtxH0+kCsWnacGm6GNS6LmzYtBPoVqffsOkm0KzMmWm6mAO6LpZpbRvLtLiPptMFYtO04dJ0Mah1XdiwaSfQrU6/YdNNoFmZM9N0MQd0XSzT2jaWaXEfTacLxKZpw6XpYlDrurBh006gW51+w6abQLMyZ6bpYg7oulimtW0s0+I+mk4XiE3ThkvTxaDWdWHDpp1Atzr9hk03gWZlzkzTxRzQdbFMa9tYpsV9NJ0uEJumDZemi0Gt68KGTTuBbnX6DZtuAs3KnJmmizmg62KZ1raxTIv7aDpdIDZNGy5NF4Na14UNm3YC3er0GzbdBJqVOTNNF3NA18UyrW1jmRb30XS6QGyaNlyaLga1rgsbNu0EutXpN2y6CTQrc2aaLuaArotlWtvGMi3uo+l0gdg0bbg0XQxqXRc2bNoJdKvTb9h0E2hW5sw0XcwBXRfLtLaNZVrcR9PpArFp2nBpuhjUui5s2LQT6Fan37DpJtCszJlpupgDui6WaW0by7S4j6bTBWLTtOHSdDGodV3YsGkn0K1Ov2HTTaBZmTPTdDEHdF0s09o2lmlxH02nC8SmacOl6WJQ67qwYdNOoFudfsOmm0CzMmem6WIO6LpYprVtLNPiPppOF4hN04ZL08Wg1nVhw6adQLc6/YZNN4FmZc5M08Uc0HWxTGvbWKbFfTSdLhCbpg2XpotBrevChk07gW51+g2bbgLNypyZpos5oOtimda2sUyL+2g6XSA2TRsuTReDWteFDZt2At3q9Bs23QSalTkzTRdzQNfFMq1tY5kW99F0ukBsmjZcmi4Gta4LGzbtBLrV6Tdsugk0K3Nmmi7mgK6LZVrbxjIt7qPpdIHYNG24NF0Mal0XNmzaCXSr02/YdBNoVubMNF3MAV0Xy7S2jWVa3EfT6QKxadpwaboY1LoubNi0E+hWp9+w6SbQrMyZabqYA7oulmltG8u0uI+m0wVi07Th0nQxqHVd2LBpJ9CtTr9h002gWZkz03QxB3RdLNPaNpZpcR9NpwvEpmnDpeliUOu6sGHTTqBbnX7DpptAszJnpuliDui6WKa1bSzT4j6aTheITdOGS9PFoNZ1YcOmnUC3Ov2GTTeBZmXOTNPFHNB1sUxr21imxX00nS4Qm6YNl6aLQa3rwoZNO4FudfoNm24CzcqcmaaLOaDrYpnWtrFMi/toOl0gNk0bLk0Xg1rXhQ2bdgLd6vQbNt0EmpU5M00Xc0DXxTKtbWOZFvfRdLpAbJo2XJouBrWuCxs27QS61ek3bLoJNCtzZpou5oCui2Va28YyLe6j6XSB2DRtuDRdDGpdFzZs2gl0q9Nv2HQTaFbmzDRdzAFdF8u0to1lWtxH0+kCsWnacGm6GNS6LmzYtBPoVqffsOkm0KzMmWm6mAO6LpZpbRvLtLiPptMFYtO04dJ0Mah1XdiwaSfQrU6/YdNNoFmZM9N0MQd0XSzT2jaWaXEfTacLxKZpw6XpYlDrurBh006gW51+w6abQLMyZ6bpYg7oulimtW0s0+I+mk4XiE3ThkvTxaDWdWHDpp1Atzr9hk03gWZlzkzTxRzQdbFMa9tYpsV9NJ0uEJumDZemi0Gt68KGTTuBbnX6DZtuAs3KnJmmizmg62KZ1raxTIv7aDpdIDZNGy5NF4Na14UNm3YC3er0GzbdBJqVOTNNF3NA18UyrW1jmRb30XS6QGyaNlyaLga1rgsbNu0EutXpN2y6CTQrc2aaLuaArotlWtvGMi3uo+l0gdg0bbg0XQxqXRc2bNoJdKvTb9h0E2hW5sw0XcwBXRfLtLaNZVrcR9PpArFp2nBpuhjUui5s2LQT6Fan37DpJtCszJlpupgDui6WaW0by7S4j6bTBWLTtOHSdDGodV3YsGkn0K1Ov2HTTaBZmTPTdDEHdF0s09o2lmlxH02nC8SmacOl6WJQ67qwYdNOoFudfsOmm0CzMmem6WIO6Lo8s0xrl6k6CUhAAhKQgAQkIAEJSEACEpCABCQgAQk0Enjp1ddef/OVl580qlHFMwn4K0H3DsGGTTeBZmXOTNPFXz27LmzYtBPoVqffsOkm0KzMmWm6mAO6LtPGMi1s5IGti8OGTTeBZmXOTNPFoNZ1YcOmnUC3Ov2GTTeBZmXOTNPFHNB1sUxr27xVnQe2LhIbNt0EmpU5M00XvabrwoZNO4FudfoNm24CzcqcmaaLOaDrYpnWtrFMi/toOl0gNk0bLk0Xg1rXhQ2bdgLd6vQbNt0EmpU5M00Xc0DXxTKtbWOZFvfRdLpAbJo2XJouBrWuCxs27QS61ek3bLoJNCtzZpou5oCui2Va28YyLe6j6XSB2DRtuDRdDGpdFzZs2gl0q9Nv2HQTaFbmzDRdzAFdF8u0to1lWtxH0+kCsWnacGm6GNS6LmzYtBPoVqffsOkm0KzMmWm6mAO6LpZpbRvLtLiPptMFYtO04dJ0Mah1XdiwaSfQrU6/YdNNoFmZM9N0MQd0XSzT2jaWaXEfTacLxKZpw6XpYlDrurBh006gW51+w6abQLMyZ6bpYg7oulimtW0s0+I+mk4XiE3ThkvTxaDWdWHDpp1Atzr9hk03gWZlzkzTxRzQdbFMa9tYpsV9NJ0uEJumDZemi0Gt68KGTTuBbnX6DZtuAs3KnJmmizmg62KZ1raxTIv7aDpdIDZNGy5NF4Na14UNm3YC3er0GzbdBJqVOTNNF3NA18UyrW1jmRb30XS6QGyaNlyaLga1rgsbNu0EutXpN2y6CTQrc2aaLuaArotlWtvGMi3uo+l0gdg0bbg0XQxqXRc2bNoJdKvTb9h0E2hW5sw0XcwBXRfLtLaNZVrcR9PpArFp2nBpuhjUui5s2LQT6Fan37DpJtCszJlpupgDui6WaW0by7S4j6bTBWLTtOHSdDGodV3YsGkn0K1Ov2HTTaBZmTPTdDEHdF0s09o2lmlxH02nC8SmacOl6WJQ67qwYdNOoFudfsOmm0CzMmem6WIO6LpYprVtLNPiPppOF4hN04ZL08Wg1nVhw6adQLc6/YZNN4FmZc5M08Uc0HWxTGvbWKbFfTSdLhCbpg2XpotBrevChk07gW51+g2bbgLNypyZpos5oOtimda2sUyL+2g6XSA2TRsuTReDWteFDZt2At3q9Bs23QSalTkzTRdzQNfFMq1tY5kW99F0ukBsmjZcmi4Gta4LGzbtBLrV6Tdsugk0K3Nmmi7mgK6LZVrbxjIt7qPpdIHYNG24NF0Mal0XNmzaCXSr02/YdBNoVubMNF3MAV0Xy7S2jWVa3EfT6QKxadpwaboY1LoubNi0E+hWp9+w6SbQrMyZabqYA7oulmltG8u0uI+m0wVi07Th0nQxqHVd2LBpJ9CtTr9h002gWZkz03QxB3RdLNPaNpZpcR9NpwvEpmnDpeliUOu6sGHTTqBbnX7DpptAszJnpuliDui6WKa1bSzT4j6aTheITdOGS9PFoNZ1YcOmnUC3Ov2GTTeBZmXOTNPFHNB1sUxr21imxX00nS4Qm6YNl6aLQa3rwoZNO4FudfoNm24CzcqcmaaLOaDrYpnWtrFMi/toOl0gNk0bLk0Xg1rXhQ2bdgLd6vQbNt0EmpU5M00Xc0DXxTKtbWOZFvfRdLpAbJo2XJouBrWuCxs27QS61ek3bLoJNCtzZpou5oCui2Va28YyLe6j6QLyy38AABZHSURBVHSB2DRtuDRdDGpdFzZs2gl0q9Nv2HQTaFbmzDRdzAFdF8u0to1lWtxH0+kCsWnacGm6GNS6LmzYtBPoVqffsOkm0KzMmWm6mAO6LpZpbRvLtLiPptMFYtO04dJ0Mah1XdiwaSfQrU6/YdNNoFmZM9N0MQd0XSzT2jaWaXEfTacLxKZpw6XpYlDrurBh006gW51+w6abQLMyZ6bpYg7oulimtW0s0+I+mk4XiE3ThkvTxaDWdWHDpp1Atzr9hk03gWZlzkzTxRzQdbFMa9tYpsV9NJ0uEJumDZemi0Gt68KGTTuBbnX6DZtuAs3KnJmmizmg62KZ1raxTIv7aDpdIDZNGy5NF4Na14UNm3YC3er0GzbdBJqVOTNNF3NA18UyrW1jmRb30XS6QGyaNlyaLga1rgsbNu0EutXpN2y6CTQrc2aaLuaArotlWtvGMi3uo+l0gdg0bbg0XQxqXRc2bNoJdKvTb9h0E2hW5sw0XcwBXRfLtLaNZVrcR9PpArFp2nBpuhjUui5s2LQT6Fan37DpJtCszJlpupgDui6WaW0by7S4j6bTBWLTtOHSdDGodV3YsGkn0K1Ov2HTTaBZmTPTdDEHdF2eWaa1y1SdBCQgAQlIQAISkIAEJCABCUhAAhKQgAQaCbz06muvv/nKy08a1ajimQT8laB7h2DDpptAszJnpunir55dFzZs2gl0q9Nv2HQTaFbmzDRdzAFdl2ljmRY28sDWxWHDpptAszJnpuliUOu6sGHTTqBbnX7DpptAszJnpuliDui6WKa1bd6qzgNbF4kNm24CzcqcmaaLXtN1YcOmnUC3Ov2GTTeBZmXOTNPFHNB1sUxr21imxX00nS4Qm6YNl6aLQa3rwoZNO4FudfoNm24CzcqcmaaLOaDrYpnWtrFMi/toOl0gNk0bLk0Xg1rXhQ2bdgLd6vQbNt0EmpU5M00Xc0DXxTKtbWOZFvfRdLpAbJo2XJouBrWuCxs27QS61ek3bLoJNCtzZpou5oCui2Va28YyLe6j6XSB2DRtuDRdDGpdFzZs2gl0q9Nv2HQTaFbmzDRdzAFdF8u0to1lWtxH0+kCsWnacGm6GNS6LmzYtBPoVqffsOkm0KzMmWm6mAO6LpZpbRvLtLiPptMFYtO04dJ0Mah1XdiwaSfQrU6/YdNNoFmZM9N0MQd0XSzT2jaWaXEfTacLxKZpw6XpYlDrurBh006gW51+w6abQLMyZ6bpYg7oulimtW0s0+I+mk4XiE3ThkvTxaDWdWHDpp1Atzr9hk03gWZlzkzTxRzQdbFMa9tYpsV9NJ0uEJumDZemi0Gt68KGTTuBbnX6DZtuAs3KnJmmizmg62KZ1raxTIv7aDpdIDZNGy5NF4Na14UNm3YC3er0GzbdBJqVOTNNF3NA18UyrW1jmRb30XS6QGyaNlyaLga1rgsbNu0EutXpN2y6CTQrc2aaLuaArotlWtvGMi3uo+l0gdg0bbg0XQxqXRc2bNoJdKvTb9h0E2hW5sw0XcwBXRfLtLaNZVrcR9PpArFp2nBpuhjUui5s2LQT6Fan37DpJtCszJlpupgDui6WaW0by7S4j6bTBWLTtOHSdDGodV3YsGkn0K1Ov2HTTaBZmTPTdDEHdF0s09o2lmlxH02nC8SmacOl6WJQ67qwYdNOoFudfsOmm0CzMmem6WIO6LpYprVtLNPiPppOF4hN04ZL08Wg1nVhw6adQLc6/YZNN4FmZc5M08Uc0HWxTGvbWKbFfTSdLhCbpg2XpotBrevChk07gW51+g2bbgLNypyZpos5oOtimda2sUyL+2g6XSA2TRsuTReDWteFDZt2At3q9Bs23QSalTkzTRdzQNfFMq1tY5kW99F0ukBsmjZcmi4Gta4LGzbtBLrV6Tdsugk0K3Nmmi7mgK6LZVrbxjIt7qPpdIHYNG24NF0Mal0XNmzaCXSr02/YdBNoVubMNF3MAV0Xy7S2jWVa3EfT6QKxadpwaboY1LoubNi0E+hWp9+w6SbQrMyZabqYA7oulmltG8u0uI+m0wVi07Th0nQxqHVd2LBpJ9CtTr9h002gWZkz03QxB3RdLNPaNpZpcR9NpwvEpmnDpeliUOu6sGHTTqBbnX7DpptAszJnpuliDui6WKa1bSzT4j6aTheITdOGS9PFoNZ1YcOmnUC3Ov2GTTeBZmXOTNPFHNB1sUxr21imxX00nS4Qm6YNl6aLQa3rwoZNO4FudfoNm24CzcqcmaaLOaDrYpnWtrFMi/toOl0gNk0bLk0Xg1rXhQ2bdgLd6vQbNt0EmpU5M00Xc0DXxTKtbWOZFvfRdLpAbJo2XJouBrWuCxs27QS61ek3bLoJNCtzZpou5oCui2Va28YyLe6j6XSB2DRtuDRdDGpdFzZs2gl0q9Nv2HQTaFbmzDRdzAFdF8u0to1lWtxH0+kCsWnacGm6GNS6LmzYtBPoVqffsOkm0KzMmWm6mAO6LpZpbRvLtLiPptMFYtO04dJ0Mah1XdiwaSfQrU6/YdNNoFmZM9N0MQd0XSzT2jaWaXEfTacLxKZpw6XpYlDrurBh006gW51+w6abQLMyZ6bpYg7oulimtW0s0+I+mk4XiE3ThkvTxaDWdWHDpp1Atzr9hk03gWZlzkzTxRzQdbFMa9tYpsV9NJ0uEJumDZemi0Gt68KGTTuBbnX6DZtuAs3KnJmmizmg62KZ1raxTIv7aDpdIDZNGy5NF4Na14UNm3YC3er0GzbdBJqVOTNNF3NA18UyrW1jmRb30XS6QGyaNlyaLga1rgsbNu0EutXpN2y6CTQrc2aaLuaArotlWtvGMi3uo+l0gdg0bbg0XQxqXRc2bNoJdKvTb9h0E2hW5sw0XcwBXRfLtLaNZVrcR9PpArFp2nBpuhjUui5s2LQT6Fan37DpJtCszJlpupgDui7PLNPaZapOAhKQgAQkIAEJSEACEpCABCQgAQlIQAKNBF569bXX33zl5SeNalTxTAL+StC9Q7Bh002gWZkz03TxV8+uCxs27QS61ek3bLoJNCtzZpou5oCuy7SxTAsbeWDr4rBh002gWZkz03QxqHVd2LBpJ9CtTr9h002gWZkz03QxB3RdLNPaNm9V54Gti8SGTTeBZmXOTNNFr+m6sGHTTqBbnX7DpptAszJnpuliDui6WKa1bSzT4j6aTheITdOGS9PFoNZ1YcOmnUC3Ov2GTTeBZmXOTNPFHNB1sUxr21imxX00nS4Qm6YNl6aLQa3rwoZNO4FudfoNm24CzcqcmaaLOaDrYpnWtrFMi/toOl0gNk0bLk0Xg1rXhQ2bdgLd6vQbNt0EmpU5M00Xc0DXxTKtbWOZFvfRdLpAbJo2XJouBrWuCxs27QS61ek3bLoJNCtzZpou5oCui2Va28YyLe6j6XSB2DRtuDRdDGpdFzZs2gl0q9Nv2HQTaFbmzDRdzAFdF8u0to1lWtxH0+kCsWnacGm6GNS6LmzYtBPoVqffsOkm0KzMmWm6mAO6LpZpbRvLtLiPptMFYtO04dJ0Mah1XdiwaSfQrU6/YdNNoFmZM9N0MQd0XSzT2jaWaXEfTacLxKZpw6XpYlDrurBh006gW51+w6abQLMyZ6bpYg7oulimtW0s0+I+mk4XiE3ThkvTxaDWdWHDpp1Atzr9hk03gWZlzkzTxRzQdbFMa9tYpsV9NJ0uEJumDZemi0Gt68KGTTuBbnX6DZtuAs3KnJmmizmg62KZ1raxTIv7aDpdIDZNGy5NF4Na14UNm3YC3er0GzbdBJqVOTNNF3NA18UyrW1jmRb30XS6QGyaNlyaLga1rgsbNu0EutXpN2y6CTQrc2aaLuaArotlWtvGMi3uo+l0gdg0bbg0XQxqXRc2bNoJdKvTb9h0E2hW5sw0XcwBXRfLtLaNZVrcR9PpArFp2nBpuhjUui5s2LQT6Fan37DpJtCszJlpupgDui6WaW0by7S4j6bTBWLTtOHSdDGodV3YsGkn0K1Ov2HTTaBZmTPTdDEHdF0s09o2lmlxH02nC8SmacOl6WJQ67qwYdNOoFudfsOmm0CzMmem6WIO6LpYprVtLNPiPppOF4hN04ZL08Wg1nVhw6adQLc6/YZNN4FmZc5M08Uc0HWxTGvbWKbFfTSdLhCbpg2XpotBrevChk07gW51+g2bbgLNypyZpos5oOtimda2sUyL+2g6XSA2TRsuTReDWteFDZt2At3q9Bs23QSalTkzTRdzQNfFMq1tY5kW99F0ukBsmjZcmi4Gta4LGzbtBLrV6Tdsugk0K3Nmmi7mgK6LZVrbxjIt7qPpdIHYNG24NF0Mal0XNmzaCXSr02/YdBNoVubMNF3MAV0Xy7S2jWVa3EfT6QKxadpwaboY1LoubNi0E+hWp9+w6SbQrMyZabqYA7oulmltG8u0uI+m0wVi07Th0nQxqHVd2LBpJ9CtTr9h002gWZkz03QxB3RdLNPaNpZpcR9NpwvEpmnDpeliUOu6sGHTTqBbnX7DpptAszJnpuliDui6WKa1bSzT4j6aTheITdOGS9PFoNZ1YcOmnUC3Ov2GTTeBZmXOTNPFHNB1sUxr21imxX00nS4Qm6YNl6aLQa3rwoZNO4FudfoNm24CzcqcmaaLOaDrYpnWtrFMi/toOl0gNk0bLk0Xg1rXhQ2bdgLd6vQbNt0EmpU5M00Xc0DXxTKtbWOZFvfRdLpAbJo2XJouBrWuCxs27QS61ek3bLoJNCtzZpou5oCui2Va28YyLe6j6XSB2DRtuDRdDGpdFzZs2gl0q9Nv2HQTaFbmzDRdzAFdF8u0to1lWtxH0+kCsWnacGm6GNS6LmzYtBPoVqffsOkm0KzMmWm6mAO6LpZpbRvLtLiPptMFYtO04dJ0Mah1XdiwaSfQrU6/YdNNoFmZM9N0MQd0XSzT2jaWaXEfTacLxKZpw6XpYlDrurBh006gW51+w6abQLMyZ6bpYg7oulimtW0s0+I+mk4XiE3ThkvTxaDWdWHDpp1Atzr9hk03gWZlzkzTxRzQdbFMa9tYpsV9NJ0uEJumDZemi0Gt68KGTTuBbnX6DZtuAs3KnJmmizmg62KZ1raxTIv7aDpdIDZNGy5NF4Na14UNm3YC3er0GzbdBJqVOTNNF3NA18UyrW1jmRb30XS6QGyaNlyaLga1rgsbNu0EutXpN2y6CTQrc2aaLuaArotlWtvGMi3uo+l0gdg0bbg0XQxqXRc2bNoJdKvTb9h0E2hW5sw0XcwBXZdnlmntMlUnAQlIQAISkIAEJCABCUhAAhKQgAQkIIFGAi+9+trrb77y8pNGNap4JgF/JejeIdiw6SbQrMyZabr4q2fXhQ2bdgLd6vQbNt0EmpU5M00Xc0DXZdpYpoWNPLB1cdiw6SbQrMyZaboY1LoubNi0E+hWp9+w6SbQrMyZabqYA7oulmltm7eq88DWRWLDpptAszJnpumi13Rd2LBpJ9CtTr9h002gWZkz03QxB3RdLNPaNpZpcR9NpwvEpmnDpeliUOu6sGHTTqBbnX7DpptAszJnpuliDui6WKa1bSzT4j6aTheITdOGS9PFoNZ1YcOmnUC3Ov2GTTeBZmXOTNPFHNB1sUxr21imxX00nS4Qm6YNl6aLQa3rwoZNO4FudfoNm24CzcqcmaaLOaDrYpnWtrFMi/toOl0gNk0bLk0Xg1rXhQ2bdgLd6vQbNt0EmpU5M00Xc0DXxTKtbWOZFvfRdLpAbJo2XJouBrWuCxs27QS61ek3bLoJNCtzZpou5oCui2Va28YyLe6j6XSB2DRtuDRdDGpdFzZs2gl0q9Nv2HQTaFbmzDRdzAFdF8u0to1lWtxH0+kCsWnacGm6GNS6LmzYtBPoVqffsOkm0KzMmWm6mAO6LpZpbRvLtLiPptMFYtO04dJ0Mah1XdiwaSfQrU6/YdNNoFmZM9N0MQd0XSzT2jaWaXEfTacLxKZpw6XpYlDrurBh006gW51+w6abQLMyZ6bpYg7oulimtW0s0+I+mk4XiE3ThkvTxaDWdWHDpp1Atzr9hk03gWZlzkzTxRzQdbFMa9tYpsV9NJ0uEJumDZemi0Gt68KGTTuBbnX6DZtuAs3KnJmmizmg62KZ1raxTIv7aDpdIDZNGy5NF4Na14UNm3YC3er0GzbdBJqVOTNNF3NA18UyrW1jmRb30XS6QGyaNlyaLga1rgsbNu0EutXpN2y6CTQrc2aaLuaArotlWtvGMi3uo+l0gdg0bbg0XQxqXRc2bNoJdKvTb9h0E2hW5sw0XcwBXRfLtLaNZVrcR9PpArFp2nBpuhjUui5s2LQT6Fan37DpJtCszJlpupgDui6WaW0by7S4j6bTBWLTtOHSdDGodV3YsGkn0K1Ov2HTTaBZmTPTdDEHdF0s09o2lmlxH02nC8SmacOl6WJQ67qwYdNOoFudfsOmm0CzMmem6WIO6LpYprVtLNPiPppOF4hN04ZL08Wg1nVhw6adQLc6/YZNN4FmZc5M08Uc0HWxTGvbWKbFfTSdLhCbpg2XpotBrevChk07gW51+g2bbgLNypyZpos5oOtimda2sUyL+2g6XSA2TRsuTReDWteFDZt2At3q9Bs23QSalTkzTRdzQNfFMq1tY5kW99F0ukBsmjZcmi4Gta4LGzbtBLrV6Tdsugk0K3Nmmi7mgK6LZVrbxjIt7qPpdIHYNG24NF0Mal0XNmzaCXSr02/YdBNoVubMNF3MAV0Xy7S2jWVa3EfT6QKxadpwaboY1LoubNi0E+hWp9+w6SbQrMyZabqYA7oulmltG8u0uI+m0wVi07Th0nQxqHVd2LBpJ9CtTr9h002gWZkz03QxB3RdLNPaNpZpcR9NpwvEpmnDpeliUOu6sGHTTqBbnX7DpptAszJnpuliDui6WKa1bSzT4j6aTheITdOGS9PFoNZ1YcOmnUC3Ov2GTTeBZmXOTNPFHNB1sUxr21imxX00nS4Qm6YNl6aLQa3rwoZNO4FudfoNm24CzcqcmaaLOaDrYpnWtrFMi/toOl0gNk0bLk0Xg1rXhQ2bdgLd6vQbNt0EmpU5M00Xc0DXxTKtbWOZFvfRdLpAbJo2XJouBrWuCxs27QS61ek3bLoJNCtzZpou5oCui2Va28YyLe6j6XSB2DRtuDRdDGpdFzZs2gl0q9Nv2HQTaFbmzDRdzAFdF8u0to1lWtxH0+kCsWnacGm6GNS6LmzYtBPoVqffsOkm0KzMmWm6mAO6LpZpbRvLtLiPptMFYtO04dJ0Mah1XdiwaSfQrU6/YdNNoFmZM9N0MQd0XSzT2jaWaXEfTacLxKZpw6XpYlDrurBh006gW51+w6abQLMyZ6bpYg7oulimtW0s0+I+mk4XiE3ThkvTxaDWdWHDpp1Atzr9hk03gWZlzkzTxRzQdbFMa9tYpsV9NJ0uEJumDZemi0Gt68KGTTuBbnX6DZtuAs3KnJmmizmg62KZ1raxTIv7aDpdIDZNGy5NF4Na14UNm3YC3er0GzbdBJqVOTNNF3NA18UyrW1jmRb30XS6QGyaNlyaLga1rgsbNu0EutXpN2y6CTQrc2aaLuaArsszy7R2maqTgAQkIAEJSEACEpCABCQgAQlIQAISkEAjgf8P02pcGbTXtKkAAAAASUVORK5CYII=;imageBorder=none;clipPath=inset(0% 0% 0% 8.33%);" parent="ac8dYfmG1soSG2riglzt-164" vertex="1">
          <mxGeometry x="309" width="1135" height="379.71" as="geometry" />
        </mxCell>
        <mxCell id="ac8dYfmG1soSG2riglzt-143" value="" style="shape=image;verticalLabelPosition=bottom;labelBackgroundColor=default;verticalAlign=top;aspect=fixed;imageAspect=0;image=data:image/png,iVBORw0KGgoAAAANSUhEUgAAAjEAAAFWCAYAAACYdsyLAAAAAXNSR0IArs4c6QAAIABJREFUeF7tnY+TVFWW56/7wypnAhJcBLo6KBsUsRVlcUDx9yihsw5K03ajtDTS/mIMV43YCP8MIzZCWcPGX43V2CiurSjbtjS6ItoqtA6IIhSCXQ6FgC0UxAxVzuy4cR5xnjdvvffyR72b+X58MsKwsvK9c8/9nJt5v3XOuclJ+/Yf+tbwgAAEIAABCEAAAjkjcJKImIdfH5czt3EXAhDIA4H7rv7K8PmSh0jhIwTyR0A+XxAx+YsbHkMgNwQQMbkJFY5CIHcEEDG5CxkOQyBfBBAx+YoX3kIgTwQQMXmKFr5CIIcEEDE5DBouQyAnBBAxOQkUbkIgrwQQMXmNHH5DIPsEEDHZjxEeQiDXBBAxuQ4fzkMg0wQQMZkOD85BIP8EEDH5jyEzgEBWCSBishoZ/IJAQQggYgoSSKYBgQwSQMRkMCi4BIEiEUDEFCmazAUC2SKAiMlWPPAGAoUjgIgpXEiZEAQyQwARk5lQ4AgEikkAEVPMuDIrCGSBACImC1HABwgUmAAipsDBZWoQaDMBREybA8DwECg6AURM0SPM/CDQPgKImPaxZ2QIlIIAIqYUYWaSEGgLAURMW7AzKATKQwARU55YM1MItJoAIqbVxBkPAiUjgIgpWcCZLgRaSAAR00LYDAWBMhJAxJQx6swZAq0hgIhpDee6RrnmfGOuPMeY//gfvrt8y2fG/O/36rrd3HG1MWdONGb3l8Y88Xp997hXRdn4yUXGdI8z5n+ua9xm1JzEyv/7d2Pe/MSY9dvibc6cbMyPZp14/aUtxny4t/HxuaP9BBAx7Y8BHkCgqAQQMRmJrAiFWWdEO1OvKElDxLgeqF8HB9IVMTpOIyItI6HCjQYJIGIaBMblEIBA3QQQMXWj8nehZhw6/rMx9qauomToX7/LRLiZDVvgRIkY/V1U9uN/zDNmfMUYESjyfxnnyL8YM6FyIptz5J+rhdW//psx//bvxpz8n77LopwxwZibLjbmrzujMyvq7z8PGvPcH4357MAJju7cxo06kYUa/NcTr/91hzEHBowZ81ffZWL+9hxj/suo6nF0DsotiY+/CGI5iQAihvUBAQj4IoCI8UW2Abtx2Q4RCDdeZMw/fn6i7BJXmtEN3BUxtoBRd2xBpAJAXxMxc/T4dyUpV8S4IkdKVnEiRW3Gve6KH7neLqVJuWlnvzFynTyknDRl/AlRpcLNLTepELLLcXIv2Z4GFqOHSxExHqBiEgIQCAggYjKwEFRs1Nps3et0ExdxIVmOvz33OwHyfz8+kSGR7I72k6hYUhFgZ2K038UVQq7AUlHyl2Mnyku1SlhJIsfOooh4EhEjD+2VcUWKvCY9Mjrf//qDE6JGS121+GgWKAMhL5ULiJhShZvJQqClBBAxLcUdPVgtIaB3uZkTN7tyweTvRMwHe09s+CJi3Idu+m4pRq6rJWI0g6LiKKrEY4/XqIixy05Rjb3is5aUpk+qLi/V4kNjcHsWOyKmPdwZFQJlIICIyUCUk8pJkk3Ztf/ECaW4TVpP+sgJIj2dlCRijv7LiczN/FknemGi+nA0WxPlmwqdHftOlHg0MxKV6Wi0nFRLxKg//V+fEDD22LX4JJ2EysAyKKwLiJjChpaJQaDtBBAxbQ+BMbUae12REld2srMoUeUkd6rNZGLERiPNs3EiRsWICqopE06Uk2qJGJuV+BLV2FyrLJeBkJfKBURMqcLNZCHQUgKImJbijh8sqglXr9aNOq6x1+0J0evjbOom34iIEV9UTO05cKLfZvRf1f6+lzifdW7uqaJaIsYuebnfNVOLT0ZCXTo3EDGlCzkThkDLCCBiWoa69kD1fNmde41mMqSUU+uItZu5qEfEaA+MK1h0LHv8qBnW+2V3URmbuC+7S+qzSeJTOwJc4YMAIsYHVWxCAAJCABHDOmiKQL3NyE0Z56ZCEUDEFCqcTAYCmSKAiMlUOPLhTK0vuMvHLPCyVQQQMa0izTgQKB8BREz5Yj6iGdv/PEK9/xzCiAbk5twTQMTkPoRMAAKZJYCIyWxocAwCxSCAiClGHJkFBLJIABGTxajgEwQKRAARU6BgMhUIZIwAIiZjAcEdCBSNACKmaBFlPhDIDgFETHZigScQKCQBREwhw8qkIJAJAoiYTIQBJyBQXAKImOLGlplBoN0EEDHtjgDjQ6DgBBAxBQ8w04NAGwkgYtoIn6EhUAYCiJgyRJk5QqA9BBAx7eHOqBAoDQFETGlCzUQh0HICiJiWI2dACJSLACKmXPFmthBoJQFETCtpMxYESkgAEVPCoDNlCLSIACKmRaAZBgJlJYCIKWvkmTcE/BNAxPhnzAgQKDUBREypw8/kIeCVACLGK16MQwACiBjWAAQg4IsAIsYXWexCAAIBAUQMCwECEPBFIBQxvgbALgQgAAEIQAACEPBF4KR9+w992zVxnC/72IUABEpMoP/LrwyfLyVeAEwdAh4JyOcLIsYjYExDoOwEEDFlXwHMHwL+CCBi/LHFMgQgYIxBxLAMIAABXwQQMb7IYhcCEAgIIGJYCBCAgC8CiBhfZLELAQggYlgDEICAVwKIGK94MQ4BCJCJYQ1AAAK+CCBifJHFLgQgQCaGNQABCHglgIjxihfjEIAAmRjWAAQg4IsAIsYXWexCAAJkYlgDEICAVwKIGK94MQ4BCJCJYQ1AAAK+CCBifJHFLgQgQCaGNQABCHglgIjxihfjEIAAmRjWAAQg4IsAIsYXWexCAAJkYlgDEICAVwKpiZjjg0Pm4UefNmdPnWLmz5s7Iqc3f/CReWPju+a+u281p3R2jMjW4cMDZvmKHnPLwvnmjCndDdlau26D+bR3Typ+yMCf7ekzT/asMbcvWdiwLw05zsUQyBABMjEZCgauQKBgBBAxCQFNW8QUbO0wHQjURQARUxcmLoIABJog4E3ESNbhmTVrTfek75vNf9oWuNY9qSvMakiG5MGHnjADR48Fr50/fZpZdtsiI1mYlateCH5XGT3KPHD/HWbs2IpZ8dRqs237znCKer38Ql7r6Ogwu3r3hvaWLr7RnDm5u2oM+d3sC86rwhTnh1wkImbr9h3B9QcO/iX4/7VXXxZmmjT71PdFf2hTXxe7j618zkwYPy6Yv8z9+v92lVn17EtBJkYeSXx0Xjrn2X9zfjC/BTdcM2wOTcSdWyDQMgKImJahZiAIlI6AVxHzyOOrzLSpkwNxomLholkzzDVzL6sqPbmlKLecJCLlyMCxUACp0FFRIq/v7N1r7rlzcVCmEfHx3patgQCSR1w5yR3XfS52Xnt9k9FxZNzVz78SjNPVNSGYw5jKqGB+KnrefPv94PVTx1YCAXV6d1f4ul1Okuvj+Eg5zp6DLeKihFjpVi0TzhUBREyuwoWzEMgVAa8ixu3/ELEhjyU/+3Fi/0ytnhgVRJqVULsqJmyxIGKiXhHjRs4tJ7njute744qIsTMnroipxeeqK+aEWRe5V0TPop9eTyYmV28xnEXEsAYgAAFfBNoiYtyykV1mkonGiRjNjCgMOxMjv2tUxOhYWr5y/ahXxNilro6Ok6syMc2ImIULrhsmvGoJKF8LBLsQGCkBRMxICXI/BCAQR6BtIkYd0gzD0NA3VX0x9ukkFS/aIyP32lmOZjMxNpQoP2qJGBUvKn76+w+Ep4+0nISI4c1XdgKImLKvAOYPAX8E2i5idGqSfXnx5fVBH8vuvX3hEWt5XXpP7NJKWuWkKKy2H2+9s6XqiLU9rjQNu2Uqykn+FiqW80sAEZPf2OE5BLJOoC0iJqonxs6m2OUkFTH6/TP2iaCRlpOivtvG9iMpE6MnnzTTogJncGhoxOUkKYvR2Jv1tw7+1UsAEVMvKa6DAAQaJdAWESObtF2+Eaejjl+rIJDXpalVSk7yuPkn88wf3/8wPBmUVE6S00pa9rGPR0eVs1w/apWT7OPg0gsjTbeSTZITWJdfMquq5CW2623s1d4eu9dGjlj3fbGvqS/ta3RRcD0E0iSAiEmTJrYgAAGbQGoiBqx+CYzkm4f9eoZ1CCQTQMSwQiAAAV8EEDG+yI7AblSZi28PHgFQbm0rAURMW/EzOAQKTQARk9HwJpXbMuoybkEgkgAihoUBAQj4IoCI8UUWuxCAQEAAEcNCgAAEfBFAxPgii10IQAARwxqAAAS8EkDEeMWLcQhAgEwMawACEPBFABHjiyx2IQABMjGsAQhAwCsBRIxXvBiHAATIxLAGIAABXwQQMb7IYhcCECATwxqAAAS8EkDEeMWLcQhAgEwMawACEPBFABHjiyx2IQABMjGsAQhAwCsBRIxXvBiHAATIxLAGIAABXwQQMb7IYhcCECATwxqAAAS8EghFjNdRMA4BCEAAAhCAAAQ8EDhp3/5D33ZNHOfBNCYhAIGyE6CcVPYVwPwh4I8A5SR/bLEMAQjwbyexBiAAAY8EEDEe4WIaAhDgH4BkDUAAAv4IIGL8scUyBCBAJoY1AAEIeCSAiPEIF9MQgACZGNYABCDgjwAixh9bLEMAAmRiWAMQgIBHAogYj3AxDQEIkIlhDUAAAv4IIGL8scUyBCBAJoY1AAEIeCSAiPEIF9MQgACZGNYABCDgjwAixh9bLEMAAmRiWAMQgIBHAogYj3AxDQEIkIlhDUAAAv4IIGL8scUyBCBAJoY1AAEIeCSAiPEIF9MQgACZGNYABCDgj0BqImbFU6sDL5fdtij09rM9feaRx1eZKy+90MyfNzf8/eYPPjIvvrze3LX0JvPYyufMghuuMbMvOM+sXbfBfHnwUGDj8OEB8+BDT4SvpY3AHitt243YOz44ZB5+9Glz1RVzAgZleCSx98lDxv20d4+57+5bzSmdHWVAnYk58g9AZiIMOAGBQhJITcSIMHlj47tVG8QJsfKamTB+nLnrtkXhxhG3mSBiEDGImOJ9ziBiihdTZgSBrBBITcRI1uXJnjXm9iULzRlTuoP5SXbmh9PONB9u/djM+7urgt/rJnX21Cnm8ktmhdmW/fsPmtde3xTc1z2pyyxZtMAs/2WPOb27y2zbvjP4fWX0KPPA/XeYsWMrwXPN1gwcPRY8v/bqy8KMjyuU7MyOO1bUX+au7fOnTwszRJI9EmG2+U/bAl/l/u2f7DIrV70QxnXp4hvDzIrOue+L/vB18fWauZcFWRj9vfrvXq9jxGUPhLMykgHUVx3Mft1lGPea64NtMy7WMp5k0YT9533/ZAaHvhk2N3nNjrPN3h0zjoc7P/vNFBc3uUbG3rp9R3D5gYN/GbZm4uIkWUSx22jcs/Imb7cfiJh2R4DxIVBcAqmJGPcvaP3Ql5LRmhd/ZyaOPy0QGPL75St6zC0L55tTx1aqSkZRmZhKZVQgEuQhG/6YyqiqctNFs2aEdqX8pM+TRIxbunLDawst8TlKeIm40tKZlsdUYNmbfFfXhCq/dTN98+33zT13Ljb6upaT3LFVDKpAcH0VEXJk4FiYARNfREypiHI52M/Xb9hUVV7R1+76xc3msV89G7JWn5R9PSJGhIr6ID6tfv6VYL4iZBspJ7lju89tHklxkziqgIryq1acdK3WG3cV8sX96Kh/ZoiY+llxJQQg0BiB1ESMbs7a0yIb3brfvxGUkSRLoaWm/v4D5pk1a829y5YEntp9L7XKSUkbsNiyxcRb72yp2qDdHpukjdQVJVF/6WsfT1z5I8l+lMhRERNVlrOFX63N0Z7nmZO7Y/uKknqOouZv+yw8orJuKrTSEJA2D+mfsjNwUSJKxo4SgHbsavnlvnXscVzB3UzcG3trFudqRExxYslMIJA1AqmKGHsDlr/y5WGn4iUrI+Iirnm3ERHT85vfBvbdRmIVSCMRMUkNoO7m75Yv7AAnlXU6Ok6OzMTY5Rbbll4fJ2Lc+yTbcOqYyjCxoTbjhICKUbcB1hZSrRQxUbFIEnWaiRIf3TJcvSLGLrEpd1fENBL3rL3pW+0PIqbVxBkPAuUhkKqI0RLSz2/+kXn+xd+FfTCCUzaGmTPODfpj7NJSs5mYrIkYzcxELR3dFHVTlWyUZjLcclKjJ2hUvGivi53dKqOIsUWanIwbGvom7BGqJWKS4hQnYpLiXp6PkeSZImJYCRCAgC8CqYoYFStjKqPNzt49QclIm3BlAzk8cNT0fbEv6IeRjEJSiSeq3JHlcpI0KtvHyDVgUVmDWuUkt3wSF/yokkaZy0lRnOotMUrpTXu1NNtVTzkpLu6+3rB5tIuIyWPU8BkC+SCQuogRofGPH+0wEyeMi/zOGDnVoydSRiJiBo8PBv0ecY29Uc2kdrNpPc2l9gal34OzcMF1w/pM3LHiTmBJQ7HOeXBoKLGxV5toZRnF9ejENbLKaae4xt6kTV1fu/cffm56Vr8U29irc1D2+n1A06ZODk8n2eWoRvqRXGE2ksZeFdXyfz01FeeX2z/kxsnNxGhc7IblWj05+fhISN9LREz6TLEIAQicIJC6iNENbdFPr6/68raoUyXu5qb3dnZ0DPsiPHE2rhwQdcRaNzA9enzFpbPN5337wi+Vs8eym0btDIqIJLWtpSAVT24Zwe1JsY97230a0mMhbCTbYp+kEoFlH+O2x3aPRduLV+chZRN53PyTeeaP738YChCXg9tbE9X/YR+F1+Pfbn+P23vyg+7vmyMDR2uKBRFytdgrSx0z6bi3+0Z2edh9MbXKSUlxsr8OwP5SwqS48yHz3YdM18Rx4IAABCCQOoHURUzqHmIQAhDINQEyMbkOH85DINMEEDGZDg/OQSD/BBAx+Y8hM4BAVgkgYrIaGfyCQEEIIGIKEkimAYEMEkDEZDAouASBIhFAxBQpmswFAtkigIjJVjzwBgKFI4CIKVxImRAEMkMAEZOZUOAIBIpJABFTzLgyKwhkgQAiJgtRwAcIFJgAIqbAwWVqEGgzAURMmwPA8BAoOgFETNEjzPwg0D4CiJj2sWdkCJSCACKmFGFmkhBoCwFETFuwMygEykMAEVOeWDNTCLSaACKm1cQZDwIlI4CIKVnAmS4EWkgAEdNC2AwFgTISQMSUMerMGQKtIYCIaQ1nRoFAaQkgYkobeiYOAe8EQhHjfSQGgAAEIAABCEAAAikTOGnf/kPfdk0cl7JZzEEAAhAwhkwMqwACEPBFgHKSL7LYhQAEAgKIGBYCBCDgiwAixhdZ7EIAAogY1gAEIOCVACLGK16MQwACZGJYAxCAgC8CiBhfZLELAQiQiWENQAACXgkgYrzixTgEIEAmhjUAAQj4IoCI8UUWuxCAAJkY1gAEIOCVACLGK16MQwACZGJYAxCAgC8CiBhfZLELAQiQiWENQAACXgkgYrzixTgEIEAmhjUAAQj4IoCI8UUWuxCAAJkY1gAEIOCVACLGK16MQwACZGJYAxCAgC8CiBhfZLELAQiQiWENQAACXgmkJmKODw6Zhx99OnD2vrtvNad0doSOb/7gI/Piy+vNA/ffYcaOrSRO6PDhAbN8RY+5ZeF8c8aU7mHXrl23wXzauycYY/2GTeHP9nj1EFvx1OrgsmW3LTJi88uDh4Kf3Yf48+BDT5gFN1xjZl9wXj2mR3TNZ3v6zJM9a8ztSxZGzj/KeC0fbWaDxwer+DYz3ogmmNLNteac0jCYSYEAmZgUIGICAhCIJJC6iOn7ot9ce/VlZv68ud5FTKPCJW4N5F3E1FrbiJhahHjdJwFEjE+62IZAuQmkLmLGVEaZnb17zT13Lg4zCW4mRrM2Injkcf70aUEWRP+6Hjh6LPj90sU3Dst+xGVi+vsPmGfWrDVzZs80L637Q2h37pWXmEceX2WGhr4xldGjwmyQZmImjj/NvPb6puD67kldw7JI6tPp3V1m2/adkdfJ/FaueiFcSfY44u/nff9kBoe+MTpfV+SJL2r7rDN/YA4c/MosvvlH5pVX3zBnT50SCkJ77iLgxLfHVj5nblpwXfB/zRbZHDs6TjanT+oKxl+yaIFZ/sseY/M9dUwlyPxMGD/O7Nr9eSwHnZxkbpSn/M6ei8xjTGW0+bxvXzBXGdteB27cXd5u/HVd6NgyfztWAwPHWpYhK/fHxMhmj4gZGT/uhgAE4gmkLmKuumKO+XDrx+bIwLFQENgipvOUzqDsJGJHhItubPq82XKSiBjZXKdNnRzY1c22s6MjEC46roqCRstJglDLYXKvzm/7J7vM6udfCTdrW/RoqUo2XhVkwsK+3rYlYwgbETGy+X+8ozcscykn2bjVD7ElrBcuuC4seZ05uTv4+aJZMwLxoxxEpEgJLqqcZHNT//V+e+m4JRz3uYqxqLl2dU0I5maLMjsGri2dr14vAua9LVurYiDCL0ro8obPFgFETLbigTcQKBIBLyLG3UhtEbN7b9+w/hi7L+PUsZWmemJExNi9JO4mKEGzy0aNihi7J6ZWH4lrW3t4NHuiPTbKKc62+CzZpXuXLQnWnGRb5CFCUfpzZJyZM841th153e0/arScZPufJGLcN4J7nx2D731vvHlj47tVmS5bsNqCzc76yPzvXHqT6Vn9UpUAoicmPx9DiJj8xApPIZA3Al5EjGywdsbh6yMD4cb61jtbhjXj2ptZ2iJGN/yRiBi30ThqA3XLLFoKiSoBqYjRUo7dxBvHQhhK1kXKX/K4/JJZgai5a+lNwXO1uX//wWF8JRYqIOpp7I0TMcpQSzpuuUfuE//sfqiosp39JtGS04Y33wlLavbrUpqTOdrlMnldBZId37y9+criLyKmLJFmnhBoPQFvIkamoqWSiy+caV5dvzEoBRRNxIgQ0R4RLW3Um4mpJWLkdJYKA10a5/5wqln3+zfM1VdebP70jx+bpbf8OOwlkoyObxGjfth9QNoXU0vE2BmpWlmcWhkgREzrPyyaHRER0yw57oMABGoR8CpiNGMhf21LY62ImFaXk9LIxLhHrO1yUlQZpF4RU6ucJCJGxMIf3/sgiOO8v7vKSKZKshLS43LO2WcGZSU7MyTX+SonRS0mO9PU85vfBpfoUXW3nJR0zN7NWNljRZUGKSfVemtn53VETHZigScQKBoBryJGYOlf7Hpix2djb1RPTFoiplIZFfRzyMNuTHY3Xz1BU085SQSIfb/a1sZeETFxDcp2g6+9oU8/56yqBtp6Gnvd76WptyfGFRdyn30yLamhW9eGCht5bjcky3ObjTRQ2yLIbSIu2huzSPNBxBQpmswFAtki4F3EyHRlw/lzX394siTuiLWi0Q3KPYrsbmz2l93FNfbWI2JcoWB/IZ/2qEybOsVsfHtz4KJ9NDhqLtIXoidp3PJZVAbBPmJ9xaWzzdaPdoRfduee3nIZuM3CdmZGjlKLeDxr6uTgxJN+CaHNV8pT9YoYW5RqrOy+GC0fisCSsd0j1u4Ravsouthz+4rcI9j2EevZf3O+2dW7lyPW2fo8ifQGEZODIOEiBHJKIDURk9P543aKBJIaglMcBlM5I4CIyVnAcBcCOSKAiMlRsLLuKiIm6xFqj3+ImPZwZ1QIlIEAIqYMUW7RHBExLQKds2EQMTkLGO5CIEcEEDE5ChauQiCPBBAxeYwaPkMgHwQQMfmIE15CILcEEDG5DR2OQyDzBBAxmQ8RDkIg3wQQMfmOH95DIMsEEDFZjg6+QaAABBAxBQgiU4BARgkgYjIaGNyCQFEIIGKKEknmAYHsEUDEZC8meASBQhFAxBQqnEwGApkigIjJVDhwBgLFI4CIKV5MmREEskIAEZOVSOAHBApKABFT0MAyLQhkgAAiJgNBwAUIFJkAIqbI0WVuEGgvAURMe/kzOgQKTwARU/gQM0EItI1AKGLa5gEDQwACEIAABCAAgSYJnLRv/6FvuyaOa/J2boMABCAQT4BMDKsDAhDwRYByki+y2IUABAICiBgWAgQg4IsAIsYXWexCAAKIGNYABCDglQAixitejEMAAmRiWAMQgIAvAogYX2SxCwEIkIlhDUAAAl4JIGK84sU4BCBAJoY1AAEI+CKAiPFFFrsQgACZGNYABCDglQAixitejEMAAmRiWAMQgIAvAogYX2SxCwEIkIlhDUAAAl4JIGK84sU4BCBAJoY1AAEI+CKAiPFFFrsQgACZGNYABCDglQAixitejEMAAmRiWAMQgIAvAogYX2SxCwEIkIlhDUAAAl4JpCZijg8OmYcffTpw9r67bzWndHaEjm/+4CPz4svrzQP332HGjq0kTujw4QGzfEWPuWXhfHPGlO5h165dt8F82rsnGGP9hk3hz/Z49RBb8dTq4LJlty0yYvPLg4eCnxt56JyvumKOmX3BeY3c2pZr3XnaDHw6pJz6vug3ldGj6loHzfpjr49G10SzY9r3fbanzzzZs8bcvmRh5Pp1x2gkBs2u0zTmNRIbZGJGQo97IQCBJAKpixjZqK69+jIzf95c7yImrU2q2c0h7yKmVW8N2difWbPW3LtsSU0RO1KfEDEjJZj+/YiY9JliEQIQOEEgdREzpjLK7Ozda+65c3H4l6ibibH/Mhcnzp8+LciCSBbmwYeeMANHjwXOLV1847AMR1wmpr//QLBRzpk907y07g/B/WJ37pWXmEceX2WGhr6pygLoX8ATx59mXnt9U3B996SuYVkk+b2Mqdd0dJwczK2ra0KQeRLRJg8Vbu4cbEEndg4PHDW7evcGc5T5TT/nrCo7ti35WQSA7f9ZUyebAwe/Cv10x1OW7gK356Dz7PnNb4PLhL3wGFMZbT7v2xfMSee54c13zLbtO6vmKE/qHVdiv3LVC6E7ysP2x87OiN3HVj5nJowfZzb/aVtkTJLGFrtbt+8Ixjtw8C/D/HbXnhu7qLG3f7Krag7uuhR2yuisM38QxCcuE+PGs1IZZeQ9o1lA25b93oiKn7xur0F37WTlQw4Rk5VI4AcEikcgdREjpZUPt35sjgwcCzdaW8R0ntIZfPDqB7duKvq82XKSiBjZ7KdNnRxsCLpZdHZ0BOULHffsqVOCLFG95SRXgEWjypBnAAAgAElEQVTNRctJurleNGtGMIb7XDaiN99+PxR47txVMOk1p46tBKJO7emcZIOXctrg8cHg9QU3XBOIPbWnc4wSMnbZzGYgP9viUzdTFR32vMVuI+O6mRjh8N6WrWFZyX6utk/v7oos77lzdJ/rZq9CQ/xe/fwrVcLTFg12TJS3PbYbf7dcJJx0rauoEBFji3iNg8Zv0U+vD+KlAk+Fp21Lsoz6us7FzhjWWjtRpdh2fXwhYtpFnnEhUHwCXkTMmZO7qzZfeyPYvbdvWH+MvTHIRtJMT4yIGLsXIWpDtzeBZkWMvSTcclJUKcOe+1vvbKnZw2Oz+PrIgHlj47tV2SF7o5OeILeXJ6l0k9QT4/ZmuJu3LS4/3tHb0Li2T64Akud2rC6/ZFaVQHLfgvUINe2ZEiGgQlKFnmvPXXtR4szteVKOCxdcN8zXpJ6YqPWR1BPj+l6r7NloP06rPt4QMa0izTgQKB8BLyJG/8rUv4BlM9bG3qiN3N4g0xYx9gbUjIhxyw92KcEVMVEbkr2BJ4kYu4ygpZwosWBvhFIO0jKGvXTjmmcbFTG2gLJjZJeY6hnXZvD14YHIxleZv5T2aokYGc8uUbklQFcoxImYKN6aiVHB45at7LlqqdJt4k3KJEatjyhhYpeOZMyoTIztS9RcyMSU78OcGUOgjAS8iRiBqVmDiy+caV5dvzEoH+RNxERtFm5fjAqlZkSMbkC6GdsZpXpEjPhX76mqNEVMI+OmLWLc8oz0O2lJppaISeIdJ2LqyeKoaBiJiFHxoiLUzVpFxU9EbNTaQcSU8eOcOUOgfAS8ihj9S1Y2fdloRMS0upw00kxMUjnjmrmXBf09Okaj5aSoDa/RcpJdOqm1fNMSMSKuGhk3zXJS1ByTSnZ2JkbKnG6psp5yUlyPUVSWp9ly0pKf/bhqLck8k8pJtdYOIqbWu4HXIQCBIhDwKmLs1L/+demzsTeqJ2akIiapsVNPKDXS2JvUr6Gb1uDQUNAYWm9jrzb+Cu+kI8ZpiRjXr1rjNtPYG5f9iOqJcfub4hhrr5ZbLnJ522PbjcEiDKIaiXU84SCiNq6x1xUldmOvihgVTHYZM6qc5Npy1w4ipggfz8wBAhCoRcC7iNGy0p/7+sPTKHFHrNVZ92SMPQl7k7a/7C6usbceEeOeZHK/kM899mr3xWgJIO6YuHvE2s1g2P0dkrGSkyvSP+SeSNIj4nLEemhoKCwh2Ud2hVPcMXF5zZ3nmhd/F6DVI9Z2iUj8iuuJkQ2y0XHd74lJOmJtN9dGLeCksWuVk5J4x/XjuD0q7vcg2evjiktnm60f7ajriLXEqrPjZNPZ2VF1ok5iLY+bfzLP/PH9D8OTfG78JKupx9ej1k6tN3+rXqext1WkGQcC5SOQmogpH7r2zLjWCZX2eMWoEIgngIhhdUAAAr4IIGJ8kU3BbtQx51pZihSGxQQEUiWAiEkVJ8YgAAGLACIm48shqZSVcddxDwIBAUQMCwECEPBFABHjiyx2IQABRAxrAAIQ8EoAEeMVL8YhAAEyMawBCEDAFwFEjC+y2IUABMjEsAYgAAGvBBAxXvFiHAIQIBPDGoAABHwRQMT4IotdCECATAxrAAIQ8EoAEeMVL8YhAAEyMawBCEDAFwFEjC+y2IUABMjEsAYgAAGvBBAxXvFiHAIQIBPDGoAABHwRQMT4IotdCECATAxrAAIQ8EoAEeMVL8YhAAEyMawBCEDAF4FQxPgaALsQgAAEIAABCEDAF4GT9u0/9G3XxHG+7GMXAhAoMQEyMSUOPlOHgGcClJM8A8Y8BMpOABFT9hXA/CHgjwAixh9bLEMAAvwr1qwBCEDAIwFEjEe4mIYABIwhE8MqgAAEfBFAxPgii10IQCAggIhhIUAAAr4IIGJ8kcUuBCCAiGENQAACXgkgYrzixTgEIEAmhjUAAQj4IoCI8UUWuxCAAJkY1gAEIOCVACLGK16MQwACZGJYAxCAgC8CiBhfZLELAQiQiWENQAACXgkgYrzixTgEIEAmhjUAAQj4IoCI8UUWuxCAAJkY1gAEIOCVACLGK16MQwACZGJYAxCAgC8CqYmY44ND5uFHnw78vO/uW80pnR2hz5s/+Mi8+PJ688D9d5ixYyuJczl8eMAsX9Fjblk435wxpXvYtWvXbTCf9u4Jxli/YVP4sz1ePbBWPLU6uGzZbYuM2Pzy4KHg57Qftr+N+ljLl2ZtN3tfLX94HQJRBBAxrAsIQMAXgdRFTN8X/ebaqy8z8+fN9S5i0hIFZRMxvhYTdiGAiGENQAACrSSQuogZUxlldvbuNffcuTjMpLiZGM3aiOCRx/nTpwVZEMnCPPjQE2bg6LHg90sX32hmX3BeFY+4TEx//wHzzJq1Zs7smealdX8I7c698hLzyOOrzNDQN6YyelSYDdJMzMTxp5nXXt8UXN89qWtYFkl9WnDDNaEvtg9x42pWx816CIuVq14IxuvoOLmKk8tFrrEFoc1H7j19UpcZHPpmmM8KTOa4bfvO4Kk9d5ehzt8GrezdmGisWrlIGSvfBMjE5Dt+eA+BLBNIXcRcdcUc8+HWj82RgWPh5mqLmM5TOoOyk4gd2eh149bnzZaTREyIWJk2dXJg97M9fcHzzo6OQLjouGdPnRJkieotJ9UjYmScCePHBfOVhz0/WzBs/2SXWf38K6FwES76vKtrQtV9YkfuffPt94PrTx1bCQTeRbNmBP7r/HRcNyvliqd6y3DCRWM3eHwwGFMFnMZKGWZ5YeNbdgggYrITCzyBQNEIeBExZ07urtpwbRGze2/fsP4Y2ZCf7Fljbl+yMNism+mJERGjNqSXJmrDtctGaYoYe1xZIPZ833pnS9C3c9cvbjaP/epZ4woA2w93cdlcvj4yMIxbUm9LM6+5GbOoMpv4JBmve5ctqdnfVLQ3C/NpjgAipjlu3AUBCNQm4EXESAnIzjLYG7Bu6nbzr519SVvESGZIS1K+RIy7qdvi4+MdvYGIWbJogVn+y54wq6GhiRIKdhlIS05qx+YmjN/Y+G5kOcktPdnlvSiBo5mdRT+9PuRl+2EvJbs0VXuJcUXZCSBiyr4CmD8E/BHwJmLEZS1NXHzhTPPq+o1BWQcR811vjZaM9GSUigbtzbGzS42KGF0ydp+Nig83Bip4tFSl9yZlifwtSSwXjQAipmgRZT4QyA4BryJGN0fJJkhjrYiYVpeTWpGJSaOctHDBdcPKaCMpJ7lLzO7t2b//YNXRdLsPxu6t4Sh2dt6oefYEEZPn6OE7BLJNwKuIkanraRzNAvhs7I3qiRmpiIlqPJZm10plVFDGcRuK3V6ceht7tXFXm2hVdAwODQWNvdr4qz01jTb2RvXp6HftvLdla+R3+ERlaBA22X5DZ9E7REwWo4JPECgGAe8iRstKf+7rDzfKuCPWdhlDjga73zej5ZeoL7uLa+ytR8S4J5ncL+TT1/WY9t9efpH5cNsnoYgR8SSnhHbt/jyYgn0MuZEj1u7xa+lPkS8J1DKP3eciovCsqZPNgYNfRfbEuIzt49zqkzYb61F3e0kre3vu8nrUMfRivBWYhS8CiBhfZLELAQikJmLKitIu+UR9w3BZuTBvCCgBRAxrAQIQ8EUAETNCsoiYEQLk9sITQMQUPsRMEAJtI4CIGSF6RMwIAXJ74QkgYgofYiYIgbYRQMS0DT0DQ6AcBBAx5Ygzs4RAOwggYtpBnTEhUCICiJgSBZupQqDFBBAxLQbOcBAoGwFETNkiznwh0DoCiJjWsWYkCJSSACKmlGFn0hBoCQFETEswMwgEyksAEVPe2DNzCPgmgIjxTRj7ECg5AURMyRcA04eARwKIGI9wMQ0BCBiDiGEVQAACvgggYnyRxS4EIBAQQMSwECAAAV8EEDG+yGIXAhBAxLAGIAABrwQQMV7xYhwCECATwxqAAAR8EQhFjK8BsAsBCEAAAhCAAAR8EThp3/5D33ZNHOfLPnYhAIESEyATU+LgM3UIeCZAOckzYMxDoOwEEDFlXwHMHwL+CCBi/LHFMgQgwOkk1gAEIOCRACLGI1xMQwACHLFmDUAAAv4IIGL8scUyBCBAJoY1AAEIeCSAiPEIF9MQgACZGNYABCDgjwAixh9bLEMAAmRiWAMQgIBHAogYj3AxDQEIkIlhDUAAAv4IIGL8scUyBCBAJoY1AAEIeCSAiPEIF9MQgACZGNYABCDgjwAixh9bLEMAAmRiWAMQgIBHAogYj3AxDQEIkIlhDUAAAv4IIGL8scUyBCBAJoY1AAEIeCSQmog5PjhkHn70adP3RX+ku0sX32hmX3Cex6lUm167boN57fVNwS9HOvZne/rMkz1rzO1LFpozpnSnOofDhwfMgw89YRbccE1L+YxkEj55rHhqdeDastsWNeRiIxzl2uUreswtC+c3Hc/NH3xkVq56IfDx2qsvM/PnzW3I3zJdzL+dVKZoM1cItJZA6iLmqivmtH0zVkGVli8+N+3Whjv7ozUrYhqZWRoiRvycOP40xEsd4BExdUDiEghAoCkCLRcxURkb+y9ZO4PS0XGyuefOxcFfy+7mpnbOnjqlaiPRv8gHjh4LgHRP6jL33X2rGTw+GGQ89Pf2mGJ7TGW0eW/L1uAeHVOJqoiZMH6c2bX78+DX50+fVpUtsP8yd7M/7pyvuHS22frRjiCzc+rYSlUmRnzp6Ogwu3r3hr5qJkn8eGbNWtM96ftm85+2Vc3vlM6O4HmSH7Xm6a6guFjYok78l6zGnNkzzat/2GiGhr4JmP/85h+Z/7Xi18Ec7DiKzS8PHgqG2rZ9Z/B/O1PmxjnOB9dXOxNz5uTuwKdpU6eYjW9vDi6tjB5lHrj/juBnex3o2I1wk7Vy4OBXVXZ37+0LMzP2eGPHVoLrkuaRNHZT7+qM3YSIyVhAcAcCBSLQUhGjm/mYyqhQAMiH+5tvvx8Ih6+PDJgXX14fbDby4S8f7vpcNgn7Nd3Q7122JLjWfriZGN3gLpo1IxA87nPZOP/c1x+O68ZXxnrk8VVGRIwIInlI6UznYfspvriZG7F/ZOBY1b2yCcqco0TMzt69oZASPiKuhMnXhwcCP6ZNnRzwc+dRjx9J87Tn7dqyn4sfWl5T/yuVUVVicXBoKFKA6mauIlLZLvrp9UEGzxYxcu2nvXsCuyLSXJ9sf10RI0JFfXLj5WZimuFmZ2Lk/tXPvxLOV305vbsriFMSy6h17at02a7PLURMu8gzLgSKTyB1ERPVE6N/BbtiQ/DaG74rYuI2Kdns9C/6qN4JV8S4m6HYtTeWNS/+Lhgqrg8jqpyk99/7Dz83PatfMm7pSv1buOC6Yf0X9qYXJWJsX+yx5ffuBqeb/pKf/TgQVnF+yNwaKdUkCQY3E+P29LjjiK03Nr4biJH1GzZVCROZk329/hzFTa+NKuNEiRi7z8heA5KV056Yrq4JTXGrVU5y4+JmDGUucWXPpLWdx48kREweo4bPEMgHgdRFTL19KPIhr+UELTfohqJCyG3ItTcO+XnmjHMj+2/czSFq87YzOfWIGCnj2Fkf3cgXLvh7I/drmcoOu5Sc5l55SVACiro3rpzUjIiRTd8uk7h+NCpi3BKYHYt6RIwtNFwRI+UkWzDaAqPnN78NXBduknWS8pT7iGqkbVbEqIiMi18ctygRo1kl9Vnir3GJatx2S59RMcvHx0iyl4iYIkSROUAgmwRaLmJUvGivSn//gciTP3qd3U+hm6H0W/z62ZfMXUtvGlZKivoLtxUiJu50UVTZK0kEuL7Wm4lJ2ix16TWSibGXqxsLOyPkZpKisiXNiphGyiojFTFJp8OiuNkixhYvKvbsjFLc6bNGTlRl8+OjPq8QMfVx4ioIQKBxAi0VMVGnQpJO/rjNu3q/NGweGTgaW/5pRzkpqlwg4Yias89yUpwfKi7sLE8jy8WOxbk/nDqsJ8YWAW6WotlyUiNHz5sVMZr9a5SbPceo8k8j5aSksRuJUVavRcRkNTL4BYH8E2i5iLE3Jt14tAnU7YmJEjiaFUj67pdmGnuTNnf9SzupodZu7HTFV6ONvbYv9WZitIG0lh/1ipikZteRZmLk+3vsE1d2xsVt7NWmZumnSspcNCti5OSb25gbFT+Xmyti7AZkbV7WE2xJLGXNJ8Us/x8xfGNvEWLIHCCQVQKpi5i4L7uzP9D1S8KkVCSnUuTUkZ4csntlBJorVpIaThVyVMOk23/gHrGuJWLco83uEWv7CK3Ysu1HHbHe2bsn6JORhy3smi0naY9Jkh+u7aiGZ3uhxsVipD0xW7fvCIY5cPAvwf+TjljXWg/qbyMiRk46qV2NUyPcNKulfT9ufGVtyGu2AHPt23NOGjurHxyN+EUmphFaXAsBCDRCIDUR08igI7lWRMyHWz9u+BtdRzJm2vcmHQ9Pe6wke7L5vvx/Npgb/n5ucIS5FY9awqkVPjBGawkgYlrLm9EgUCYCuRMxSaeSshi4qBJIsw22ac9PBOH+/Qdb+q2ziJi0o5h9e4iY7McIDyGQVwK5ETFuX0qegLvfyOqWovI0l5H6iogZKcH83Y+IyV/M8BgCeSGQGxGTF6D4CQEIVBNAxLAiIAABXwQQMb7IYhcCEAgIIGJYCBCAgC8CiBhfZLELAQggYlgDEICAVwKIGK94MQ4BCJCJYQ1AAAK+CCBifJHFLgQgQCaGNQABCHglgIjxihfjEIAAmRjWAAQg4IsAIsYXWexCAAJkYlgDEICAVwKIGK94MQ4BCJCJYQ1AAAK+CCBifJHFLgQgQCaGNQABCHglgIjxihfjEIAAmRjWAAQg4ItAKGJ8DYBdCEAAAhCAAAQg4IvASfv2H/q2a+I4X/axCwEIlJgAmZgSB5+pQ8AzAcpJngFjHgJlJ4CIKfsKYP4Q8EcAEeOPLZYhAAH+7STWAAQg4JEAIsYjXExDAAL8A5CsAQhAwB8BRIw/tliGAATIxLAGIAABjwQQMR7hYhoCECATwxqAAAT8EUDE+GOLZQhAgEwMawACEPBIABHjES6mIQABMjGsAQhAwB8BRIw/tliGAATIxLAGIAABjwQQMR7hYhoCECATwxqAAAT8EUDE+GOLZQhAgEwMawACEPBIABHjES6mIQABMjGsAQhAwB8BRIw/tliGAATIxLAGIAABjwRSFzHHB4fMw48+bfq+6A/dvvbqy8z8eXM9TqNx0+rnVVfMMbMvOK9xAw3ecfjwgFm+osfcsnC+OWNKd4N3V1+++YOPzBsb3zX33X2rOaWzY5gteX3lqheC3/tmv+Kp1cE4y25bNKI5NXvz2nUbzKe9eyJZ2GuxMnqUmTH9bPP5F/uCa9dv2BR7X7O+cF80Af7tJFYGBCDgi0CqIuazPX3mkcdXmSsvvTAULbJ5P/jQE+b07q62bXRR8IosYkRYTBx/WkuEY5ZFjKzHZ9asNfcuW2LGjq1ULYMk8ePrzVZWu4iYskaeeUPAP4HURIyKgrOnThm2ecpm8mTPGnP7koVBFkLFztDQN8EMOzpONvfcuTh8TTae7knfN5v/tC14vXtSV2zWwbXlZh5ks3rt9U1V43R1TajKFkVlK3QDnDN7pnlp3R+C+8+fPi0UYmL38MBRs6t3rxk4eswsXXyjmX7OWVV29XoVcnKdPORayf64v7fty3VRvn99ZCDMskh24YH77wg3aDcLpq93ntIZ6ZeMIfNc9/s3Ar927f68ao66/JIYi4g5MnDMDMh/zvzUvgjbqFhHMRQuUfPW7JXNTNbN6ZO6zODQN8PWh52NEj8kxvLQrI2biXGv1xhFzcF3dsv/2761IyBiWsub0SBQJgKpiRhXqMRB1A1x0U+vDzZy3Xjleknz9/cfCLI506ZODgSDbloXzZoxTBzpawtuuKZKFOhz969t2ahefHl9sPHrxh5XTlI/J4wfF/glDymTjamMCvwS22++/X4ovnQe+rr73C0nub67ItD2VbII9vPde/sSy0l2JqaWX1HZMzt2tRjLWDt794YchMt7W7YGjL8+PBDEMi7WIiRshirc7PKQPW95XbJ6uhbcGLmlNTcTY68HW8Rs/2RXuC6Etb2WTx1bCcaMW2Nl+rBodq6ImGbJcR8EIFCLQGoixt10aw1sv25vLiJi7KyNXBdXsnA3WHfzjepB0Q3+mrmXBaIkScS4fthzfOudLVU9FVHzdzdD2x+Z85cHD1WV2HTTvXPpTaZn9UsmKqslc6zVE2OLmFp+iT13nkkixo2rG5taYjZOSIgAiesb0vl873vjq8RGlOix/atHxNz1i5vNY796dtg60PgsXHBdlYhpZF1z7QkCiBhWAgQg4ItA20SMW0rRklEjIkY3MS0X2eUYtwRiA5RyQD0ixu2nsDfoj3f0VomYqB4Le1OWv+htESMb87btO4fFVUpAdy29yTy28rnwr3/3okZETC2/aomYJMZRAjNKxMTF2i3p1IqZjOc28SaxqEfELFm0wCz/ZU9YCrNZ63qyy1tuyc/XG7NIdhExRYomc4FAtgikJmJq/QWu07Y3NO0taDYTY6N0T+Sc+8OpiRmGWo29UU2haYsY8T/qVE9ShknuabWIUc5Rp56SMjFaipFemahYR4mYpKxQlCBLS8RouSjp7dnKU1/Z+pgYmTeImJHx424IQCCeQGoiJqmx196UxRX3eHAaIkanqLb0L+y4zakeEeO7nFTraHAWyklRS8eOV89vfhtcomLMFnrShJwUa1fE1CPetKdJTxslnTKqJxOj5aQ41rXmH3XEnQ+cagKIGFYEBCDgi0BqIkYcTDpiXamMChpk3SZK/eu2mXJSreZYu8lUNj37ej1JVKuxVxuMXZHmbp61GmjjGnvthmXbZlKzaZQ4sBdIo429jfTEuBySMjHipy063FhHfVdLPTFTwZFmY+/q518Z1qQt41x+yayqnpgkse7rTZp3u4iYvEcQ/yGQXQKpihiZptv/IL9zj6Ta/SAiXi6+cKZ58ZX1wSYij3obe+Va92is27Pg9p7YR2e11yGqz0EzCnI6SY4ey8M9Yu1mUtwjznG+KA+3B8Q9Sm73Ysj47tHswaGhcOONEzHy+yS/6ikDJjGu1dibFGu3r0jnkBQze31J/9BZUyebAwe/ijyCX08mRr8w0GVtr9laayy7b+9seIaIyUYc8AICRSSQuogpCqR6NveizJV5QMAnAUSMT7rYhkC5CSBiYuKPiCn3G4PZp0cAEZMeSyxBAALVBBAxiBjeExDwSgAR4xUvxiFQagKImFKHn8lDwD8BRIx/xowAgbISQMSUNfLMGwItIoCIaRFohoFACQkgYkoYdKYMgVYSQMS0kjZjQaBcBBAx5Yo3s4VAywkgYlqOnAEhUBoCiJjShJqJQqA9BBAx7eHOqBAoAwFETBmizBwh0EYCiJg2wmdoCBScACKm4AFmehBoNwFETLsjwPgQKC4BRExxY8vMIJAJAoiYTIQBJyBQSAKImEKGlUlBIDsEEDHZiQWeQKBoBBAxRYso84FAxgggYjIWENyBQIEIhCKmQHNiKhCAAAQgAAEIlITASfv2H/q2a+K4kkyXaUIAAq0kQCamlbQZCwLlIkA5qVzxZrYQaDkBREzLkTMgBEpDABFTmlAzUQi0hwAipj3cGRUCZSCAiClDlJkjBNpIABHTRvgMDYGCE0DEFDzATA8C7SaAiGl3BBgfAsUlgIgpbmyZGQQyQQARk4kw4AQECkkAEVPIsDIpCGSHACImO7HAEwgUjQAipmgRZT4QyBgBREzGAoI7ECgQAURMgYLJVCCQRQKImCxGBZ8gUAwCiJhixJFZQCCzBBAxmQ0NjkEg9wQQMbkPIROAQLYJIGKyHR+8g0CeCSBi8hw9fIdADgggYnIQJFyEQE4JIGJyGjjchkBeCCBi8hIp/IRA/gikJmKODw6Zhx99OiBw3923mlM6O0Iamz/4yLz48nrzwP13mLFjK4mUDh8eMMtX9JhbFs43Z0zpHjHRz/b0mSd71pjblyxMxZ7t0Np1G8yXBw+ZZbctMuL3gw89YRbccI2ZfcF5I/a7FQY0ZlddMSc3PreCC2OkSwARky5PrEEAAt8RSF3E9H3Rb669+jIzf97cUomYPC4qREweo5Y/nxEx+YsZHkMgLwRSFzFjKqPMzt695p47F4eZDzcTo5unCB55nD99WlU2Y+DoseD3SxffGJkhWPHUarNt+86Qsd6vv7BfP+vMH5gDB78KMjEb3nwnuEQyJ/qwsymuX92TusKskmR01v3+jeC2Xbs/N+NPO9UcPPR18FyuW7JogVn+y54wEyPXP/L4KjM09E1wjSvsZNzXXt8UvNbRcXLISzNRc2bPNK/+YWNwv9j/+c0/Mv9rxa+NsLGvl/uF78pVL4RzsrkJi46ODrOrd29wr3Kdfs5ZQeZMY6D+2ewqo0fVlT3Ly2LHz/YQQMS0hzujQqAMBFIXMVKa+HDrx+bIwLFQANgipvOUzmDzFLEjYkKFgz6vVU6STda1LRu4btz26xJAGUtEjIiqr48MVJW17EyEbupnT50SZpHElooeFSVXXnph+HpcOenMyd1VpSW31CT3fdq7J5KPjCdlqUplVPD64PHB4Png0FAodGy/XIHols/kWltUytjvbdkaiBONhZaTXL/c52V4QzDH9AkgYtJnikUIQOAEAS8iRjfxi2bNCDZ8e6PdvbdvWH+MvfGeOrbSUE+MLRBc8SATdG3bfSvy2jNr1pp7ly0x4tcbG9+t6uexBZXYcntr6hUx9mKLE2kiNiaOP81cfsmsYb01tmjRzIv4etcvbjaP/epZ4/a02H6599o8uromBCIvTsTwJoFAGgQQMWlQxAYEIBBFwIuIkcZWES6rn39lWAbkrXe2VGUhxCl7Y69XxNjlGLEhmZhTx1SGCQ1XNNibur3Zu/YUlpZuGhExMn/bnl3ucstMdlCkpBMnYkTgaJ+RsBURoyUsLRPZtnTMRkSMCsKokq6P6RoAAALhSURBVBVvHwg0SwAR0yw57oMABGoR8CZiZGAt7Vx84Uzz6vqNQQljpCJGxYH2a8g4ml2pR8RoVui/L/u5+fWzL9WdhYg65VTP6SS7X0VEyrk/nJp4WirqlJNmaeJETNKJqEZEjC4WuzeIvphabyFer0UAEVOLEK9DAALNEvAqYnRDlmyGNKiKiBlJOSnqNE0j5SQ5sq3XzzjvbLOzd09QSpJj37WOgTcrYjQw2l/iNgC7gWtExGg5ye7jce01I2LURh6PjTf7RuA+fwQQMf7YYhkCZSfgVcQIXM1E6F/0I2nsVRGjm7adMdDGXrsZVca3G3v1e2f0BI59+shtMFbf9fttvj480HRPjOu33VwrAqqWEIvLxEjj7/ZPdoVlO5mfO1YjIiap4bjW9/uU/Y3E/OMJIGJYHRCAgC8C3kWMlpX+3NcfHteNO2Ktk1SR4R5LltfdnpKbfzLP/PH9D8PTTjqeHsG+4tLZZutHO6q+7E6FlWvf7gkRO3YpJSoTo750dnSYu5beZB5b+Vx4xNo99px0DFzGUhHWSCZGv1TQ7eex55UkYkT06L3i35Kf/bjq2LV7lNvXIsRusQkgYoodX2YHgXYSSE3EtHMSjA0BCGSXACImu7HBMwjknQAiJu8RxH8IZJwAIibjAcI9COSYACImx8HDdQjkgQAiJg9RwkcI5JMAIiafccNrCOSGACImN6HCUQjkjgAiJnchw2EI5IsAIiZf8cJbCOSJACImT9HCVwjkkAAiJodBw2UI5IQAIiYngcJNCOSVACImr5HDbwhknwAiJvsxwkMI5JoAIibX4cN5CGSaACIm0+HBOQjknwAiJv8xZAYQyCoBRExWI4NfECgIAURMQQLJNCCQQQKImAwGBZcgUCQCiJgiRZO5QCBbBBAx2YoH3kCgcAQQMYULKROCQGYIIGIyEwocgUAxCSBiihlXZgWBLBAIRUwWnMEHCEAAAhCAAAQg0AiB/w92kGVZ6OrQhgAAAABJRU5ErkJggg==;clipPath=inset(13.39% 50.67% 0% 0%);" parent="ac8dYfmG1soSG2riglzt-164" vertex="1">
          <mxGeometry y="50" width="309" height="330.92" as="geometry" />
        </mxCell>
        <mxCell id="ac8dYfmG1soSG2riglzt-6" value="" style="shape=image;verticalLabelPosition=bottom;labelBackgroundColor=default;verticalAlign=top;aspect=fixed;imageAspect=0;image=data:image/png,iVBORw0KGgoAAAANSUhEUgAAAD0AAAAOCAYAAACcjBTqAAAAAXNSR0IArs4c6QAAAARnQU1BAACxjwv8YQUAAAAJcEhZcwAADsMAAA7DAcdvqGQAAAOuSURBVEhL5ZdLbIxRFMf/rSkZlHboqBEtKoaOVJV4hEZENFLSTSUSK4luLSwkLIjYSGwtbC28YxKvdFGLRkjaUI94REYyRNHU1Luplpb6ne/7JjpGzUgrEk7cztx77r3nf17/O3J2Hx8c1H8mud7nfyVupvOlyFQpz1tMkc/SnRfe939EXKfnS/uqJL+3mCIfpD2XvO8jkKWLpLLxUu876cJDb/EvSVp5dwMqMXS89xQjlNKZUuVsRshb+IuSlum2E1LU1aVIYam0cZ5UMlny9Uvtz6Tzt6S3nt5apHaJFC6QAmOkN1RI602p5Y20tlpaOZ0tPvZ9IpDomi9zJ+uVnOt7JR257l5Tvx4b9FlXu3Ts/vd5+xPOl1EtOeC7KD3NhCcgbQFPySSJf04C2267eLIjshnSthX0fRGGccg/AecI1I51APe2NNRI1WQxaJHDuSB76wBci1MBgDkOm4xDZ3O+2nqQIBXZxJPC5NrE1Hl4AQP0Ps7nZ8LDfTuwXYk+YHYZoWngWQtGpmlOL90qHRwyGrisrgLDXN77Ujp0mh6/QuS+YIyLaoo5RMT9vawRxUb6fy974hCgOGNgo6y1kV0Tu2PPWemqO81a8slw8zXpaItUnAkPNkPoNSA1oTc8bVRTAoxBWizN6QE2poyv9CORdgQi2lYr7YSU/N7rHirhzyPpcCss38XeZeg38TnW1Y/Wo5jgBWmi5GN8FmfCA45um5Dhms3oN6B/DYES6ShtkgbpzhkiM2QcxSEfUTbxYyRA2dmwKnaCYsbmSLsop5qw+/RZKff/wZ88GfHgWJQXIvGROXwQpL8jYGsgQPVUQlZ56IZ8TDoIQDIYUUgjeoPoxyGpWRimnAYobyu3A+fYC7lkK3kAS/aiPwtEmfAUUuZ+iCuO83tPulWYICDWbiVgHbO6fv9+kZ01sCu21XFP+vEZ7ZkCKRj5ELFyyKGcPl81V6rgGRIl18n6QkgmF8AFlF7FQnrZI6Ie6LT1uTQb5i0lHXmUfQVE1PcYpsWmc4715eirIwTPnCaTyXNV5W5Ak3Pnzgx44ty/fTH2gqyx1wgzxDD/XsPyWWU6BoE0dZBJdodg6DDGfEQudlc63UlLEOV4Hxth1ghEEaHs4k5TfZfGGM8YZCOcNmbHR+dcrMdRy8cZe28e/HDuZ5IJz1vubaL3rdSD6O23gfV8gsyf4hn87f9whHHKP8xPUysr7tcDWHU4CZEFcRbMoyK/wmNSBrHZi/iUCnDfcOkblLQ+ph5htD0AAAAASUVORK5CYII=;" parent="ac8dYfmG1soSG2riglzt-164" vertex="1">
          <mxGeometry x="9" y="27" width="74.07" height="17" as="geometry" />
        </mxCell>
        <mxCell id="ac8dYfmG1soSG2riglzt-3" value="" style="shape=image;verticalLabelPosition=bottom;labelBackgroundColor=default;verticalAlign=top;aspect=fixed;imageAspect=0;image=data:image/png,iVBORw0KGgoAAAANSUhEUgAAADUAAAAaCAYAAAAXHBSTAAAAAXNSR0IArs4c6QAAAARnQU1BAACxjwv8YQUAAAAJcEhZcwAADsMAAA7DAcdvqGQAAALaSURBVFhH7ZjPb0xRFMe/ZYpB0WIiT1QYlHRhSIkmZlF2DbqYRTcWXXTbRXe64A+w8S/YWFRYEJmIRCyGTEVCI534TXRRTKUlRMMM9Tnv3anppIvOlKRT80ne3HvPfe/ce8793vtepu7MpelpLTGWuXJJUQuqWqgFVS3UgqoW/uOgGqTWHVKsWWp0pgLeVuz0tTQ5wyJgfkEx8US71H1UOn3Q2RztB7DT17nHGRYBZcvP200ArNxiZn7ffnulc6xQ2DXzn6SLSekV9cQJqW2dlH0tXRgK+mPcG/eQ6mpp6qs0+lIafB70dcTpJynjo9LEJupcuc/SXZ6d2EXCtvtq1+hbxngUPGN4KKFzJyVj5b8xNv4KPkspe6XyP6XQBunUYWcoIX4MOZIEG7yedhP3xtqkPifbpvVSBFszk7TAG1Zg28yEj/PcPvpIRJirhXoPQRiN1HvxEWXfhut4Bt/ms/9I0F9K2UGNvCAwygiHQ4K9VorHJLOsZIYsn70sJT84+5agLNDwS7p+k2y/CdohAhl/LA1gG7MBwNsWlF0EZSoxNQwMSufxPUU7wsHV4d8xm/JX6qGU+khlOdnikChIssAgk0oindxGVqeT1UBePiUjTX2R0hPS8GQwQSM7wg+2MeRlhEL8kDxvVdAOs1L9+OzBJts09EfnOKDKDsq4lUbTP/CJDFq5iunuYtD9BEyWTUo5l/WKWenP3Se8Fqm6q55tkMf3XO4rCkpk+WrmT4ZnIGstaygZKXUD+V2RhpDignjqD+fz7F4gabuuDTOHB4zzznUWUVlQMPlEuuP2yww5lzmTBatl77V4xO9ZEBmTO7TyPuzFZ+9J9jMHRfchDpxCxEVUHJSRuo0Mv7uGwaZPvQ+qHpvYJJjNBu2FYHK3/ScOoSh+o3bmM276Pon175jNv/mPwj6r+J4a413EOfD3ML928HCQZEpVUkTtj5dqoRZUtbAEg5J+AwNQrXbflyfnAAAAAElFTkSuQmCC;clipPath=inset(11.54% 0% 15.38% 8.49%);" parent="ac8dYfmG1soSG2riglzt-164" vertex="1">
          <mxGeometry x="236" y="3" width="53.61" height="21" as="geometry" />
        </mxCell>
        <mxCell id="ac8dYfmG1soSG2riglzt-7" value="" style="endArrow=none;html=1;rounded=0;strokeColor=#E6E6E6;exitX=0;exitY=0;exitDx=0;exitDy=0;" parent="ac8dYfmG1soSG2riglzt-164" edge="1">
          <mxGeometry width="50" height="50" relative="1" as="geometry">
            <mxPoint x="1" y="1" as="sourcePoint" />
            <mxPoint x="310" y="49" as="targetPoint" />
          </mxGeometry>
        </mxCell>
        <mxCell id="ac8dYfmG1soSG2riglzt-137" value="" style="group" parent="ac8dYfmG1soSG2riglzt-164" vertex="1" connectable="0">
          <mxGeometry x="310" y="50.000000000000036" width="102" height="329" as="geometry" />
        </mxCell>
        <mxCell id="ac8dYfmG1soSG2riglzt-129" value="" style="rounded=0;whiteSpace=wrap;html=1;fillColor=#fff2cc;strokeColor=none;" parent="ac8dYfmG1soSG2riglzt-137" vertex="1">
          <mxGeometry width="102" height="41" as="geometry" />
        </mxCell>
        <mxCell id="ac8dYfmG1soSG2riglzt-130" value="" style="rounded=0;whiteSpace=wrap;html=1;fillColor=#fff2cc;strokeColor=none;" parent="ac8dYfmG1soSG2riglzt-137" vertex="1">
          <mxGeometry y="42" width="102" height="41" as="geometry" />
        </mxCell>
        <mxCell id="ac8dYfmG1soSG2riglzt-131" value="" style="rounded=0;whiteSpace=wrap;html=1;fillColor=#fff2cc;strokeColor=none;" parent="ac8dYfmG1soSG2riglzt-137" vertex="1">
          <mxGeometry y="84" width="102" height="40" as="geometry" />
        </mxCell>
        <mxCell id="ac8dYfmG1soSG2riglzt-132" value="" style="rounded=0;whiteSpace=wrap;html=1;fillColor=#fff2cc;strokeColor=none;" parent="ac8dYfmG1soSG2riglzt-137" vertex="1">
          <mxGeometry y="166" width="102" height="40" as="geometry" />
        </mxCell>
        <mxCell id="ac8dYfmG1soSG2riglzt-133" value="" style="rounded=0;whiteSpace=wrap;html=1;fillColor=#fff2cc;strokeColor=none;" parent="ac8dYfmG1soSG2riglzt-137" vertex="1">
          <mxGeometry y="207" width="102" height="40" as="geometry" />
        </mxCell>
        <mxCell id="ac8dYfmG1soSG2riglzt-134" value="" style="rounded=0;whiteSpace=wrap;html=1;fillColor=#fff2cc;strokeColor=none;" parent="ac8dYfmG1soSG2riglzt-137" vertex="1">
          <mxGeometry y="248" width="102" height="40" as="geometry" />
        </mxCell>
        <mxCell id="ac8dYfmG1soSG2riglzt-135" value="" style="rounded=0;whiteSpace=wrap;html=1;fillColor=#fff2cc;strokeColor=none;" parent="ac8dYfmG1soSG2riglzt-137" vertex="1">
          <mxGeometry y="289" width="102" height="40" as="geometry" />
        </mxCell>
        <mxCell id="ac8dYfmG1soSG2riglzt-136" value="" style="rounded=0;whiteSpace=wrap;html=1;fillColor=#fff2cc;strokeColor=none;" parent="ac8dYfmG1soSG2riglzt-137" vertex="1">
          <mxGeometry y="125" width="102" height="40" as="geometry" />
        </mxCell>
        <mxCell id="ac8dYfmG1soSG2riglzt-17" value="" style="shape=image;verticalLabelPosition=bottom;labelBackgroundColor=default;verticalAlign=top;aspect=fixed;imageAspect=0;image=https://cdn3.emoji.gg/emojis/2947-yes.png;" parent="ac8dYfmG1soSG2riglzt-137" vertex="1">
          <mxGeometry x="40.75" y="8.75" width="20.5" height="20.5" as="geometry" />
        </mxCell>
        <mxCell id="ac8dYfmG1soSG2riglzt-18" value="" style="shape=image;verticalLabelPosition=bottom;labelBackgroundColor=default;verticalAlign=top;aspect=fixed;imageAspect=0;image=https://cdn3.emoji.gg/emojis/2947-yes.png;" parent="ac8dYfmG1soSG2riglzt-137" vertex="1">
          <mxGeometry x="40.75" y="50.75" width="20.5" height="20.5" as="geometry" />
        </mxCell>
        <mxCell id="ac8dYfmG1soSG2riglzt-20" value="" style="shape=image;verticalLabelPosition=bottom;labelBackgroundColor=default;verticalAlign=top;aspect=fixed;imageAspect=0;image=https://cdn3.emoji.gg/emojis/2947-yes.png;" parent="ac8dYfmG1soSG2riglzt-137" vertex="1">
          <mxGeometry x="40.75" y="93.75" width="20.5" height="20.5" as="geometry" />
        </mxCell>
        <mxCell id="ac8dYfmG1soSG2riglzt-21" value="" style="shape=image;verticalLabelPosition=bottom;labelBackgroundColor=default;verticalAlign=top;aspect=fixed;imageAspect=0;image=https://cdn3.emoji.gg/emojis/2947-yes.png;" parent="ac8dYfmG1soSG2riglzt-137" vertex="1">
          <mxGeometry x="40.75" y="133.75" width="20.5" height="20.5" as="geometry" />
        </mxCell>
        <mxCell id="ac8dYfmG1soSG2riglzt-22" value="" style="shape=image;verticalLabelPosition=bottom;labelBackgroundColor=default;verticalAlign=top;aspect=fixed;imageAspect=0;image=https://cdn3.emoji.gg/emojis/2947-yes.png;" parent="ac8dYfmG1soSG2riglzt-137" vertex="1">
          <mxGeometry x="40.75" y="177.75" width="20.5" height="20.5" as="geometry" />
        </mxCell>
        <mxCell id="ac8dYfmG1soSG2riglzt-23" value="" style="shape=image;verticalLabelPosition=bottom;labelBackgroundColor=default;verticalAlign=top;aspect=fixed;imageAspect=0;image=https://cdn3.emoji.gg/emojis/2947-yes.png;" parent="ac8dYfmG1soSG2riglzt-137" vertex="1">
          <mxGeometry x="40.75" y="219.75" width="20.5" height="20.5" as="geometry" />
        </mxCell>
        <mxCell id="ac8dYfmG1soSG2riglzt-24" value="" style="shape=image;verticalLabelPosition=bottom;labelBackgroundColor=default;verticalAlign=top;aspect=fixed;imageAspect=0;image=https://cdn3.emoji.gg/emojis/2947-yes.png;" parent="ac8dYfmG1soSG2riglzt-137" vertex="1">
          <mxGeometry x="40.75" y="259.75" width="20.5" height="20.5" as="geometry" />
        </mxCell>
        <mxCell id="ac8dYfmG1soSG2riglzt-25" value="" style="shape=image;verticalLabelPosition=bottom;labelBackgroundColor=default;verticalAlign=top;aspect=fixed;imageAspect=0;image=https://cdn3.emoji.gg/emojis/2947-yes.png;" parent="ac8dYfmG1soSG2riglzt-137" vertex="1">
          <mxGeometry x="40.75" y="299.75" width="20.5" height="20.5" as="geometry" />
        </mxCell>
        <mxCell id="ac8dYfmG1soSG2riglzt-28" value="" style="shape=image;verticalLabelPosition=bottom;labelBackgroundColor=default;verticalAlign=top;aspect=fixed;imageAspect=0;image=https://cdn3.emoji.gg/emojis/2947-yes.png;" parent="1" vertex="1">
          <mxGeometry x="614" y="1945" width="20.5" height="20.5" as="geometry" />
        </mxCell>
        <mxCell id="ac8dYfmG1soSG2riglzt-29" value="" style="shape=image;verticalLabelPosition=bottom;labelBackgroundColor=default;verticalAlign=top;aspect=fixed;imageAspect=0;image=https://cdn3.emoji.gg/emojis/2947-yes.png;" parent="1" vertex="1">
          <mxGeometry x="614" y="1985" width="20.5" height="20.5" as="geometry" />
        </mxCell>
        <mxCell id="ac8dYfmG1soSG2riglzt-30" value="" style="shape=image;verticalLabelPosition=bottom;labelBackgroundColor=default;verticalAlign=top;aspect=fixed;imageAspect=0;image=https://cdn3.emoji.gg/emojis/2947-yes.png;" parent="1" vertex="1">
          <mxGeometry x="614" y="2029" width="20.5" height="20.5" as="geometry" />
        </mxCell>
        <mxCell id="ac8dYfmG1soSG2riglzt-31" value="" style="shape=image;verticalLabelPosition=bottom;labelBackgroundColor=default;verticalAlign=top;aspect=fixed;imageAspect=0;image=https://cdn3.emoji.gg/emojis/2947-yes.png;" parent="1" vertex="1">
          <mxGeometry x="614" y="2071" width="20.5" height="20.5" as="geometry" />
        </mxCell>
        <mxCell id="ac8dYfmG1soSG2riglzt-32" value="" style="shape=image;verticalLabelPosition=bottom;labelBackgroundColor=default;verticalAlign=top;aspect=fixed;imageAspect=0;image=https://cdn3.emoji.gg/emojis/2947-yes.png;" parent="1" vertex="1">
          <mxGeometry x="614" y="2111" width="20.5" height="20.5" as="geometry" />
        </mxCell>
        <mxCell id="ac8dYfmG1soSG2riglzt-33" value="" style="shape=image;verticalLabelPosition=bottom;labelBackgroundColor=default;verticalAlign=top;aspect=fixed;imageAspect=0;image=https://cdn3.emoji.gg/emojis/2947-yes.png;" parent="1" vertex="1">
          <mxGeometry x="614" y="2151" width="20.5" height="20.5" as="geometry" />
        </mxCell>
        <mxCell id="ac8dYfmG1soSG2riglzt-38" value="" style="shape=image;verticalLabelPosition=bottom;labelBackgroundColor=default;verticalAlign=top;aspect=fixed;imageAspect=0;image=https://cdn3.emoji.gg/emojis/2947-yes.png;" parent="1" vertex="1">
          <mxGeometry x="714" y="2029" width="20.5" height="20.5" as="geometry" />
        </mxCell>
        <mxCell id="ac8dYfmG1soSG2riglzt-39" value="" style="shape=image;verticalLabelPosition=bottom;labelBackgroundColor=default;verticalAlign=top;aspect=fixed;imageAspect=0;image=https://cdn3.emoji.gg/emojis/2947-yes.png;" parent="1" vertex="1">
          <mxGeometry x="714" y="2071" width="20.5" height="20.5" as="geometry" />
        </mxCell>
        <mxCell id="ac8dYfmG1soSG2riglzt-40" value="" style="shape=image;verticalLabelPosition=bottom;labelBackgroundColor=default;verticalAlign=top;aspect=fixed;imageAspect=0;image=https://cdn3.emoji.gg/emojis/2947-yes.png;" parent="1" vertex="1">
          <mxGeometry x="714" y="2111" width="20.5" height="20.5" as="geometry" />
        </mxCell>
        <mxCell id="ac8dYfmG1soSG2riglzt-41" value="" style="shape=image;verticalLabelPosition=bottom;labelBackgroundColor=default;verticalAlign=top;aspect=fixed;imageAspect=0;image=https://cdn3.emoji.gg/emojis/2947-yes.png;" parent="1" vertex="1">
          <mxGeometry x="714" y="2151" width="20.5" height="20.5" as="geometry" />
        </mxCell>
        <mxCell id="ac8dYfmG1soSG2riglzt-43" value="" style="shape=image;verticalLabelPosition=bottom;labelBackgroundColor=default;verticalAlign=top;aspect=fixed;imageAspect=0;image=https://cdn3.emoji.gg/emojis/2947-yes.png;" parent="1" vertex="1">
          <mxGeometry x="816.75" y="1902" width="20.5" height="20.5" as="geometry" />
        </mxCell>
        <mxCell id="ac8dYfmG1soSG2riglzt-47" value="" style="shape=image;verticalLabelPosition=bottom;labelBackgroundColor=default;verticalAlign=top;aspect=fixed;imageAspect=0;image=https://cdn3.emoji.gg/emojis/2947-yes.png;" parent="1" vertex="1">
          <mxGeometry x="816.75" y="2071" width="20.5" height="20.5" as="geometry" />
        </mxCell>
        <mxCell id="ac8dYfmG1soSG2riglzt-48" value="" style="shape=image;verticalLabelPosition=bottom;labelBackgroundColor=default;verticalAlign=top;aspect=fixed;imageAspect=0;image=https://cdn3.emoji.gg/emojis/2947-yes.png;" parent="1" vertex="1">
          <mxGeometry x="816.75" y="2111" width="20.5" height="20.5" as="geometry" />
        </mxCell>
        <mxCell id="ac8dYfmG1soSG2riglzt-49" value="" style="shape=image;verticalLabelPosition=bottom;labelBackgroundColor=default;verticalAlign=top;aspect=fixed;imageAspect=0;image=https://cdn3.emoji.gg/emojis/2947-yes.png;" parent="1" vertex="1">
          <mxGeometry x="816.75" y="2151" width="20.5" height="20.5" as="geometry" />
        </mxCell>
        <mxCell id="ac8dYfmG1soSG2riglzt-51" value="" style="shape=image;verticalLabelPosition=bottom;labelBackgroundColor=default;verticalAlign=top;aspect=fixed;imageAspect=0;image=https://cdn3.emoji.gg/emojis/2947-yes.png;" parent="1" vertex="1">
          <mxGeometry x="919" y="1902" width="20.5" height="20.5" as="geometry" />
        </mxCell>
        <mxCell id="ac8dYfmG1soSG2riglzt-52" value="" style="shape=image;verticalLabelPosition=bottom;labelBackgroundColor=default;verticalAlign=top;aspect=fixed;imageAspect=0;image=https://cdn3.emoji.gg/emojis/2947-yes.png;" parent="1" vertex="1">
          <mxGeometry x="919" y="1945" width="20.5" height="20.5" as="geometry" />
        </mxCell>
        <mxCell id="ac8dYfmG1soSG2riglzt-55" value="" style="shape=image;verticalLabelPosition=bottom;labelBackgroundColor=default;verticalAlign=top;aspect=fixed;imageAspect=0;image=https://cdn3.emoji.gg/emojis/2947-yes.png;" parent="1" vertex="1">
          <mxGeometry x="919" y="2071" width="20.5" height="20.5" as="geometry" />
        </mxCell>
        <mxCell id="ac8dYfmG1soSG2riglzt-56" value="" style="shape=image;verticalLabelPosition=bottom;labelBackgroundColor=default;verticalAlign=top;aspect=fixed;imageAspect=0;image=https://cdn3.emoji.gg/emojis/2947-yes.png;" parent="1" vertex="1">
          <mxGeometry x="919" y="2111" width="20.5" height="20.5" as="geometry" />
        </mxCell>
        <mxCell id="ac8dYfmG1soSG2riglzt-57" value="" style="shape=image;verticalLabelPosition=bottom;labelBackgroundColor=default;verticalAlign=top;aspect=fixed;imageAspect=0;image=https://cdn3.emoji.gg/emojis/2947-yes.png;" parent="1" vertex="1">
          <mxGeometry x="919" y="2151" width="20.5" height="20.5" as="geometry" />
        </mxCell>
        <mxCell id="ac8dYfmG1soSG2riglzt-59" value="" style="shape=image;verticalLabelPosition=bottom;labelBackgroundColor=default;verticalAlign=top;aspect=fixed;imageAspect=0;image=https://cdn3.emoji.gg/emojis/2947-yes.png;" parent="1" vertex="1">
          <mxGeometry x="1017.24" y="1902" width="20.5" height="20.5" as="geometry" />
        </mxCell>
        <mxCell id="ac8dYfmG1soSG2riglzt-60" value="" style="shape=image;verticalLabelPosition=bottom;labelBackgroundColor=default;verticalAlign=top;aspect=fixed;imageAspect=0;image=https://cdn3.emoji.gg/emojis/2947-yes.png;" parent="1" vertex="1">
          <mxGeometry x="1017.24" y="1945" width="20.5" height="20.5" as="geometry" />
        </mxCell>
        <mxCell id="ac8dYfmG1soSG2riglzt-63" value="" style="shape=image;verticalLabelPosition=bottom;labelBackgroundColor=default;verticalAlign=top;aspect=fixed;imageAspect=0;image=https://cdn3.emoji.gg/emojis/2947-yes.png;" parent="1" vertex="1">
          <mxGeometry x="1017.24" y="2071" width="20.5" height="20.5" as="geometry" />
        </mxCell>
        <mxCell id="ac8dYfmG1soSG2riglzt-67" value="" style="shape=image;verticalLabelPosition=bottom;labelBackgroundColor=default;verticalAlign=top;aspect=fixed;imageAspect=0;image=https://cdn3.emoji.gg/emojis/2947-yes.png;" parent="1" vertex="1">
          <mxGeometry x="1124.5" y="1902" width="20.5" height="20.5" as="geometry" />
        </mxCell>
        <mxCell id="ac8dYfmG1soSG2riglzt-71" value="" style="shape=image;verticalLabelPosition=bottom;labelBackgroundColor=default;verticalAlign=top;aspect=fixed;imageAspect=0;image=https://cdn3.emoji.gg/emojis/2947-yes.png;" parent="1" vertex="1">
          <mxGeometry x="1124.5" y="2071" width="20.5" height="20.5" as="geometry" />
        </mxCell>
        <mxCell id="ac8dYfmG1soSG2riglzt-72" value="" style="shape=image;verticalLabelPosition=bottom;labelBackgroundColor=default;verticalAlign=top;aspect=fixed;imageAspect=0;image=https://cdn3.emoji.gg/emojis/2947-yes.png;" parent="1" vertex="1">
          <mxGeometry x="1124.5" y="2111" width="20.5" height="20.5" as="geometry" />
        </mxCell>
        <mxCell id="ac8dYfmG1soSG2riglzt-85" value="" style="shape=image;verticalLabelPosition=bottom;labelBackgroundColor=default;verticalAlign=top;aspect=fixed;imageAspect=0;image=https://cdn3.emoji.gg/emojis/2947-yes.png;" parent="1" vertex="1">
          <mxGeometry x="1234" y="1985" width="20.5" height="20.5" as="geometry" />
        </mxCell>
        <mxCell id="ac8dYfmG1soSG2riglzt-86" value="" style="shape=image;verticalLabelPosition=bottom;labelBackgroundColor=default;verticalAlign=top;aspect=fixed;imageAspect=0;image=https://cdn3.emoji.gg/emojis/2947-yes.png;" parent="1" vertex="1">
          <mxGeometry x="1234" y="2029" width="20.5" height="20.5" as="geometry" />
        </mxCell>
        <mxCell id="ac8dYfmG1soSG2riglzt-87" value="" style="shape=image;verticalLabelPosition=bottom;labelBackgroundColor=default;verticalAlign=top;aspect=fixed;imageAspect=0;image=https://cdn3.emoji.gg/emojis/2947-yes.png;" parent="1" vertex="1">
          <mxGeometry x="1234" y="2071" width="20.5" height="20.5" as="geometry" />
        </mxCell>
        <mxCell id="ac8dYfmG1soSG2riglzt-88" value="" style="shape=image;verticalLabelPosition=bottom;labelBackgroundColor=default;verticalAlign=top;aspect=fixed;imageAspect=0;image=https://cdn3.emoji.gg/emojis/2947-yes.png;" parent="1" vertex="1">
          <mxGeometry x="1234" y="2111" width="20.5" height="20.5" as="geometry" />
        </mxCell>
        <mxCell id="ac8dYfmG1soSG2riglzt-89" value="" style="shape=image;verticalLabelPosition=bottom;labelBackgroundColor=default;verticalAlign=top;aspect=fixed;imageAspect=0;image=https://cdn3.emoji.gg/emojis/2947-yes.png;" parent="1" vertex="1">
          <mxGeometry x="1234" y="2151" width="20.5" height="20.5" as="geometry" />
        </mxCell>
        <mxCell id="ac8dYfmG1soSG2riglzt-90" value="" style="shape=image;verticalLabelPosition=bottom;labelBackgroundColor=default;verticalAlign=top;aspect=fixed;imageAspect=0;image=https://cdn3.emoji.gg/emojis/2947-yes.png;" parent="1" vertex="1">
          <mxGeometry x="1334" y="1860" width="20.5" height="20.5" as="geometry" />
        </mxCell>
        <mxCell id="ac8dYfmG1soSG2riglzt-91" value="" style="shape=image;verticalLabelPosition=bottom;labelBackgroundColor=default;verticalAlign=top;aspect=fixed;imageAspect=0;image=https://cdn3.emoji.gg/emojis/2947-yes.png;" parent="1" vertex="1">
          <mxGeometry x="1334" y="1902" width="20.5" height="20.5" as="geometry" />
        </mxCell>
        <mxCell id="ac8dYfmG1soSG2riglzt-92" value="" style="shape=image;verticalLabelPosition=bottom;labelBackgroundColor=default;verticalAlign=top;aspect=fixed;imageAspect=0;image=https://cdn3.emoji.gg/emojis/2947-yes.png;" parent="1" vertex="1">
          <mxGeometry x="1334" y="1945" width="20.5" height="20.5" as="geometry" />
        </mxCell>
        <mxCell id="ac8dYfmG1soSG2riglzt-93" value="" style="shape=image;verticalLabelPosition=bottom;labelBackgroundColor=default;verticalAlign=top;aspect=fixed;imageAspect=0;image=https://cdn3.emoji.gg/emojis/2947-yes.png;" parent="1" vertex="1">
          <mxGeometry x="1334" y="1985" width="20.5" height="20.5" as="geometry" />
        </mxCell>
        <mxCell id="ac8dYfmG1soSG2riglzt-94" value="" style="shape=image;verticalLabelPosition=bottom;labelBackgroundColor=default;verticalAlign=top;aspect=fixed;imageAspect=0;image=https://cdn3.emoji.gg/emojis/2947-yes.png;" parent="1" vertex="1">
          <mxGeometry x="1334" y="2029" width="20.5" height="20.5" as="geometry" />
        </mxCell>
        <mxCell id="ac8dYfmG1soSG2riglzt-96" value="" style="shape=image;verticalLabelPosition=bottom;labelBackgroundColor=default;verticalAlign=top;aspect=fixed;imageAspect=0;image=https://cdn3.emoji.gg/emojis/2947-yes.png;" parent="1" vertex="1">
          <mxGeometry x="1334" y="2111" width="20.5" height="20.5" as="geometry" />
        </mxCell>
        <mxCell id="ac8dYfmG1soSG2riglzt-101" value="" style="shape=image;verticalLabelPosition=bottom;labelBackgroundColor=default;verticalAlign=top;aspect=fixed;imageAspect=0;image=https://cdn3.emoji.gg/emojis/2947-yes.png;" parent="1" vertex="1">
          <mxGeometry x="1434" y="1985" width="20.5" height="20.5" as="geometry" />
        </mxCell>
        <mxCell id="ac8dYfmG1soSG2riglzt-103" value="" style="shape=image;verticalLabelPosition=bottom;labelBackgroundColor=default;verticalAlign=top;aspect=fixed;imageAspect=0;image=https://cdn3.emoji.gg/emojis/2947-yes.png;" parent="1" vertex="1">
          <mxGeometry x="1434" y="2071" width="20.5" height="20.5" as="geometry" />
        </mxCell>
        <mxCell id="ac8dYfmG1soSG2riglzt-104" value="" style="shape=image;verticalLabelPosition=bottom;labelBackgroundColor=default;verticalAlign=top;aspect=fixed;imageAspect=0;image=https://cdn3.emoji.gg/emojis/2947-yes.png;" parent="1" vertex="1">
          <mxGeometry x="1434" y="2111" width="20.5" height="20.5" as="geometry" />
        </mxCell>
        <mxCell id="ac8dYfmG1soSG2riglzt-107" value="" style="shape=image;verticalLabelPosition=bottom;labelBackgroundColor=default;verticalAlign=top;aspect=fixed;imageAspect=0;image=https://cdn3.emoji.gg/emojis/2947-yes.png;" parent="1" vertex="1">
          <mxGeometry x="1534" y="1902" width="20.5" height="20.5" as="geometry" />
        </mxCell>
        <mxCell id="ac8dYfmG1soSG2riglzt-111" value="" style="shape=image;verticalLabelPosition=bottom;labelBackgroundColor=default;verticalAlign=top;aspect=fixed;imageAspect=0;image=https://cdn3.emoji.gg/emojis/2947-yes.png;" parent="1" vertex="1">
          <mxGeometry x="1534" y="2071" width="20.5" height="20.5" as="geometry" />
        </mxCell>
        <mxCell id="ac8dYfmG1soSG2riglzt-112" value="" style="shape=image;verticalLabelPosition=bottom;labelBackgroundColor=default;verticalAlign=top;aspect=fixed;imageAspect=0;image=https://cdn3.emoji.gg/emojis/2947-yes.png;" parent="1" vertex="1">
          <mxGeometry x="1534" y="2111" width="20.5" height="20.5" as="geometry" />
        </mxCell>
        <mxCell id="Xvv-3D1xzsfTLac5hQKR-1" value="&lt;font style=&quot;font-size: 10px;&quot;&gt;Comparison features vs. similar services&lt;/font&gt;" style="text;html=1;align=center;verticalAlign=middle;whiteSpace=wrap;rounded=0;" vertex="1" parent="1">
          <mxGeometry x="770.5" y="2192" width="259.5" height="30" as="geometry" />
        </mxCell>
      </root>
    </mxGraphModel>
  </diagram>
</mxfile>
